<svg xmlns="http://www.w3.org/2000/svg" width="54.844" height="54" viewBox="0 0 54.844 54">
    <defs>
        <clipPath id="clip-path">
            <path id="SVGID" fill="none" d="M615.191 157.58l-6.754-.609a18.488 18.488 0 0 1-16.746-20.077l.657-7.291a21.875 21.875 0 0 1 23.745-19.832 21.881 21.881 0 0 1 19.819 23.761l-.657 7.292a18.483 18.483 0 0 1-20.064 16.756z" transform="translate(-591.615 -109.68)"/>
        </clipPath>
        <clipPath id="clip-path-2">
            <path id="SVGID-2" d="M702.407 273.063c.509-.426 5.682.695 5.809 1.141.242.854-2.542 5.2-3.579 5.2s-2.953-5.735-2.23-6.341z" class="cls-2" transform="translate(-702.248 -272.968)"/>
        </clipPath>
        <style>
            .cls-2{fill:#dd335c}.cls-3{fill:#00aaed}.cls-4{fill:#3d4459}.cls-5{fill:#fbe6b9}.cls-6{fill:#f5a200}.cls-8{fill:#fff}
        </style>
    </defs>
    <g id="안녕" transform="translate(-550.253 -92.5)">
        <g id="그룹_9386" transform="translate(550.253 108.108)">
            <g id="그룹_9385">
                <path id="패스_10062" d="M550.733 187.137c-.478-1.615-.734-3.748-.112-3.913.546-.144 1.069.946 1.069.946s-.226-1.63.4-1.794c.732-.193 1.1 1.45 1.1 1.45s.181-1.3.708-1.4 1.118 2.141 1.345 3.383c.446 2.458-3.869 3.491-4.51 1.328z" class="cls-3" transform="translate(-550.253 -182.36)"/>
                <path id="패스_10063" d="M572.87 195.089s1.578-2.285 1.13-2.747-2.218.769-2.218.769z" class="cls-3" transform="translate(-568.043 -190.522)"/>
            </g>
            <path id="패스_10064" d="M562.022 216.013c-.211 0-5.2-.073-7.985-4.149a10.067 10.067 0 0 1-1.441-6.977l4.376.788a5.747 5.747 0 0 0 .737 3.682 5.9 5.9 0 0 0 4.352 2.21l-.029 2.223z" class="cls-3" transform="translate(-552.088 -200.974)"/>
        </g>
        <g id="그룹_9388" transform="translate(595.441 125.554)">
            <g id="그룹_9387" transform="translate(3.774 8.813)">
                <path id="패스_10065" d="M834.91 333.625c1.6.534 3.492 1.547 3.27 2.151-.195.53-1.388.333-1.388.333s1.465.749 1.243 1.354c-.261.711-1.819.07-1.819.07s.964.9.741 1.382-2.4-.312-3.543-.838c-2.272-1.04-.645-5.168 1.496-4.452z" class="cls-3" transform="translate(-832.316 -333.542)"/>
                <path id="패스_10066" d="M833.89 355.22s.967 2.6 1.6 2.5.642-2.258.642-2.258z" class="cls-3" transform="translate(-833.617 -351.455)"/>
            </g>
            <path id="패스_10067" d="M816.214 296.174a2.213 2.213 0 0 1-1.659-.745 16.915 16.915 0 0 1-2.648-4.27 20.885 20.885 0 0 1-1.316-6.011 2.223 2.223 0 0 1 4.439-.25 16.468 16.468 0 0 0 .981 4.551 12.488 12.488 0 0 0 1.872 3.03 2.224 2.224 0 0 1-1.669 3.694z" class="cls-3" transform="translate(-810.587 -282.802)"/>
        </g>
        <g id="그룹_9389" transform="translate(564.264 135.801)">
            <path id="패스_10068" d="M642.645 352.5h-8.615a1.147 1.147 0 0 1 .616-1.273l-3.672-9.426h12.366v10a.7.7 0 0 1-.695.699z" class="cls-4" transform="translate(-630.973 -341.802)"/>
            <path id="패스_10069" d="M660.35 400.1a.754.754 0 0 1 .156-.695h.139a.637.637 0 0 0-.161.695z" class="cls-5" transform="translate(-655.226 -389.398)"/>
            <path id="패스_10070" d="M653.95 400.1a.754.754 0 0 1 .156-.695h.139a.637.637 0 0 0-.161.695z" class="cls-5" transform="translate(-649.937 -389.398)"/>
        </g>
        <g id="그룹_9390" transform="translate(578.323 135.801)">
            <path id="패스_10071" d="M712.668 352.5h8.615a1.147 1.147 0 0 0-.616-1.273l3.673-9.426h-12.367v10a.7.7 0 0 0 .695.699z" class="cls-4" transform="translate(-711.973 -341.802)"/>
            <path id="패스_10072" d="M752.268 400.1a.754.754 0 0 0-.156-.695h-.139a.637.637 0 0 1 .161.695z" class="cls-5" transform="translate(-745.025 -389.398)"/>
            <path id="패스_10073" d="M758.667 400.1a.754.754 0 0 0-.155-.695h-.139a.637.637 0 0 1 .16.695z" class="cls-5" transform="translate(-750.314 -389.398)"/>
        </g>
        <g id="그룹_9391" transform="translate(567.162 92.5)">
            <path id="패스_10074" d="M653.711 96.87s-2.657-4.886-5.03-4.325.145 6.982.145 6.982z" class="cls-6" transform="translate(-647.662 -92.5)"/>
        </g>
        <g id="그룹_9392" transform="translate(590.075 94.893)">
            <path id="패스_10075" d="M779.66 109.773s3.488-4.331 5.723-3.356-1.391 6.844-1.391 6.844z" class="cls-6" transform="translate(-779.66 -106.274)"/>
        </g>
        <path id="패스_10076" d="M615.191 157.58l-6.754-.609a18.488 18.488 0 0 1-16.746-20.077l.657-7.291a21.875 21.875 0 0 1 23.745-19.832 21.881 21.881 0 0 1 19.819 23.761l-.657 7.292a18.483 18.483 0 0 1-20.064 16.756z" class="cls-3" transform="translate(-34.178 -14.196)"/>
        <g id="그룹_9394" transform="translate(557.438 95.484)">
            <g id="그룹_9393" clip-path="url(#clip-path)">
                <path id="패스_10077" d="M574.985 299.371s4-2.763 12.258.129c9.124 3.195 12.287 5.991 20.571 5.343a48.5 48.5 0 0 0 15.309-4.339L621.5 318.5l-47.852-4.316z" class="cls-4" transform="translate(-576.769 -265.44)"/>
            </g>
        </g>
        <g id="그룹_9395" transform="translate(570.814 103.36)">
            <circle id="타원_1163" cx="9.54" cy="9.54" r="9.54" class="cls-8"/>
            <circle id="타원_1164" cx="5.611" cy="5.611" r="5.611" fill="#2c303a" transform="translate(3.94 3.913)"/>
            <circle id="타원_1165" cx="2.084" cy="2.084" r="2.084" class="cls-8" transform="translate(4.77 4.34)"/>
        </g>
        <g id="이빨_있는" transform="translate(576.637 123.846)">
            <path id="패스_10078" fill="#bc2f24" d="M702.407 273.063c.509-.426 5.682.695 5.809 1.141.242.854-2.542 5.2-3.579 5.2s-2.953-5.735-2.23-6.341z" transform="translate(-702.248 -272.968)"/>
            <g id="그룹_9397">
                <path id="SVGID-3" d="M702.407 273.063c.509-.426 5.682.695 5.809 1.141.242.854-2.542 5.2-3.579 5.2s-2.953-5.735-2.23-6.341z" class="cls-2" transform="translate(-702.248 -272.968)"/>
                <g id="그룹_9396" clip-path="url(#clip-path-2)">
                    <path id="패스_10079" d="M727.782 278c-.859-.278-.3-2-.3-2l1.719.555s-.559 1.727-1.419 1.445z" class="cls-8" transform="translate(-722.95 -275.48)"/>
                </g>
            </g>
        </g>
    </g>
</svg>
