<svg xmlns="http://www.w3.org/2000/svg" width="100" height="113.744" viewBox="0 0 100 113.744">
    <defs>
        <style>
            .cls-1{fill:#ffb612}
        </style>
    </defs>
    <g id="그룹_2332" transform="translate(-405 -536.256)">
        <g id="그룹_848" transform="translate(-445.098 372)">
            <g id="그룹_834" transform="translate(866.669 164.256)">
                <path id="패스_1512" d="M220.918 106.783S213.891 96.243 208.62 98s1.757 15.811 1.757 15.811z" class="cls-1" transform="translate(-206.66 -97.802)"/>
            </g>
            <g id="그룹_835" transform="translate(919.53 164.256)">
                <path id="패스_1513" d="M340.261 106.783s7.027-10.541 12.3-8.784-1.757 15.811-1.757 15.811z" class="cls-1" transform="translate(-340.261 -97.802)"/>
            </g>
            <rect id="사각형_397" width="100" height="110" fill="#ff5e9b" rx="50" transform="translate(850.097 168)"/>
        </g>
        <path id="패스_4667" fill="#fff" d="M10.74-9.72a4.143 4.143 0 0 0 4.44 4.26 4.143 4.143 0 0 0 4.44-4.26v-20.76c0-3.06-1.44-4.62-5.34-4.62H3.24C.66-35.1-.9-33.78-.9-31.26c0 2.58 1.56 3.9 4.14 3.9h6.72c.66 0 .78.12.78.72zm-14.7-20.76c0-3.06-1.44-4.62-5.28-4.62h-11.4c-2.58 0-4.2 1.32-4.2 3.84 0 2.58 1.62 3.9 4.2 3.9h7.08c.6 0 .72.12.72.72v16.92A4.143 4.143 0 0 0-8.4-5.46a4.143 4.143 0 0 0 4.44-4.26z" transform="translate(455 615)"/>
    </g>
</svg>
