<svg xmlns="http://www.w3.org/2000/svg" width="100" height="113.744" viewBox="0 0 100 113.744">
    <defs>
        <style>
            .cls-1{fill:#bbb}
        </style>
    </defs>
    <g id="그룹_2320" transform="translate(-695 -536.256)">
        <g id="그룹_839" transform="translate(-155.098 372)">
            <g id="그룹_834" transform="translate(866.669 164.256)">
                <path id="패스_1512" d="M220.918 106.783S213.891 96.243 208.62 98s1.757 15.811 1.757 15.811z" class="cls-1" transform="translate(-206.66 -97.802)"/>
            </g>
            <g id="그룹_835" transform="translate(919.53 164.256)">
                <path id="패스_1513" d="M340.261 106.783s7.027-10.541 12.3-8.784-1.757 15.811-1.757 15.811z" class="cls-1" transform="translate(-340.261 -97.802)"/>
            </g>
            <rect id="사각형_397" width="100" height="110" class="cls-1" rx="50" transform="translate(850.097 168)"/>
        </g>
        <path id="패스_4657" fill="#fff" d="M-9.36-5.58a38.631 38.631 0 0 0 8.82-.78c2.16-.42 3.6-1.74 3.42-3.96C2.7-12.6.72-13.5-1.44-13.2a42.819 42.819 0 0 1-6.6.6h-3.3c-.3 0-.48-.06-.48-.36v-4.32a.49.49 0 0 1 .48-.54h5.82c3.72 0 4.86-1.2 4.86-4.8v-7.74c0-3.72-1.14-4.74-4.86-4.74h-10.56c-2.4 0-3.96 1.08-3.96 3.48 0 2.28 1.56 3.6 3.96 3.6h6.9a.428.428 0 0 1 .48.42v2.76c0 .3-.18.42-.48.42H-15c-3.72 0-4.98 1.02-4.98 4.74v9.24c0 3.66 1.26 4.86 4.98 4.86zm30.96-24.9c0-3.06-1.44-4.62-5.28-4.62H4.92c-2.58 0-4.2 1.2-4.2 3.72 0 2.58 1.62 3.78 4.2 3.78H12c.6 0 .72.12.72.72v17.1a4.15 4.15 0 0 0 4.44 4.2 4.15 4.15 0 0 0 4.44-4.2z" transform="translate(745 615)"/>
    </g>
</svg>
