<svg xmlns="http://www.w3.org/2000/svg" width="100" height="113.744" viewBox="0 0 100 113.744">
    <defs>
        <style>
            .cls-1{fill:#bbb}
        </style>
    </defs>
    <g id="그룹_2317" transform="translate(-405 -246.256)">
        <g id="그룹_837" transform="translate(-445.098 82)">
            <g id="그룹_834" transform="translate(866.669 164.256)">
                <path id="패스_1512" d="M220.918 106.783S213.891 96.243 208.62 98s1.757 15.811 1.757 15.811z" class="cls-1" transform="translate(-206.66 -97.802)"/>
            </g>
            <g id="그룹_835" transform="translate(919.53 164.256)">
                <path id="패스_1513" d="M340.261 106.783s7.027-10.541 12.3-8.784-1.757 15.811-1.757 15.811z" class="cls-1" transform="translate(-340.261 -97.802)"/>
            </g>
            <rect id="사각형_397" width="100" height="110" class="cls-1" rx="50" transform="translate(850.097 168)"/>
        </g>
        <path id="패스_4653" fill="#fff" d="M18.24-29.88c0-3.48-1.8-5.22-5.28-5.22h-26.94a3.433 3.433 0 0 0-3.66 3.66 3.433 3.433 0 0 0 3.66 3.66H8.04c.84 0 1.08.3 1.08 1.08v16.62a4.178 4.178 0 0 0 4.56 4.5 4.178 4.178 0 0 0 4.56-4.5z" transform="translate(455 325)"/>
    </g>
</svg>
