<svg xmlns="http://www.w3.org/2000/svg" width="68" height="68" viewBox="0 0 68 68">
    <defs>
        <filter id="s4w7a3j6la" width="68" height="68" x="0" y="0" filterUnits="userSpaceOnUse">
            <feOffset dy="3"/>
            <feGaussianBlur result="blur" stdDeviation="3"/>
            <feFlood flood-opacity=".161"/>
            <feComposite in2="blur" operator="in"/>
            <feComposite in="SourceGraphic"/>
        </filter>
    </defs>
    <g>
        <g filter="url(#s4w7a3j6la)" transform="translate(9 6) translate(-9 -6)">
            <circle cx="25" cy="25" r="25" fill="#fff" transform="translate(9 6)"/>
        </g>
        <path fill="#555" d="M18.553 21.659l-5.892-6.25 5.892-6.25a1.674 1.674 0 0 0 0-2.271 1.452 1.452 0 0 0-2.141 0l-6.97 7.393a1.674 1.674 0 0 0 0 2.271l6.97 7.393a1.452 1.452 0 0 0 2.141 0 1.711 1.711 0 0 0 0-2.287z" transform="translate(9 6) translate(11.257 9.583)"/>
    </g>
</svg>
