<svg xmlns="http://www.w3.org/2000/svg" width="32" height="32" viewBox="0 0 32 32">
    <g>
        <path fill="rgba(255,255,255,0)" d="M0 0H32V32H0z" transform="translate(-.052 -.026) translate(.052 .026)"/>
        <g fill="none">
            <path d="M9.4 4.558a3 3 0 0 1 5.209 0l6.83 11.953A3 3 0 0 1 18.83 21H5.17a3 3 0 0 1-2.6-4.488z" transform="translate(-.052 -.026) rotate(90 12.513 16.539)"/>
            <path fill="#0087bd" d="M12 5.047c-.174 0-.608.049-.868.504l-6.83 11.953c-.259.451-.084.848.003.998.087.15.345.498.865.498h13.66c.52 0 .778-.348.865-.498.087-.15.262-.547.004-.998L12.869 5.55c-.26-.455-.695-.504-.869-.504m0-2c1.014 0 2.029.504 2.605 1.511l6.83 11.954c1.143 2-.301 4.488-2.605 4.488H5.17c-2.304 0-3.748-2.488-2.605-4.488l6.83-11.954c.576-1.007 1.59-1.511 2.605-1.511z" transform="translate(-.052 -.026) rotate(90 12.513 16.539)"/>
        </g>
    </g>
</svg>
