<svg xmlns="http://www.w3.org/2000/svg" width="80" height="80" viewBox="0 0 80 80">
    <defs>
        <style>
            .cls-2{fill:#0087bd}.cls-3{fill:#9eb547}
        </style>
    </defs>
    <g id="그룹_1600" transform="translate(.437 -.282)">
        <circle id="타원_69" cx="40" cy="40" r="40" fill="#f1f1f5" transform="translate(-.437 .282)"/>
        <g id="그룹_1573" transform="translate(16.563 21.282)">
            <g id="그룹_1573-2">
                <path id="패스_1468" d="M1209.993 667.342h-38.008a3.435 3.435 0 0 1-3.53-3.323v-30.467a3.435 3.435 0 0 1 3.53-3.323h38.008a3.434 3.434 0 0 1 3.528 3.323v30.467a3.434 3.434 0 0 1-3.528 3.323zm-38.008-34.44a.68.68 0 0 0-.69.65v30.467a.68.68 0 0 0 .69.65h38.008a.68.68 0 0 0 .69-.65v-30.467a.68.68 0 0 0-.69-.65z" class="cls-2" transform="translate(-1168.455 -630.229)"/>
            </g>
            <g id="그룹_1574" transform="translate(14 .398)">
                <path id="패스_1469" d="M1204.325 667.547a1.365 1.365 0 0 1-1.393-1.336v-33.647a1.394 1.394 0 0 1 2.786 0v33.647a1.366 1.366 0 0 1-1.393 1.336z" class="cls-2" transform="translate(-1202.932 -631.229)"/>
            </g>
            <g id="그룹_1575" transform="translate(28.234 .398)">
                <path id="패스_1470" d="M1239.379 667.547a1.365 1.365 0 0 1-1.393-1.336v-33.647a1.394 1.394 0 0 1 2.785 0v33.647a1.365 1.365 0 0 1-1.392 1.336z" class="cls-2" transform="translate(-1237.986 -631.229)"/>
            </g>
            <g id="그룹_1576" transform="translate(4.61 6.359)">
                <path id="패스_1471" d="M1186.406 649.315h-5.171a1.194 1.194 0 0 1 0-2.388h5.171a1.194 1.194 0 0 1 0 2.388z" class="cls-3" transform="translate(-1180.041 -646.928)"/>
            </g>
            <g id="그룹_1577" transform="translate(4.61 10.767)">
                <path id="패스_1472" d="M1186.406 660.888h-5.171a1.194 1.194 0 0 1 0-2.387h5.171a1.194 1.194 0 0 1 0 2.387z" class="cls-3" transform="translate(-1180.041 -658.501)"/>
            </g>
            <g id="그룹_1578" transform="translate(4.61 15.174)">
                <path id="패스_1473" d="M1186.406 672.463h-5.171a1.194 1.194 0 0 1 0-2.387h5.171a1.194 1.194 0 0 1 0 2.387z" class="cls-3" transform="translate(-1180.041 -670.075)"/>
            </g>
            <g id="그룹_1579" transform="translate(18.589 6.359)">
                <path id="패스_1474" d="M1220.478 649.315h-5.171a1.194 1.194 0 1 1 0-2.388h5.171a1.194 1.194 0 0 1 0 2.388z" class="cls-3" transform="translate(-1214.113 -646.928)"/>
            </g>
            <g id="그룹_1580" transform="translate(18.589 10.817)">
                <path id="패스_1475" d="M1220.478 661.02h-5.171a1.194 1.194 0 1 1 0-2.388h5.171a1.194 1.194 0 0 1 0 2.388z" class="cls-3" transform="translate(-1214.113 -658.632)"/>
            </g>
            <g id="그룹_1581" transform="translate(18.589 15.174)">
                <path id="패스_1476" d="M1220.478 672.463h-5.171a1.194 1.194 0 1 1 0-2.387h5.171a1.194 1.194 0 0 1 0 2.387z" class="cls-3" transform="translate(-1214.113 -670.075)"/>
            </g>
            <g id="그룹_1582" transform="translate(32.987 6.359)">
                <path id="패스_1477" d="M1255.586 649.315h-5.171a1.194 1.194 0 1 1 0-2.388h5.171a1.194 1.194 0 1 1 0 2.388z" class="cls-3" transform="translate(-1249.221 -646.928)"/>
            </g>
            <g id="그룹_1583" transform="translate(32.987 10.817)">
                <path id="패스_1478" d="M1255.586 661.02h-5.171a1.194 1.194 0 1 1 0-2.388h5.171a1.194 1.194 0 1 1 0 2.388z" class="cls-3" transform="translate(-1249.221 -658.632)"/>
            </g>
            <g id="그룹_1584" transform="translate(32.987 15.174)">
                <path id="패스_1479" d="M1255.586 672.463h-5.171a1.194 1.194 0 1 1 0-2.387h5.171a1.194 1.194 0 1 1 0 2.387z" class="cls-3" transform="translate(-1249.221 -670.075)"/>
            </g>
            <g id="그룹_1585" transform="translate(4.411 28.44)">
                <path id="패스_1480" d="M1186.1 707.731h-5.171a1.393 1.393 0 0 1 0-2.785h5.171a1.393 1.393 0 1 1 0 2.785z" class="cls-2" transform="translate(-1179.541 -704.946)"/>
            </g>
            <g id="그룹_1586" transform="translate(18.39 28.44)">
                <path id="패스_1481" d="M1220.177 707.731h-5.171a1.393 1.393 0 1 1 0-2.785h5.171a1.393 1.393 0 0 1 0 2.785z" class="cls-2" transform="translate(-1213.613 -704.946)"/>
            </g>
            <g id="그룹_1587" transform="translate(32.788 28.44)">
                <path id="패스_1482" d="M1255.285 707.731h-5.171a1.393 1.393 0 0 1 0-2.785h5.171a1.393 1.393 0 0 1 0 2.785z" class="cls-2" transform="translate(-1248.721 -704.946)"/>
            </g>
        </g>
    </g>
</svg>
