<svg xmlns="http://www.w3.org/2000/svg" width="80" height="80" viewBox="0 0 80 80">
    <defs>
        <style>
            .cls-3{fill:#9eb547}
        </style>
    </defs>
    <g id="그룹_1598" transform="translate(-.265 -.282)">
        <circle id="타원_72" cx="40" cy="40" r="40" fill="#f1f1f5" transform="translate(.265 .282)"/>
        <g id="그룹_1595" transform="translate(19.264 19.282)">
            <g id="그룹_1589" transform="translate(0 2.144)">
                <path id="패스_1485" fill="#0087bd" d="M988.833 315.253a19.882 19.882 0 0 1 0-39.764 1.308 1.308 0 0 1 1.307 1.307v17.268h17.269a1.306 1.306 0 0 1 1.306 1.307 19.9 19.9 0 0 1-19.882 19.882zm-1.306-37.1a17.269 17.269 0 1 0 18.526 18.526h-17.22a1.306 1.306 0 0 1-1.306-1.307z" transform="translate(-968.951 -275.489)"/>
            </g>
            <g id="그룹_1594" transform="translate(23.848)">
                <g id="그룹_1590">
                    <path id="패스_1486" d="M1047.447 284.775h-16.07a1.244 1.244 0 0 1-1.244-1.244v-16.069a1.244 1.244 0 0 1 1.244-1.244 17.333 17.333 0 0 1 17.313 17.313 1.243 1.243 0 0 1-1.243 1.244zm-14.827-2.487h13.531a14.85 14.85 0 0 0-13.531-13.531z" class="cls-3" transform="translate(-1030.133 -266.218)"/>
                </g>
                <g id="그룹_1591" transform="translate(.989 2.447)">
                    <path id="패스_1487" d="M1033.843 280.005a1.066 1.066 0 0 1-.754-1.82l5.116-5.115a1.066 1.066 0 0 1 1.508 1.508l-5.115 5.116a1.061 1.061 0 0 1-.755.311z" class="cls-3" transform="translate(-1032.776 -272.757)"/>
                </g>
                <g id="그룹_1592" transform="translate(.989 4.994)">
                    <path id="패스_1488" d="M1033.843 291.582a1.067 1.067 0 0 1-.725-1.849l10.63-9.855a1.066 1.066 0 0 1 1.45 1.564l-10.63 9.856a1.062 1.062 0 0 1-.725.284z" class="cls-3" transform="translate(-1032.777 -279.593)"/>
                </g>
                <g id="그룹_1593" transform="translate(7.72 9.823)">
                    <path id="패스_1489" d="M1051.862 300.855a1.066 1.066 0 0 1-.72-1.853l6.793-6.221a1.067 1.067 0 0 1 1.441 1.573l-6.794 6.221a1.066 1.066 0 0 1-.72.28z" class="cls-3" transform="translate(-1050.795 -292.501)"/>
                </g>
            </g>
        </g>
    </g>
</svg>
