<svg xmlns="http://www.w3.org/2000/svg" width="34" height="34" viewBox="0 0 34 34">
    <g transform="translate(-916 -691)">
        <circle cx="17" cy="17" r="17" fill="#dcdcdc" transform="translate(916 691)"/>
        <path fill="#fff" d="M11.146 1.4a1 1 0 0 1 1.708 0l3.131 5.135a1 1 0 0 0 .618.451L22.428 8.4a1 1 0 0 1 .527 1.617l-3.895 4.605a1 1 0 0 0-.233.723l.464 6.025a1 1 0 0 1-1.381 1l-5.526-2.3a1 1 0 0 0-.768 0l-5.526 2.3a1 1 0 0 1-1.381-1l.464-6.025a1 1 0 0 0-.233-.723l-3.895-4.601A1 1 0 0 1 1.572 8.4L7.4 6.987a1 1 0 0 0 .618-.451z" transform="translate(921 696)"/>
    </g>
</svg>
