<svg xmlns="http://www.w3.org/2000/svg" width="30" height="30" viewBox="0 0 30 30">
    <g>
        <path fill="none" d="M0 0H30V30H0z" transform="translate(-1473 -356) translate(1473 356)"/>
        <path fill="#999" d="M26.072 13.5a1.248 1.248 0 0 0-.209-.314l-.006-.01-6.893-6.869a1.227 1.227 0 0 0-1.735 1.735L22 12.818H3.333a1.231 1.231 0 0 0 0 2.462h21.752a1.176 1.176 0 0 0 1.131-1.217v-.01a1.231 1.231 0 0 0-.144-.553z" transform="translate(-1473 -356) translate(1473.898 360.054)"/>
    </g>
</svg>
