<svg xmlns="http://www.w3.org/2000/svg" width="24" height="24" viewBox="0 0 24 24">
    <g>
        <path fill="rgba(255,255,255,0)" d="M0 0H24V24H0z"/>
        <g fill="none">
            <path d="M8.137 1.478a1 1 0 0 1 1.727 0l2.075 3.552a1 1 0 0 0 .618.465l3.928 1a1 1 0 0 1 .531 1.6l-2.669 3.294a1 1 0 0 0-.22.7l.315 4.264a1 1 0 0 1-1.4.991L9.4 15.758a1 1 0 0 0-.8 0l-3.645 1.583a1 1 0 0 1-1.4-.991l.315-4.264a1 1 0 0 0-.22-.7L.984 8.09a1 1 0 0 1 .531-1.6l3.928-1a1 1 0 0 0 .618-.465z" transform="translate(3 3)"/>
            <path fill="#fb0" d="M9 3.965L7.788 6.039c-.403.69-1.078 1.198-1.852 1.394l-2.414.612 1.685 2.08c.483.595.718 1.344.662 2.109l-.193 2.614 2.13-.925c.379-.164.78-.248 1.194-.248.413 0 .815.084 1.195.248l2.13.925-.194-2.614c-.056-.765.179-1.514.662-2.11l1.685-2.079-2.414-.612c-.774-.196-1.45-.705-1.852-1.394L9 3.965M9 .982c.335 0 .67.165.863.496L11.94 5.03c.135.231.357.399.617.464l3.929.997c.707.18.99 1.032.53 1.599l-2.669 3.294c-.16.197-.239.449-.22.703l.315 4.263c.044.606-.444 1.075-.997 1.075-.131 0-.266-.026-.399-.084l-3.647-1.583c-.127-.055-.262-.083-.398-.083s-.271.028-.398.083l-3.647 1.583c-.133.058-.268.084-.4.084-.552 0-1.04-.469-.996-1.075l.315-4.263c.019-.254-.06-.506-.22-.703L.984 8.09c-.46-.567-.176-1.42.531-1.599l3.929-.997c.26-.065.482-.233.617-.464l2.076-3.552c.193-.33.528-.496.863-.496z" transform="translate(3 3)"/>
        </g>
    </g>
</svg>
