<svg xmlns="http://www.w3.org/2000/svg" width="14" height="14" viewBox="0 0 14 14">
    <g>
        <path fill="none" d="M0 0H14V14H0z" transform="translate(0 .4) translate(0 -.4)"/>
        <path fill="#999" d="M12.8 5.25H8L6.8 4H3.2a1.224 1.224 0 0 0-1.194 1.25L2 12.75A1.229 1.229 0 0 0 3.2 14h10.062a.757.757 0 0 0 .738-.769V6.5a1.229 1.229 0 0 0-1.2-1.25zm.305 7.76H2.963V4.917H6.3l1.2 1.25h5.6zM11.6 8.8H4.4V7.75h7.2zm-2.4 2.5H4.4v-1.05h4.8z" transform="translate(0 .4) translate(-1 -2.4)"/>
    </g>
</svg>
