<svg xmlns="http://www.w3.org/2000/svg" width="80" height="80" viewBox="0 0 80 80">
    <g transform="translate(.3 -.282)">
        <circle cx="40" cy="40" r="40" fill="#f1f1f5" transform="translate(-.3 .282)"/>
        <g>
            <path fill="#0087bd" d="M29.626 0H6.186A4.235 4.235 0 0 0 2 4.28v32.53a4.235 4.235 0 0 0 4.186 4.28h23.44a4.235 4.235 0 0 0 4.186-4.28V4.28A4.235 4.235 0 0 0 29.626 0zm-11.72 39.378a2.569 2.569 0 1 1 2.511-2.568 2.537 2.537 0 0 1-2.511 2.568zm12.557-6.848H5.349V5.136h25.114z" transform="translate(23.7 19.282) translate(-2)"/>
            <g fill="none">
                <path d="M6.437 1.4a1 1 0 0 1 1.707 0l5.507 9.012a1 1 0 0 1-.853 1.521H1.783a1 1 0 0 1-.853-1.525z" transform="translate(23.7 19.282) rotate(90 5.768 18.016)"/>
                <path fill="#9eb547" d="M7.29 3.835L3.566 9.93h7.448L7.29 3.835m0-2.917c.33 0 .658.16.853.478l5.507 9.012c.408.666-.072 1.521-.853 1.521H1.783c-.78 0-1.26-.855-.853-1.521l5.507-9.012c.195-.319.524-.478.853-.478z" transform="translate(23.7 19.282) rotate(90 5.768 18.016)"/>
            </g>
        </g>
    </g>
</svg>
