<svg xmlns="http://www.w3.org/2000/svg" width="80" height="80" viewBox="0 0 80 80">
    <g transform="translate(-.147 -.282)">
        <circle cx="40" cy="40" r="40" fill="#f1f1f5" transform="translate(.147 .282)"/>
        <g>
            <path fill="#9eb547" d="M2170.305 869.641v-3.268a3.112 3.112 0 0 0 0-6.221v-3.268c3.152 0 5.717 2.862 5.717 6.379s-2.565 6.378-5.717 6.378z" transform="translate(16.148 28.282) translate(-2164.864 -851.332)"/>
            <path fill="#0087bd" d="M2193.154 868.886h-33.592c-1.927 0-3.5-1.977-3.5-4.408s1.569-4.407 3.5-4.407h33.592a3.115 3.115 0 1 0 0-6.229h-33.592c-1.927 0-3.5-1.977-3.5-4.407s1.569-4.408 3.5-4.408h33.592c5.861 0 10.63 5.352 10.63 11.93s-4.769 11.929-10.63 11.929zm-33.592-5.542a1.176 1.176 0 0 0 0 2.27h33.592c4.413 0 8-3.883 8-8.656s-3.59-8.658-8-8.658h-33.592a1.176 1.176 0 0 0 0 2.27h33.592c3.171 0 5.751 2.866 5.751 6.388s-2.58 6.386-5.751 6.386z" transform="translate(16.148 28.282) translate(-2156.066 -845.027)"/>
        </g>
    </g>
</svg>
