<?xml version="1.0" encoding="utf-8"?>
<!-- Generator: Adobe Illustrator 24.2.0, SVG Export Plug-In . SVG Version: 6.00 Build 0)  -->
<svg version="1.1" id="Layer_1" xmlns="http://www.w3.org/2000/svg" xmlns:xlink="http://www.w3.org/1999/xlink" x="0px" y="0px"
	 viewBox="0 0 50 50" style="enable-background:new 0 0 50 50;" xml:space="preserve">
<style type="text/css">
	.st0{fill:none;stroke:#F05574;stroke-width:3;}
</style>
<g id="아이콘">
	<path id="Rounded_Rectangle_3" class="st0" d="M40.5,19.8v24c0,2.1-1.6,3.8-3.7,3.9H12.3c-2.1,0-3.8-1.8-3.7-3.9V19.1"/>
	<path id="Rounded_Rectangle_3_copy" class="st0" d="M23.1,25.9h3.2c3.4,0.1,6,2.9,5.9,6.3v14.7h-15V32.3
		C17.1,28.9,19.7,26.1,23.1,25.9z"/>
	<path id="Ellipse_1_copy_3" class="st0" d="M42.7,15.2c-0.1,3.4-2.9,5-6.4,5c-3.9,0-4.6-1.6-5-5c0,0-0.5,5-6.4,5
		c-3.1,0-5.9-1.9-5.9-4.9c0,0,0,5-6.2,5c-3.4,0-6.2-1.7-6.2-5l0-10.9h36L42.7,15.2z"/>
</g>
</svg>
