<svg id="상세보기_돋보기" xmlns="http://www.w3.org/2000/svg" width="106" height="106" viewBox="0 0 106 106">
  <defs>
    <style>
      .cls-1 {
        opacity: 0.6;
      }

      .cls-2 {
        fill: #fff;
        fill-rule: evenodd;
      }
    </style>
  </defs>
  <circle class="cls-1" cx="53" cy="53" r="52"/>
  <path class="cls-2" d="M36.486,25.893a17.272,17.272,0,1,1-5.709,23.749A17.271,17.271,0,0,1,36.486,25.893Zm2.685,4.178a12.414,12.414,0,1,1-4.1,17.069A12.414,12.414,0,0,1,39.171,30.072Z"/>
  <path id="Rounded_Rectangle_1472" data-name="Rounded Rectangle 1472" class="cls-2" d="M60.389,64.925A4.75,4.75,0,0,1,66.92,66.5l8.569,13.993a4.75,4.75,0,1,1-8.1,4.961L58.819,71.456A4.749,4.749,0,0,1,60.389,64.925Z"/>
  <path class="cls-2" d="M52.6,55.517l2.946-1.8,8.569,13.993-2.946,1.8Z"/>
</svg>
