<?xml version="1.0" encoding="utf-8"?>
<!-- Generator: Adobe Illustrator 24.2.0, SVG Export Plug-In . SVG Version: 6.00 Build 0)  -->
<svg version="1.1" id="BT_더보기" xmlns="http://www.w3.org/2000/svg" xmlns:xlink="http://www.w3.org/1999/xlink" x="0px"
	 y="0px" viewBox="0 0 340 110" style="enable-background:new 0 0 340 110;" xml:space="preserve">
<style type="text/css">
	.st0{fill-rule:evenodd;clip-rule:evenodd;fill:#FFFFFF;}
	.st1{fill:none;stroke:#C7ECFF;stroke-width:3;stroke-linejoin:round;}
	.st2{fill-rule:evenodd;clip-rule:evenodd;fill:#A7EBFF;}
	.st3{fill:#4DC9EF;}
	.st4{font-family:'NotoSansCJKkr-Bold-KSCpc-EUC-H';}
	.st5{font-size:46.8px;}
</style>
<g>
	<path id="모서리가_둥근_직사각형_612" class="st0" d="M52,1.8h235.5c26.5,0,48,21.5,48,48s-21.5,48-48,48H52
		c-26.5,0-48-21.5-48-48S25.5,1.8,52,1.8z"/>
</g>
<g>
	<path id="모서리가_둥근_직사각형_612_1_" class="st1" d="M52,1.8h235.5c26.5,0,48,21.5,48,48s-21.5,48-48,48H52
		c-26.5,0-48-21.5-48-48S25.5,1.8,52,1.8z"/>
</g>
<path id="타원_1043" class="st2" d="M284,16.7c18.3,0,33.2,14.8,33.2,33.1c0,18.3-14.8,33.2-33.1,33.2
	c-18.3,0-33.2-14.8-33.2-33.1c0,0,0,0,0,0C250.9,31.5,265.7,16.7,284,16.7z"/>
<g id="그룹_3">
	<path id="모서리가_둥근_직사각형_4" class="st0" d="M282.1,32.3h1.8c1.7,0,3,1.3,3,3v31c0,1.7-1.3,3-3,3h-1.8
		c-1.7,0-3-1.3-3-3v-31C279.1,33.6,280.5,32.3,282.1,32.3z"/>
	<path id="모서리가_둥근_직사각형_4_복사" class="st0" d="M268.5,46.9h31c1.7,0,3,1.3,3,3v1.8c0,1.7-1.3,3-3,3h-31
		c-1.7,0-3-1.3-3-3v-1.8C265.5,48.2,266.9,46.9,268.5,46.9z"/>
</g>
<text transform="matrix(1 0 0 1 73.8159 67.3557)" class="st3 st4 st5">더보기</text>
</svg>
