<svg xmlns="http://www.w3.org/2000/svg" width="92" height="92" viewBox="0 0 92 92">
  <defs>
    <style>
      .cls-1 {
        fill: #3eba2e;
      }

      .cls-2 {
        fill: #fff;
        fill-rule: evenodd;
      }
    </style>
  </defs>
  <circle id="타원_545" data-name="타원 545" class="cls-1" cx="45.75" cy="46.375" r="44.875"/>
  <path id="모양_12" data-name="모양 12" class="cls-2" d="M41.468,25.445l-4.1-6.422s-3.364-4.079-6.851-1.567S27.1,20.29,27.1,20.29s-5.042,5.335-2.445,16.2a59.736,59.736,0,0,0,8.089,18.535S43.5,72.549,54.46,75.673C65,78.677,68.227,72.6,68.227,72.6a8.364,8.364,0,0,0-1-6.647c-3.587-5.264-6.345-8.842-6.345-8.842s-1.9-2.12-5.117.89c-1.392,1.3-5.28,1.617-8.36-.941s-6.392-5.476-8.82-14.348c-1.627-5.944,2.754-7.24,3.524-8.528S44.643,32.734,41.468,25.445Z"/>
</svg>
