<?xml version="1.0" encoding="utf-8"?>
<!-- Generator: Adobe Illustrator 24.2.0, SVG Export Plug-In . SVG Version: 6.00 Build 0)  -->
<svg version="1.1" id="Layer_1" xmlns="http://www.w3.org/2000/svg" xmlns:xlink="http://www.w3.org/1999/xlink" x="0px" y="0px"
	 viewBox="0 0 50 50" style="enable-background:new 0 0 50 50;" xml:space="preserve">
<style type="text/css">
	.st0{fill:none;stroke:#F05574;stroke-width:3;stroke-linecap:round;stroke-linejoin:round;}
	.st1{fill-rule:evenodd;clip-rule:evenodd;fill:#F05574;}
	.st2{fill-rule:evenodd;clip-rule:evenodd;fill:#F05574;stroke:#F05574;stroke-miterlimit:10;}
</style>
<g id="아이콘_copy">
	<path id="Rounded_Rectangle_862" class="st0" d="M42.3,28.1v-5.6c-0.1-9.4-7.8-17-17.2-16.9C15.7,5.6,8.2,13.1,8.1,22.5v5.6"/>
	<path class="st0" d="M33.6,23c-0.1-0.1,0.1,14.3,0,14.4c4.1,0.1,7.6-3.1,7.7-7.2C41.2,26.1,37.7,22.9,33.6,23z"/>
	<path id="Ellipse_883_복사" class="st0" d="M15.9,23c0.1-0.1-0.1,14.3,0,14.4c-4.1,0.1-7.6-3.1-7.7-7.2
		C8.3,26.1,11.8,22.9,15.9,23z"/>
	<path class="st1" d="M16,21.5h2.9l0,17.4h-2.9L16,21.5z"/>
	<path id="Rectangle_698_copy" class="st1" d="M30.6,21.5h2.9l0,17.4h-2.9L30.6,21.5z"/>
	<path class="st0" d="M42.2,29c0,0,1.2,14.9-10.5,15"/>
	<path id="Rounded_Rectangle_863" class="st2" d="M28,41.9h3.6c1.3,0,2.3,1,2.3,2.3c0,1.3-1,2.3-2.3,2.3H28c-1.3,0-2.3-1-2.3-2.3
		C25.7,42.9,26.7,41.9,28,41.9z"/>
</g>
</svg>
