<svg xmlns="http://www.w3.org/2000/svg" xmlns:xlink="http://www.w3.org/1999/xlink" width="62" height="62" viewBox="0 0 62 62">
  <defs>
    <style>
      .cls-1, .cls-2 {
        fill: #1ec2f3;
        fill-rule: evenodd;
      }

      .cls-1 {
        filter: url(#filter);
      }

      .cls-2 {
        filter: url(#filter-2);
      }
    </style>
    <filter id="filter" x="19.531" y="11.031" width="22.969" height="22.969" filterUnits="userSpaceOnUse">
      <feFlood result="flood" flood-color="#0d6db2"/>
      <feComposite result="composite" operator="in" in2="SourceGraphic"/>
      <feBlend result="blend" in2="SourceGraphic"/>
    </filter>
    <filter id="filter-2" x="19.531" y="28.031" width="22.969" height="22.969" filterUnits="userSpaceOnUse">
      <feFlood result="flood" flood-color="#0d6db2"/>
      <feComposite result="composite" operator="in" in2="SourceGraphic"/>
      <feBlend result="blend" in2="SourceGraphic"/>
    </filter>
  </defs>
  <path id="모서리가_둥근_직사각형_4_복사_2_copy_2" data-name="모서리가 둥근 직사각형 4 복사 2 copy 2" class="cls-1" d="M41.607,11.9a3,3,0,0,1,0,4.243L24.636,33.11a3,3,0,0,1-4.243-4.242L37.364,11.9A3,3,0,0,1,41.607,11.9Z"/>
  <path id="모서리가_둥근_직사각형_4_복사_2_copy_3" data-name="모서리가 둥근 직사각형 4 복사 2 copy 3" class="cls-2" d="M41.607,50.1a3,3,0,0,0,0-4.243L24.636,28.89a3,3,0,0,0-4.243,4.242L37.364,50.1A3,3,0,0,0,41.607,50.1Z"/>
</svg>
