<?xml version="1.0" encoding="utf-8"?>
<!-- Generator: Adobe Illustrator 24.2.0, SVG Export Plug-In . SVG Version: 6.00 Build 0)  -->
<svg version="1.1" xmlns="http://www.w3.org/2000/svg" xmlns:xlink="http://www.w3.org/1999/xlink" x="0px" y="0px"
	 viewBox="0 0 20 12" style="enable-background:new 0 0 20 12;" xml:space="preserve">
<style type="text/css">
	.st0{fill:#868686;}
</style>
<g id="Layer_1">
	<path class="st0" d="M18.5,8.6l-4.6-4.5l0,0l-2.8-2.8c0,0-0.5-0.6-1.2-0.6c-0.7,0-1.2,0.5-1.2,0.5c0,0,0,0,0,0L1.2,8.6c0,0,0,0,0,0
		c-0.5,0.5-0.5,1.3,0,1.8c0.5,0.5,1.3,0.5,1.9,0l6.8-6.7l0.1,0.1l6.7,6.6c0.5,0.5,1.3,0.5,1.9,0c0,0,0,0,0,0C19,9.9,19,9.1,18.5,8.6
		z"/>
</g>
<g id="Layer_2">
</g>
</svg>
