<?xml version="1.0" encoding="utf-8"?>
<!-- Generator: Adobe Illustrator 24.2.0, SVG Export Plug-In . SVG Version: 6.00 Build 0)  -->
<svg version="1.1" id="bt_접기" xmlns="http://www.w3.org/2000/svg" xmlns:xlink="http://www.w3.org/1999/xlink" x="0px" y="0px"
	 viewBox="0 0 54 54" style="enable-background:new 0 0 54 54;" xml:space="preserve">
<style type="text/css">
	.st0{fill:#D8F2FA;}
	.st1{fill:#FFFFFF;}
</style>
<ellipse class="st0" cx="26.6" cy="26.8" rx="25.9" ry="25.7"/>
<path class="st1" d="M41,30.6C41,30.6,41,30.6,41,30.6l-11.3-9.4l0,0l0,0L28,19.8c0,0,0,0,0,0l-1.1-0.9c0,0-0.3-0.3-0.6-0.3
	c-0.3,0-0.6,0.3-0.6,0.3l-1.1,0.9c0,0,0,0,0,0L24,20.2l-0.8,0.7l0,0l-11.7,9.7c0,0,0,0,0,0c-0.6,0.5-0.7,1.5-0.2,2.1
	c0.5,0.6,1.5,0.7,2.1,0.2l12.8-10.6l1.7,1.4l0,0l11.1,9.2c0.6,0.5,1.6,0.4,2.1-0.2C41.7,32,41.6,31.1,41,30.6z"/>
</svg>
