<svg xmlns="http://www.w3.org/2000/svg" id="그룹_750" width="70" height="70" viewBox="0 0 70 70">
    <defs>
        <style>
            .cls-1{fill:#ffdf00}
        </style>
    </defs>
    <rect id="이미지_8" width="70" height="70" class="cls-1" rx="35"/>
    <g id="그룹_749" transform="translate(-.726 -.67)">
        <g id="그룹_748" transform="translate(18.06 11.665)">
            <path id="패스_434" fill="#2b1718" d="M55.3 99.585c-9.941 0-18 6.364-18 14.218 0 5.049 3.339 9.474 8.354 12.006l-1.7 6.33a.532.532 0 0 0 .129.542.5.5 0 0 0 .68.029l7.295-4.925a22.785 22.785 0 0 0 3.241.236c9.939 0 18-6.364 18-14.218s-8.062-14.218-18-14.218" transform="translate(-37.297 -99.585)"/>
            <path id="패스_435" d="M41.987 106.65h-1.923a1.268 1.268 0 0 1-.683-.183.753.753 0 0 1-.353-.515c-.011-.058-.021-.126-.028-.2a.776.776 0 0 1 .3-.653 1.189 1.189 0 0 1 .757-.238h5.879a1.247 1.247 0 0 1 .681.181.76.76 0 0 1 .357.517.917.917 0 0 1 .013.192.794.794 0 0 1-.294.662 1.171 1.171 0 0 1-.751.234h-1.921v6.624a1.071 1.071 0 0 1-.277.768.974.974 0 0 1-.745.289 1.031 1.031 0 0 1-.651-.209.948.948 0 0 1-.343-.575 1.163 1.163 0 0 1-.017-.272z" class="cls-1" transform="translate(-35.787 -94.641)"/>
            <path id="패스_436" d="M44.824 105.422a.908.908 0 0 1 .37-.5 1.184 1.184 0 0 1 .623-.149h.483a1.264 1.264 0 0 1 .664.162 1.05 1.05 0 0 1 .421.613l2.457 7.119a4.245 4.245 0 0 1 .166.568 2.392 2.392 0 0 1 .036.245.9.9 0 0 1-.287.657.926.926 0 0 1-.677.27.869.869 0 0 1-.913-.579l-.525-1.551h-3.271l-.528 1.551a.851.851 0 0 1-.911.579.949.949 0 0 1-.6-.185.848.848 0 0 1-.311-.526 1.074 1.074 0 0 1-.019-.215 1.184 1.184 0 0 1 .055-.375c.038-.145.087-.294.14-.438zm1.23 1.651h-.026l-1.2 3.736h2.381z" class="cls-1" transform="translate(-32.912 -94.722)"/>
            <path id="패스_437" d="M46.435 105.832a1.067 1.067 0 0 1 .277-.766.979.979 0 0 1 .745-.291 1.006 1.006 0 0 1 .653.213.961.961 0 0 1 .34.575.976.976 0 0 1 .017.268v6.63h3.4a1.235 1.235 0 0 1 .689.179.784.784 0 0 1 .345.519 1 1 0 0 1 .028.192.78.78 0 0 1-.3.658 1.205 1.205 0 0 1-.757.232h-4.247a1.331 1.331 0 0 1-.764-.194.929.929 0 0 1-.387-.628 2.866 2.866 0 0 1-.043-.415z" class="cls-1" transform="translate(-28.801 -94.724)"/>
            <path id="패스_438" d="M49.982 105.832a1.076 1.076 0 0 1 .277-.766.982.982 0 0 1 .745-.291 1 1 0 0 1 .651.213.946.946 0 0 1 .341.575.977.977 0 0 1 .019.268l.008 3.081 3.194-3.673a2.356 2.356 0 0 1 .387-.351.771.771 0 0 1 .425-.113 1.054 1.054 0 0 1 .609.189.762.762 0 0 1 .338.5l.015.079a.309.309 0 0 0 .006.087.814.814 0 0 1-.094.387 1.835 1.835 0 0 1-.243.34l-2.089 2.283 2.472 3.915.075.119a2.122 2.122 0 0 1 .292.592l.015.062a.357.357 0 0 0 0 .066.927.927 0 0 1-.306.781 1.173 1.173 0 0 1-.74.238 1.032 1.032 0 0 1-.508-.109 1.361 1.361 0 0 1-.4-.443l-2.345-3.773-1.115 1.164.011 2.106a1.1 1.1 0 0 1-.279.768.986.986 0 0 1-.747.289 1.04 1.04 0 0 1-.653-.209.964.964 0 0 1-.341-.575 1.407 1.407 0 0 1-.019-.272z" class="cls-1" transform="translate(-25.385 -94.722)"/>
        </g>
    </g>
    <text id="상담하기" fill="#2b1718" font-family="NotoSansCJKkr-Medium, Noto Sans CJK KR" font-size="12px" font-weight="500" transform="translate(35.394 59.441)">
        <tspan x="-22.08" y="0">상담하기</tspan>
    </text>
</svg>
