<svg xmlns="http://www.w3.org/2000/svg" width="107" height="32.536" viewBox="0 0 107 32.536">
    <defs>
        <style>
            .cls-1{fill:#fff}
        </style>
    </defs>
    <g id="그룹_985" transform="translate(-360 -227)">
        <path id="패스_471" d="M54.5 76.464a17.543 17.543 0 0 1-2.849.016 21.229 21.229 0 0 1 .706-3.152l2.641.36zm6.74-19.993s-.309-.27-.33.725c-.015.81-3.037 2.708-6.061 2.515 0 0-.715-5.1-1.352-5.54-.841-.582-1.487 3.282-1.614 3.865a26.582 26.582 0 0 0-.643 7.215s-6.7 3.6-11.206 2.122c0 0-.887-.359-.389-1.866.639-1.918 1.932-1.224 1.932-1.224s2.706 1.288 4.318.448 3.3-3.183 1.917-7.472a2.268 2.268 0 0 0-1.98-1.284c-1.852-.277-4.38-.9-4.38-.9a8.876 8.876 0 0 0 .064 2.9c.322.773 1.61.965 4.252 1.415 0 0 .58.71-.325 1.421s-3.348.063-4.25.191-3.287 1.093-3.929 5.732c0 0-.21 3.752 1.805 4.959a9.4 9.4 0 0 0 12.171-4.442s.258-.322.258.128.45 2.513.45 2.513-.742-.328-.963-.422c-.266-.117-.529.143-1.033.878a22.212 22.212 0 0 0-1.223 2.248c-.349.729-2.513 6.054-2.382 8.567 0 0-.066.891 1.028.9 1.289.012 6.636-.256 8.631-1.091 0 0 3.028-.389 2.964-8.44 0 0-.258-.9-3.414-1.417a22.722 22.722 0 0 0-.258-6.121s4.379 1.1 7.534-6.116c0 0 .6-.654-1.592-2.4m-29 5.556c-.517.325-2.115 1.17-2.965 1.548-1.511.666-1.8-.016-1.8-.016a25.577 25.577 0 0 0-3.026-5.409c-1.452-1.7-2.7-1.346-2.7-1.346a1.321 1.321 0 0 0-.829.825 1.471 1.471 0 0 0 .31 1.452 12.977 12.977 0 0 1 2.953 7.327c.323 4.249-2.319 9.727-2.384 10.432a1.855 1.855 0 0 0 .388 1.422 2.075 2.075 0 0 0 .772.575 2.917 2.917 0 0 0 .822.2 2.074 2.074 0 0 0 .853-.266c1.673-.9 3.552-5.473 3.8-7.278.174-1.284.644-1.159.644-1.159 2.318.194 3.158-.085 4.251-1.159 1.3-1.285 1.158-6.891.71-7.471s-1.291 0-1.8.32m-17.069 6.7c-1.222.389-3.409.085-3.864-1.222-.8-2.293 2.511-3.283 2.511-3.283 2.449-.387 3.221.9 3.286 2a2.329 2.329 0 0 1-1.932 2.508m-3.286-9.4a6.591 6.591 0 0 0-4.508 4.046c-.633 1.9-.711 2.575-.58 5.8 0 0 .45 3.348 2 4.7s3.5 1.348 6.7.128c3.542-1.351 4.574-2.77 4.7-5.217s-.644-10.435-8.31-9.469" class="cls-1" transform="translate(353.257 175.07)"/>
        <g id="그룹_924" transform="translate(442.118 229.521)">
            <path id="패스_472" d="M107.259 70.038a.258.258 0 0 0 .216.029c2.9-.948 6.874-6.1 7.732-7.472l5.432 7.677a4.442 4.442 0 0 0 3.734 2.385 2.911 2.911 0 0 0 .925-.137 2.082 2.082 0 0 0 1.637-1.528c.276-1.451-1.354-3.327-2.138-3.96a23.825 23.825 0 0 1-2.916-3.743c-.313-.451-.613-.884-.884-1.262-.981-1.362-3.294-2.334-4.181-2.667a8.284 8.284 0 0 0 1.6-3.431c-.023-.341-.607-.756-1.728-1.227a4.659 4.659 0 0 0-1.218-.184.418.418 0 0 0-.391.208.929.929 0 0 0 .128.806 13.585 13.585 0 0 1-1.263 2.7 2.664 2.664 0 0 0-1.088-.175.57.57 0 0 0-.581.3c-.191.42.271 1.09.573 1.46a51.783 51.783 0 0 1-5.3 8.757 1.463 1.463 0 0 0-.512 1.075.537.537 0 0 0 .223.389z" class="cls-1" transform="translate(-105.026 -54.517)"/>
            <path id="패스_473" d="M129.5 76.426c-.082-.24-.31-.362-.674-.362h-.053a8.65 8.65 0 0 0-1.384.327 39.02 39.02 0 0 1-10.466 1.653 20.849 20.849 0 0 1-8.488-1.651.181.181 0 0 0-.051-.016 5.162 5.162 0 0 0-.91-.08 2.7 2.7 0 0 0-1.683.458c-.762.592-1.807 1.4-.59 3.479.565.961 2.395 1.532 4.11 1.963a20.021 20.021 0 0 0 4.5.445 26.235 26.235 0 0 0 14.2-4.053l.028-.021c.63-.546 1.661-1.551 1.461-2.142z" class="cls-1" transform="translate(-104.639 -57.99)"/>
        </g>
        <g id="그룹_925" transform="translate(417.766 227)">
            <path id="패스_474" d="M100.234 69.212a.252.252 0 0 0-.22-.129.261.261 0 0 0-.078.013 34.9 34.9 0 0 1-10.89 1.533 80.712 80.712 0 0 1-8.639-.55c-.183-.02-.481-.07-.825-.13a15.873 15.873 0 0 0-2.285-.283 1.926 1.926 0 0 0-.494.051 1.665 1.665 0 0 0-1.19 1.51c-.1 1.112 1.129 2.462 1.984 2.866a.27.27 0 0 0 .041.015 19.286 19.286 0 0 0 5.057.726 16.275 16.275 0 0 0 3.336-.133 5.212 5.212 0 0 0-.159 1.742c-2.586.006-4.732.572-5.374 1.556a2.3 2.3 0 0 0-.075 1.973c.281.641 1.207.731 2.168.731.459 0 1.281-.023 1.838-.048l.347-.016h.03a14.62 14.62 0 0 1 2.122-.162 9.569 9.569 0 0 1 1.058.055 2.184 2.184 0 0 1 1.9 1.377 2.587 2.587 0 0 1-.646 2.78c-.684.791-.586 1.345-.467 1.6a1.127 1.127 0 0 0 1.083.591 3.508 3.508 0 0 0 2.344-1.057c1.153-1.274 2.7-4.108 1.944-6.289-.492-1.419-2.134-2.337-4.3-2.728.087-.538.132-1.087.173-1.581.029-.337.055-.364.091-.638 4.567-.133 9.548-1.882 10.087-4.077a1.687 1.687 0 0 0 .039-1.298z" class="cls-1" transform="translate(-75.608 -54.344)"/>
            <path id="패스_475" d="M84.666 65.956a22.027 22.027 0 0 0 3.958.221c1.027 0 2.457-.018 3.432-.035a2.7 2.7 0 0 0 2.2-.668 3.4 3.4 0 0 0 1.1-2.345 29.342 29.342 0 0 0 .513-4.968 37.45 37.45 0 0 0-.1-4.985.269.269 0 0 0-.013-.057 2.159 2.159 0 0 0-2.174-1.606 2.594 2.594 0 0 0-1.77.541 1.938 1.938 0 0 0-.306 1.613c.023.414.1 1.007.188 1.635a18.739 18.739 0 0 1 .211 2.038 4.35 4.35 0 0 0-2.236-.6 4.922 4.922 0 0 0-1.293.176c-.613.168-1.072.314-1.376.41l-.073.023c.066-.862.162-1.762.285-2.684a2.073 2.073 0 0 0-.38-1.655 2.048 2.048 0 0 0-3.38 1.213 29.464 29.464 0 0 0-.821 8.064c0 .136.023 3.246 2.035 3.669zm2.716-5a1.369 1.369 0 0 1 .715-.794 6.205 6.205 0 0 1 2.476-.58 1.207 1.207 0 0 1 .848.215.279.279 0 0 1 .05.245c-.008.051-.034.175-.071.356-.094.449-.249 1.192-.392 2.056a2.624 2.624 0 0 1-1.089.123c-1.655 0-2.11-.323-2.235-.516a.251.251 0 0 0-.046-.053.309.309 0 0 1-.084-.144.95.95 0 0 0-.07-.154.984.984 0 0 1-.102-.75z" class="cls-1" transform="translate(-76.74 -51.512)"/>
        </g>
    </g>
</svg>
