<svg xmlns="http://www.w3.org/2000/svg" id="아람_로고" width="60" height="29.009" viewBox="0 0 60 29.009">
    <defs>
        <style>
            .cls-1{fill:#666}
        </style>
    </defs>
    <path id="패스_8" d="M596.548 1147.473s-.337-.275-.351.753c-.02.838-3.229 2.809-6.448 2.6 0 0-.761-5.288-1.438-5.743-.9-.6-1.587 3.4-1.711 4.009a27.226 27.226 0 0 0-.691 7.489s-7.115 3.747-11.907 2.207c0 0-.95-.379-.424-1.94.687-1.991 2.071-1.273 2.071-1.273s2.866 1.336 4.581.473 3.51-3.307 2.028-7.76c0 0-.343-1.079-2.1-1.332-1.97-.282-4.657-.932-4.657-.932a9.018 9.018 0 0 0 .068 3.007c.343.792 1.717 1 4.519 1.467 0 0 .617.734-.341 1.473s-3.553.068-4.519.194-3.492 1.144-4.175 5.953c0 0-.225 3.89 1.912 5.157 1.512.869 9.178 2.464 12.941-4.612 0 0 .279-.341.279.126s.482 2.6.482 2.6l-1.03-.432c-.279-.125-.564.147-1.1.914a23.654 23.654 0 0 0-1.3 2.325c-.375.765-2.681 6.289-2.536 8.9 0 0-.08.934 1.089.934 1.374.01 7.061-.269 9.18-1.134 0 0 3.219-.4 3.149-8.766 0 0-.277-.938-3.627-1.473a22.786 22.786 0 0 0-.281-6.342s4.663 1.132 8.011-6.361c.009.003.66-.668-1.674-2.481zm-7.167 20.751a19.073 19.073 0 0 1-3.022.02 20.667 20.667 0 0 1 .751-3.28l2.8.379z" class="cls-1" transform="translate(-538.313 -1145.026)"/>
    <g id="그룹_21" transform="translate(0 3.233)">
        <path id="패스_9" d="M504.373 1166.21c-.478-.6-1.368 0-1.926.345a32.147 32.147 0 0 1-3.143 1.581c-1.611.694-1.922-.01-1.922-.01a26.377 26.377 0 0 0-3.207-5.584c-1.556-1.751-2.86-1.384-2.86-1.384a1.352 1.352 0 0 0-.892.85 1.53 1.53 0 0 0 .339 1.5 13.282 13.282 0 0 1 3.133 7.559c.349 4.379-2.462 10.031-2.538 10.76a1.9 1.9 0 0 0 .418 1.468 2.228 2.228 0 0 0 .821.594 3.188 3.188 0 0 0 .87.209 2.189 2.189 0 0 0 .912-.281c1.771-.928 3.772-5.635 4.035-7.5.193-1.316.689-1.2.689-1.2 2.46.2 3.352-.088 4.523-1.187 1.375-1.33 1.23-7.114.748-7.72z" class="cls-1" transform="translate(-475.346 -1161.126)"/>
        <path id="패스_10" d="M421.116 1174.257a7.03 7.03 0 0 0-4.8 4.314c-.671 2.016-.757 2.737-.617 6.172 0 0 .482 3.547 2.123 4.991s3.725 1.436 7.121.139c3.773-1.438 4.86-2.95 5-5.549s-.677-11.097-8.827-10.067zm3.492 9.987c-1.305.414-3.627.1-4.1-1.3-.866-2.426 2.667-3.476 2.667-3.476 2.591-.418 3.422.944 3.486 2.113a2.45 2.45 0 0 1-2.053 2.663z" class="cls-1" transform="translate(-415.644 -1171.551)"/>
    </g>
</svg>
