<svg xmlns="http://www.w3.org/2000/svg" width="30" height="30" viewBox="0 0 30 30">
    <g>
        <path fill="#999" d="M28.375 30H1.624A1.692 1.692 0 0 1 0 28.251V1.625A1.646 1.646 0 0 1 1.624 0h26.751A1.647 1.647 0 0 1 30 1.625v26.75A1.647 1.647 0 0 1 28.375 30zM11 5.5a.992.992 0 0 0-1 1v8a1.084 1.084 0 0 0 1 1h3.749a4.972 4.972 0 0 1-1 2.875 14.251 14.251 0 0 1-2 2.251c-.117.116-.25.247-.25.374a.448.448 0 0 0 .062.187.45.45 0 0 1 .062.188l2.625 2.875a.44.44 0 0 0 .25.124h.376a13.024 13.024 0 0 0 5.25-10.124V6.5A1.2 1.2 0 0 0 19 5.5z" transform="translate(-.2) translate(.2)"/>
    </g>
</svg>
