<svg xmlns="http://www.w3.org/2000/svg" width="30" height="30" viewBox="0 0 30 30">
    <path fill="#999" d="M28.375 30H1.75A1.712 1.712 0 0 1 0 28.25V1.625A1.565 1.565 0 0 1 .5.484 1.8 1.8 0 0 1 1.75 0h26.625A1.572 1.572 0 0 1 30 1.625v26.75A1.647 1.647 0 0 1 28.375 30zM6.125 2.625a3.957 3.957 0 0 0-4 4v9.625a3.957 3.957 0 0 0 4 4h6l2 3.375.125.125a.708.708 0 0 0 1.25 0l.125-.125 2-3.375h6a3.957 3.957 0 0 0 4-4V6.625a4.452 4.452 0 0 0-4.25-4zm16.3 14h-.675V15.25h.375a.968.968 0 0 0 .758-.29 1.2 1.2 0 0 0 .242-.835v-.375a1.936 1.936 0 0 1-1.375.626 1.909 1.909 0 0 1-1.859-1.187A3.282 3.282 0 0 1 19.625 12a2.133 2.133 0 0 1 2.2-2.376h.051a1.475 1.475 0 0 1 1.251.625v-.374h1.5v4.375a2.133 2.133 0 0 1-2.2 2.376zm-.177-5.5a1.083 1.083 0 0 0-1 1 1 1 0 1 0 2 0 1.083 1.083 0 0 0-.998-1zm-6 3.376a2.489 2.489 0 0 1-1.887-.687 2.506 2.506 0 0 1-.614-1.688A2.139 2.139 0 0 1 15 10.047a3.278 3.278 0 0 1 1.25-.3 2.653 2.653 0 0 1 2.012.723 2.434 2.434 0 0 1 .613 1.653 2.134 2.134 0 0 1-1.313 2.077 3.589 3.589 0 0 1-1.312.3zm0-3.375a1.086 1.086 0 0 0-1 .965v.035a1 1 0 1 0 2 0v-.013a1.082 1.082 0 0 0-.957-.986zM7.75 14.5a1.492 1.492 0 0 1-1.25-.625v.5H4.875V7.75h1.5v2.5a2.138 2.138 0 0 1 1.375-.625 1.911 1.911 0 0 1 1.86 1.187A3.28 3.28 0 0 1 9.875 12a2.335 2.335 0 0 1-1.063 2.141 2.554 2.554 0 0 1-1.061.359zm-.375-3.375h-.047a1.076 1.076 0 0 0-.953 1 1.083 1.083 0 0 0 .836.982.783.783 0 0 0 .164.017 1.07 1.07 0 0 0 1-1v-.014a1.082 1.082 0 0 0-.987-.986h-.012zm5.249 3.125h-1.5V10.5c0-1.163-.538-1.253-.7-1.253a.307.307 0 0 0-.048 0V7.625a2.022 2.022 0 0 1 1.969 1.25 3.432 3.432 0 0 1 .281 1.25v4.124z"/>
</svg>
