<svg xmlns="http://www.w3.org/2000/svg" width="30" height="30" viewBox="0 0 30 30">
    <defs>
        <style>
            .cls-1{fill:#999}
        </style>
    </defs>
    <g id="그룹_40" transform="translate(-.467)">
        <path id="빼기_2" d="M28.375 30H1.625a1.565 1.565 0 0 1-1.141-.5A1.8 1.8 0 0 1 0 28.25V1.625A1.647 1.647 0 0 1 1.625 0h26.75A1.647 1.647 0 0 1 30 1.625v26.75A1.647 1.647 0 0 1 28.375 30zM15 8.875c-2.458 0-5.616.124-6.375.25-1.2.133-1.763.694-2 2a31.544 31.544 0 0 0-.25 3.75v.25a29.378 29.378 0 0 0 .25 3.75c.357 1.309.953 1.87 2.125 2 .619.124 3.836.25 6.375.25 2.46 0 5.618-.124 6.375-.25a2.366 2.366 0 0 0 2.125-2 31.579 31.579 0 0 0 .25-3.75v-.25a29.445 29.445 0 0 0-.25-3.75c-.484-1.329-1.093-1.871-2.25-2A63.422 63.422 0 0 0 15 8.875z" class="cls-1" transform="translate(.467)"/>
        <path id="패스_49" d="M10.3 10.2l4.235 2.242-4.235 2.242z" class="cls-1" transform="translate(3.411 2.263)"/>
    </g>
</svg>
