<svg xmlns="http://www.w3.org/2000/svg" id="sns_cafe-24px" width="30" height="30" viewBox="0 0 30 30">
    <defs>
        <style>
            .cls-1{fill:#999}
        </style>
    </defs>
    <path id="패스_44" d="M27.625 0H2.375A2.459 2.459 0 0 0 0 2.375v25.25A2.459 2.459 0 0 0 2.375 30h25.25A2.373 2.373 0 0 0 30 27.625V2.375A2.459 2.459 0 0 0 27.625 0zm-12.25 5.125h4.875c.125 0 .125 0 .125.125l.125.125a4.957 4.957 0 0 1-4.125 4.75h-5.25c-.125 0-.125 0-.125-.125a.436.436 0 0 1-.125-.25c.375-3.875 4.375-4.5 4.5-4.625zM24.25 18.25h-2c-.375 2.125-1.875 6.625-7.75 6.625-7.625 0-7.875-7.75-7.875-7.75v-4.75a.269.269 0 0 1 .25-.25h17.25a3.042 3.042 0 0 1 3 3 2.894 2.894 0 0 1-2.875 3.125z" class="cls-1"/>
    <path id="패스_45" d="M19.595 11a1.495 1.495 0 1 0 0 2.989 1.495 1.495 0 1 0 0-2.989z" class="cls-1" transform="translate(4.552 2.756)"/>
    <path id="패스_46" d="M13.51 15.238L11.268 12H9.4v6.1h1.868v-3.235l2.367 3.235H15.5V12h-1.99z" class="cls-1" transform="translate(2.361 3.014)"/>
</svg>
