<svg xmlns="http://www.w3.org/2000/svg" xmlns:xlink="http://www.w3.org/1999/xlink" width="180" height="80" viewBox="0 0 180 80">
  <defs>
    <clipPath id="clip-_99.버튼">
      <rect width="180" height="80"/>
    </clipPath>
  </defs>
  <g id="_99.버튼" data-name="99.버튼" clip-path="url(#clip-_99.버튼)">
    <rect width="180" height="80" fill="#fff"/>
    <g id="그룹_18774" data-name="그룹 18774" transform="translate(-0.334 -0.354)">
      <circle id="타원_68" data-name="타원 68" cx="40" cy="40" r="40" transform="translate(0.334 0.353)" fill="#f1f1f5"/>
      <g id="그룹_1694" data-name="그룹 1694" transform="translate(20.177 20.176)">
        <path id="패스_1467" data-name="패스 1467" d="M22.177,2A20.177,20.177,0,1,0,42.353,22.177,20.184,20.184,0,0,0,22.177,2ZM17.132,27.564V16.789a2.017,2.017,0,0,1,3.107-1.695l8.373,5.387a2.017,2.017,0,0,1,0,3.39L20.24,29.259A2.017,2.017,0,0,1,17.132,27.564Z" transform="translate(-2 -2)" fill="#0087bd"/>
      </g>
    </g>
    <g id="그룹_18776" data-name="그룹 18776" transform="translate(99.666 -0.354)">
      <circle id="타원_68-2" data-name="타원 68" cx="40" cy="40" r="40" transform="translate(0.334 0.353)" fill="#f1f1f5"/>
      <g id="그룹_1694-2" data-name="그룹 1694" transform="translate(20.177 20.176)">
        <path id="패스_1467-2" data-name="패스 1467" d="M22.177,2A20.177,20.177,0,1,0,42.353,22.177,20.184,20.184,0,0,0,22.177,2ZM17.132,27.564V16.789a2.017,2.017,0,0,1,3.107-1.695l8.373,5.387a2.017,2.017,0,0,1,0,3.39L20.24,29.259A2.017,2.017,0,0,1,17.132,27.564Z" transform="translate(-2 -2)" fill="#999"/>
      </g>
    </g>
  </g>
</svg>
