<svg xmlns="http://www.w3.org/2000/svg" width="66" height="66" viewBox="0 0 66 66">
  <defs>
    <style>
      .cls-1 {
        fill: #7348ae;
      }

      .cls-2 {
        fill: #fff;
        fill-rule: evenodd;
      }
    </style>
  </defs>
  <circle id="타원_1" data-name="타원 1" class="cls-1" cx="33" cy="33" r="33"/>
  <path id="아이콘_전화" class="cls-2" d="M44.079,50.916a12.206,12.206,0,0,1-17.028-.758l-9.519-9.992a13.766,13.766,0,0,1-.721-17.878L16.247,21.7a4.267,4.267,0,0,1-.615-0.964,15.79,15.79,0,0,0,.585,20.815l9.519,9.991a13.94,13.94,0,0,0,19.91.543,4.061,4.061,0,0,1-1.35-.937Zm-20.956-22a8.851,8.851,0,0,0,1.832,8.408l5.264,5.525a7.859,7.859,0,0,0,8.01,1.925L36.638,43.1a5.838,5.838,0,0,1-5.1-1.635L26.27,35.942a6.559,6.559,0,0,1-1.544-5.479,3.765,3.765,0,0,1-.38-0.265Zm-6.882-8.956a3.433,3.433,0,0,1,.664-3.652,3.065,3.065,0,0,1,4.482,0l8.1,8.5a3.449,3.449,0,0,1,0,4.7,3.068,3.068,0,0,1-4.481,0l-0.072-.075a8.826,8.826,0,0,0-.206,1.03,3.838,3.838,0,0,0,5.417-.265,4.466,4.466,0,0,0,0-6.085l-8.1-8.5a3.971,3.971,0,0,0-5.8,0,4.259,4.259,0,0,0-.615,5.119c0.205-.245.362-0.519,0.585-0.753C16.224,19.972,16.234,19.966,16.241,19.958Zm7.219,7.93L17.4,21.529c-0.221.239-.391,0.509-0.591,0.76l6.311,6.625C23.211,28.57,23.337,28.229,23.46,27.888Zm0,0c-0.123.342-.249,0.682-0.337,1.027L24.346,30.2a3.765,3.765,0,0,0,.38.265,8.826,8.826,0,0,1,.206-1.03Zm-6.649-5.6c0.2-.252.37-0.521,0.591-0.76l-0.5-.522a3.319,3.319,0,0,1-.664-1.049c-0.008.008-.017,0.015-0.024,0.023-0.223.234-.38,0.508-0.585,0.753a4.267,4.267,0,0,0,.615.964Zm7.037,4.626L18.09,20.871c-0.18.167-.391,0.315-0.558,0.492-0.049.052-.081,0.114-0.13,0.167l6.058,6.358C23.578,27.561,23.7,27.237,23.849,26.916Zm-6.943-8.262A2.4,2.4,0,0,1,17.562,17a2.173,2.173,0,0,1,3.167,0l8.1,8.5a2.441,2.441,0,0,1,0,3.324,2.171,2.171,0,0,1-3.166,0l-0.4-.423a9.331,9.331,0,0,0-.326,1.038L25,29.508a3.068,3.068,0,0,0,4.481,0,3.449,3.449,0,0,0,0-4.7l-8.1-8.5a3.065,3.065,0,0,0-4.482,0,3.433,3.433,0,0,0-.664,3.652c0.243-.254.511-0.487,0.774-0.723A2.413,2.413,0,0,1,16.906,18.653Zm1.184,2.217-0.528-.554a2.352,2.352,0,0,1-.547-1.082c-0.264.236-.532,0.469-0.774,0.723a3.319,3.319,0,0,0,.664,1.049l0.5,0.522c0.048-.052.08-0.115,0.13-0.167C17.7,21.186,17.91,21.038,18.09,20.871Zm5.758,6.045c-0.149.321-.271,0.645-0.389,0.972l1.471,1.545a9.331,9.331,0,0,1,.326-1.038Zm18.145,9.638a3.969,3.969,0,0,0-5.8,0,4.454,4.454,0,0,0,0,6.083l0.44,0.462a7.669,7.669,0,0,0,1.1-.229l-0.879-.924a3.442,3.442,0,0,1,0-4.7,3.066,3.066,0,0,1,4.481,0l8.094,8.5a3.445,3.445,0,0,1,0,4.707,3.021,3.021,0,0,1-2.933.829c-0.076.083-.143,0.179-0.221,0.26-0.2.206-.426,0.349-0.63,0.54a3.96,3.96,0,0,0,4.441-.939,4.456,4.456,0,0,0,0-6.088Zm-3.765,8.219,5.85,6.144c0.24-.21.5-0.389,0.724-0.62l-5.6-5.878A10.254,10.254,0,0,1,38.229,44.772Zm8.269,6.51a3.037,3.037,0,0,1-1.545-.829L44.8,50.3c-0.228.231-.484,0.41-0.724,0.62L44.3,51.145a4.061,4.061,0,0,0,1.35.937c0.2-.191.434-0.334,0.63-0.54C46.355,51.461,46.422,51.365,46.5,51.282Zm-7.292-6.864-1.471-1.545a7.669,7.669,0,0,1-1.1.229l1.591,1.671A10.254,10.254,0,0,0,39.206,44.418Zm6.224,5.156-5.3-5.565c-0.306.157-.615,0.285-0.926,0.409L44.8,50.3c0.05-.051.11-0.085,0.16-0.137C45.131,49.984,45.272,49.763,45.431,49.574Zm-7.918-8.315a2.437,2.437,0,0,1,0-3.322,2.171,2.171,0,0,1,3.166,0l8.094,8.5a2.434,2.434,0,0,1,0,3.325,2.173,2.173,0,0,1-1.563.682c-0.228.3-.468,0.57-0.712,0.839a3.021,3.021,0,0,0,2.933-.829,3.445,3.445,0,0,0,0-4.707l-8.094-8.5a3.066,3.066,0,0,0-4.481,0,3.442,3.442,0,0,0,0,4.7l0.879,0.924a8.345,8.345,0,0,0,.988-0.343Zm8.1,8.5-0.179-.189c-0.159.188-.3,0.41-0.467,0.585-0.05.052-.11,0.086-0.16,0.137l0.149,0.157a3.037,3.037,0,0,0,1.545.829c0.244-.269.484-0.544,0.712-0.839A2.18,2.18,0,0,1,45.61,49.763Zm-5.478-5.753L38.723,42.53a8.345,8.345,0,0,1-.988.343l1.471,1.545C39.517,44.294,39.826,44.167,40.132,44.009ZM49.5,15.74A15,15,0,0,0,38.609,11a14.825,14.825,0,0,0-3.71.479,0.982,0.982,0,0,0-.681,1.185,0.936,0.936,0,0,0,1.13.713V13.375a12.931,12.931,0,0,1,3.261-.418,13.194,13.194,0,0,1,9.576,4.169,14.534,14.534,0,0,1,3.959,10.046,15.214,15.214,0,0,1-.4,3.454,0.98,0.98,0,0,0,.68,1.187,0.889,0.889,0,0,0,.219.027,0.943,0.943,0,0,0,.9-0.741A17.115,17.115,0,0,0,54,27.173,16.557,16.557,0,0,0,49.5,15.74ZM46.335,31.99a0.92,0.92,0,0,0,.217.026,0.947,0.947,0,0,0,.906-0.747,11.852,11.852,0,0,0,.3-2.624,11.115,11.115,0,0,0-3.024-7.68,10.071,10.071,0,0,0-7.316-3.181,9.926,9.926,0,0,0-2.488.32,0.977,0.977,0,0,0-.679,1.179A0.927,0.927,0,0,0,35.379,20a8.03,8.03,0,0,1,2.039-.261,8.244,8.244,0,0,1,6,2.607,9.1,9.1,0,0,1,2.482,6.3,9.868,9.868,0,0,1-.247,2.165A0.981,0.981,0,0,0,46.335,31.99Zm-11.4-5.851a3.934,3.934,0,0,1,1.02-.133,4.119,4.119,0,0,1,2.994,1.3,4.576,4.576,0,0,1,1.234,3.144,4.712,4.712,0,0,1-.127,1.082,0.986,0.986,0,0,0,.685,1.185,0.887,0.887,0,0,0,.22.029,0.943,0.943,0,0,0,.9-0.748,6.958,6.958,0,0,0,.178-1.547,6.536,6.536,0,0,0-1.779-4.523,5.939,5.939,0,0,0-4.308-1.873,6.115,6.115,0,0,0-1.474.187,0.987,0.987,0,0,0-.674,1.191A0.924,0.924,0,0,0,34.94,26.139Z"/>
</svg>
