<svg xmlns="http://www.w3.org/2000/svg" width="23" height="22" viewBox="0 0 23 22">
  <defs>
    <style>
      .cls-1 {
        fill: #999;
        fill-rule: evenodd;
      }
    </style>
  </defs>
  <path id="아이콘_고객센터_복사" data-name="아이콘_고객센터 복사" class="cls-1" d="M21.738,6.236H20.321v5.787h1.417A1.239,1.239,0,0,0,23,10.8V7.454A1.239,1.239,0,0,0,21.738,6.236ZM5.606,21.428a0.9,0.9,0,0,0,1.147.52l2.1-.737A0.859,0.859,0,0,0,9.395,20.1L7.5,15.368H3.22ZM18.724,0.051L9.469,3.927H0.827a0.814,0.814,0,0,0-.827.8v8.8a0.814,0.814,0,0,0,.827.8H9.469l9.255,3.876a0.4,0.4,0,0,0,.6-0.384V0.435A0.4,0.4,0,0,0,18.724.051Z"/>
</svg>
