<?xml version="1.0" encoding="utf-8"?>
<!-- Generator: Adobe Illustrator 24.2.0, SVG Export Plug-In . SVG Version: 6.00 Build 0)  -->
<svg version="1.1" id="Layer_2" xmlns="http://www.w3.org/2000/svg" xmlns:xlink="http://www.w3.org/1999/xlink" x="0px" y="0px"
	 viewBox="0 0 316.15 390.13" style="enable-background:new 0 0 316.15 390.13;" xml:space="preserve">
<style type="text/css">
	.st0{fill:#EB9F32;}
	.st1{fill:#D92828;}
	.st2{fill:#93BC40;}
	.st3{fill:#231A15;}
	.st4{fill:#FFFFFF;}
	.st5{fill:#EE3423;}
	.st6{fill:#FEBE0E;}
	.st7{fill:#00C2F3;}
</style>
<g>
	<polygon points="147.98,81.33 139.92,85.52 115.13,35.79 123.18,31.6 	"/>
	<path class="st0" d="M124.56,21.47c1.38,7.29-3.3,14.37-10.41,15.77c-7.15,1.43-14.06-3.36-15.44-10.69
		c-1.37-7.28,3.3-14.35,10.43-15.75C116.29,9.38,123.18,14.16,124.56,21.47"/>
	<path d="M121.35,39.13c-1.93,1.31-4.08,2.22-6.36,2.66c-4.65,0.92-9.34-0.07-13.27-2.8c-3.89-2.69-6.56-6.82-7.43-11.56
		c-1.38-7.23,1.63-14.52,7.64-18.54c1.93-1.31,4.07-2.2,6.35-2.66c4.65-0.89,9.34,0.07,13.27,2.8c3.91,2.69,6.57,6.8,7.45,11.54
		C130.37,27.82,127.38,35.08,121.35,39.13 M106.89,16.63c-2.93,1.96-4.4,5.52-3.73,9.05c0.44,2.32,1.74,4.33,3.66,5.66
		c1.91,1.31,4.19,1.79,6.45,1.35c4.61-0.92,7.71-5.69,6.85-10.35c-0.46-2.32-1.75-4.31-3.65-5.66c-1.91-1.31-4.21-1.79-6.47-1.36
		C108.88,15.56,107.83,16,106.89,16.63"/>
	<polygon points="144.84,85.14 153.85,85.98 158.78,30.38 149.77,29.55 	"/>
	<path class="st1" d="M144.8,20.67c1.4,7.31,8.27,12.07,15.42,10.65c7.13-1.4,11.8-8.47,10.41-15.78
		c-1.37-7.28-8.27-12.07-15.41-10.67C148.1,6.3,143.42,13.36,144.8,20.67"/>
	<path d="M167.42,33.24L167.42,33.24c-1.93,1.31-4.07,2.18-6.35,2.64c-9.55,1.89-18.86-4.55-20.7-14.33
		c-1.38-7.24,1.63-14.52,7.66-18.56c1.93-1.31,4.05-2.2,6.35-2.66c4.65-0.9,9.34,0.09,13.25,2.81c3.93,2.69,6.57,6.8,7.45,11.54
		C176.45,21.9,173.45,29.2,167.42,33.24 M152.99,10.72c-2.93,1.96-4.4,5.52-3.75,9.07c0.89,4.79,5.45,7.91,10.11,6.99
		c4.63-0.9,7.71-5.68,6.84-10.36c-0.44-2.3-1.72-4.31-3.63-5.62c-1.91-1.33-4.21-1.81-6.49-1.36
		C154.99,9.67,153.94,10.07,152.99,10.72"/>
	<path class="st2" d="M240.62,134.05c8.8,46.67-21,91.78-66.59,100.81c-45.59,9.02-89.71-21.51-98.51-68.19
		C66.7,120.03,96.54,74.9,142.13,65.86C187.72,56.85,231.82,87.37,240.62,134.05"/>
	<path d="M206.73,226.19c-9.68,6.51-20.4,10.96-31.87,13.23c-23.21,4.57-46.82-0.36-66.41-13.92
		c-19.61-13.57-32.88-34.12-37.35-57.93c-6.84-36.22,8.2-72.76,38.35-93.02c9.68-6.49,20.37-10.96,31.83-13.23
		c23.24-4.58,46.82,0.36,66.41,13.94c19.61,13.57,32.88,34.14,37.35,57.93C251.92,169.42,236.86,205.94,206.73,226.19 M114.41,82.27
		c-27.06,18.2-40.56,51.01-34.44,83.53c4.03,21.37,15.97,39.85,33.55,52.02c17.6,12.19,38.79,16.62,59.65,12.49
		c10.31-2.05,19.89-6.02,28.59-11.86c27.05-18.19,40.56-50.96,34.44-83.53c-4.05-21.34-15.95-39.81-33.57-52.02
		c-17.6-12.15-38.77-16.6-59.65-12.48C132.71,72.46,123.08,76.45,114.41,82.27"/>
	<path class="st3" d="M149.22,115.08c1.54,8.08-3.63,15.9-11.53,17.45c-7.91,1.57-15.51-3.72-17.06-11.79
		c-1.51-8.1,3.66-15.9,11.55-17.45C140.07,101.72,147.67,107,149.22,115.08"/>
	<path class="st4" d="M145.39,134.24c-2.07,1.4-4.38,2.35-6.85,2.86c-5,0.97-10.08-0.1-14.3-3c-4.22-2.95-7.06-7.4-8.03-12.49
		c-1.49-7.82,1.75-15.65,8.26-20.04c2.09-1.38,4.4-2.35,6.85-2.85c10.32-2.05,20.35,4.91,22.35,15.48
		C155.14,122.02,151.89,129.86,145.39,134.24 M129.42,109.3c-3.42,2.3-5.1,6.44-4.33,10.55c0.49,2.71,2.02,5.03,4.21,6.56
		c2.24,1.53,4.89,2.1,7.54,1.57c5.35-1.06,8.96-6.63,7.92-12.02c-1.05-5.57-6.31-9.2-11.73-8.16
		C131.74,108.08,130.53,108.57,129.42,109.3"/>
	<path class="st3" d="M182.01,108.58c1.54,8.1-3.61,15.92-11.5,17.45c-7.91,1.57-15.53-3.72-17.07-11.79
		c-1.52-8.1,3.65-15.9,11.53-17.45C172.88,95.22,180.52,100.51,182.01,108.58"/>
	<path class="st4" d="M178.22,127.75c-2.09,1.4-4.4,2.35-6.87,2.85c-5,0.97-10.08-0.09-14.3-3.02c-4.22-2.91-7.06-7.35-8.03-12.46
		c-1.49-7.81,1.75-15.68,8.24-20.06c2.09-1.38,4.42-2.35,6.87-2.81c10.34-2.05,20.35,4.89,22.35,15.46
		C187.96,115.51,184.72,123.37,178.22,127.75 M162.23,102.83c-3.4,2.28-5.12,6.43-4.35,10.55c0.51,2.68,2.02,4.99,4.22,6.53
		c2.24,1.53,4.89,2.11,7.52,1.59c5.38-1.06,8.97-6.61,7.98-12.03c-1.07-5.56-6.33-9.2-11.76-8.13
		C164.53,101.57,163.32,102.1,162.23,102.83"/>
	<path class="st3" d="M168.61,145.75c0.53,2.83-3.94,6.08-10.01,7.31c-6.1,1.18-11.46-0.14-11.97-2.97
		c-0.56-2.86,3.94-6.12,10.03-7.33C162.7,141.56,168.06,142.89,168.61,145.75"/>
	<path class="st4" d="M165.77,198.75l2.28,12.02c0.28,1.4-0.63,2.74-1.98,3l-8.24,1.62c-1.35,0.27-2.65-0.63-2.91-2.03l-2.26-12.02"
		/>
	<path class="st4" d="M181.66,195.63l2.28,12.02c0.25,1.36-0.61,2.71-2,2.98l-8.24,1.64c-1.33,0.26-2.65-0.65-2.89-2.03l-2.28-12.02
		"/>
	<path class="st3" d="M192.88,191.08c-7.54,5.06-16.06,8.61-25.15,10.41c-18.35,3.63-36.98-0.29-52.46-10.99
		c-15.48-10.69-25.94-26.95-29.48-45.74c-0.49-2.49,1.16-4.93,3.58-5.4c2.47-0.48,4.82,1.16,5.29,3.65
		c3.08,16.36,12.22,30.49,25.7,39.83c13.48,9.34,29.68,12.71,45.66,9.56c15.97-3.17,29.76-12.48,38.88-26.26
		c9.13-13.81,12.43-30.41,9.36-46.75c-0.47-2.51,1.14-4.94,3.58-5.4c2.45-0.53,4.84,1.14,5.29,3.65
		c3.56,18.78-0.26,37.85-10.73,53.67C207.13,179.27,200.51,185.97,192.88,191.08"/>
	<path class="st5" d="M298.23,215.06c3.91,4.48,4.93,11.16,2.14,19.05c-3.05,8.62-22.59,2.23-29.97,4.5
		c-8.47,2.59-17.11,7.4-22.59,14.67c-12.81,17.03-5.36,45.03,9.41,56.81c8.64,6.9,19.16,8.3,29.78,7.14
		c6.56-0.7,15.46-6.24,21.93-3.89c5.75,2.1,8.2,12.48,6.87,17.83c-3.8,15.36-31.73,17.83-43.45,17.69
		c-16.58-0.19-34.32-7.26-45.33-20.26c-6.94-8.18-14.5-20.11-17.02-30.95c-6.85-29.47,8.27-61.56,25.07-74.92
		c9.31-7.41,21.49-11.81,33.11-13.4c6.43-0.89,12.99-0.99,19.39,0.15C292.12,210.29,295.76,212.23,298.23,215.06"/>
	<path class="st6" d="M177.5,350.61c2.66-13.24-12.92-24.47-24.22-25.86c-2.73-0.32-6.26,16.46-6.77,18.3
		c-1.19,4.28-2.37,8.45-3.21,12.83C140.43,371,174.64,364.74,177.5,350.61 M186.12,300.93c2.94-7.07-4.63-16.45-9.82-19.97
		c-11.01-7.47-13.65,7.81-16,16.43c-1.86,6.85-4.36,12.05,4.5,13.38C172.38,311.91,182.9,308.72,186.12,300.93 M193.1,327.57
		c4.5,2.15,8.12,8.23,10.52,12.6c2.47,4.48,4.01,9.68,4.65,14.76c1.35,10.91-2.16,21.73-11.25,28.22
		c-12.2,8.69-28.96,7.7-42.87,5.32c-11.97-2.08-23.52-5.13-34.86-9.63c-20.67-8.18-8.55-26.35-3.82-42
		c3.93-13.02,7.94-26.01,11.85-39.03c3.7-12.27,8.26-24.24,11.78-36.56c8.27-29.01,58.51,5.88,67.97,18.48
		c5.42,7.21,8.47,19,5.42,27.99C209.24,317.17,202.9,325.05,193.1,327.57"/>
	<path class="st7" d="M41.77,286.53c9.03,0.36,20.96,0.24,30.25-1.67c-4.87-14.79-17.55-42.49-18.39-42.28
		C49.9,257.43,45.73,271.89,41.77,286.53 M70.03,215.2c3.87,2.86,7.01,7.19,9.31,12.99c4.82,12.25,9.8,24.44,14.78,36.64
		c6.17,15.12,14.76,29.13,20.61,44.38c2.87,7.53,12.43,23.16,4.82,30.51c-9.59,9.29-26.96,0.6-31.9-9.31
		c-2.21-4.4-2.89-11.1-6.15-14.79c-4.43-5.04-39.04-5.22-45.4-1.23c-6.54,4.09-5.19,13.23-6.06,19.82
		c-3.12,23.52-26.61,27.13-29.71,9.24c-1.44-8.28,2.35-16.77,4.82-24.47c6.49-20.11,10.43-40.92,15.9-61.32
		c3.98-14.9,7.82-39.69,24.64-44.93C55.36,209.71,63.66,210.5,70.03,215.2"/>
</g>
</svg>
