<svg xmlns="http://www.w3.org/2000/svg" width="28" height="28" viewBox="0 0 28 28">
  <defs>
    <style>
      .cls-1 {
        fill: #333;
        fill-rule: evenodd;
      }

      .cls-2 {
        fill: none;
        stroke: #333;
        stroke-width: 2px;
      }
    </style>
  </defs>
  <path id="모양_2" data-name="모양 2" class="cls-1" d="M13.937,20.009a0.444,0.444,0,0,1-.316-0.132L8.11,14.33a0.451,0.451,0,0,1,0-.636,0.444,0.444,0,0,1,.631,0l5.511,5.547a0.451,0.451,0,0,1,0,.636A0.444,0.444,0,0,1,13.937,20.009ZM8.426,14.434A0.444,0.444,0,0,1,8.11,14.3a0.451,0.451,0,0,1,0-.635L13.621,8.12a0.444,0.444,0,0,1,.631,0,0.451,0.451,0,0,1,0,.636L8.742,14.3A0.444,0.444,0,0,1,8.426,14.434Zm9.225,5.575a0.444,0.444,0,0,1-.316-0.132L11.824,14.33a0.451,0.451,0,0,1,0-.636,0.444,0.444,0,0,1,.631,0l5.511,5.547a0.451,0.451,0,0,1,0,.636A0.444,0.444,0,0,1,17.651,20.009ZM12.14,14.434a0.444,0.444,0,0,1-.316-0.132,0.451,0.451,0,0,1,0-.635L17.335,8.12a0.444,0.444,0,0,1,.631,0,0.451,0.451,0,0,1,0,.636L12.456,14.3A0.444,0.444,0,0,1,12.14,14.434Zm7.421,0.014H9.042a0.449,0.449,0,0,1,0-.9H19.561A0.449,0.449,0,0,1,19.561,14.448Z"/>
  <circle id="타원_2_복사_2" data-name="타원 2 복사 2" class="cls-2" cx="14" cy="14" r="13"/>
</svg>
