<?xml version="1.0" encoding="utf-8"?>
<!-- Generator: Adobe Illustrator 24.2.3, SVG Export Plug-In . SVG Version: 6.00 Build 0)  -->
<svg version="1.1" id="OBJECTS" xmlns="http://www.w3.org/2000/svg" xmlns:xlink="http://www.w3.org/1999/xlink" x="0px" y="0px"
	 viewBox="0 0 192.9 192.7" style="enable-background:new 0 0 192.9 192.7;" xml:space="preserve">
<style type="text/css">
	.st0{fill:url(#SVGID_1_);}
	.st1{fill:url(#SVGID_2_);}
	.st2{fill:url(#SVGID_3_);}
	.st3{fill:url(#SVGID_4_);}
	.st4{fill:url(#SVGID_5_);}
	.st5{fill:none;}
	.st6{enable-background:new    ;}
	.st7{fill:#FFFFFF;}
</style>
<g>
	<g>
		
			<linearGradient id="SVGID_1_" gradientUnits="userSpaceOnUse" x1="141.5031" y1="206.8106" x2="141.0613" y2="181.6286" gradientTransform="matrix(1 0 0 -1 22.7799 202.6084)">
			<stop  offset="0" style="stop-color:#8A0000"/>
			<stop  offset="0.1734" style="stop-color:#8E0101"/>
			<stop  offset="0.3617" style="stop-color:#9B0603"/>
			<stop  offset="0.557" style="stop-color:#B10C06"/>
			<stop  offset="0.7572" style="stop-color:#D0160B"/>
			<stop  offset="0.9592" style="stop-color:#F62212"/>
			<stop  offset="1" style="stop-color:#FF2513"/>
		</linearGradient>
		<path class="st0" d="M192.4,18.8h-57.1l12.1-12.1c4.1-4.1,33.9-6.6,37.1-6.6c2.5,0,4.6,1.5,6,5C191.7,8.1,192.4,12.6,192.4,18.8z"
			/>
		
			<linearGradient id="SVGID_2_" gradientUnits="userSpaceOnUse" x1="-30.8689" y1="45.145" x2="0.2017" y2="36.5143" gradientTransform="matrix(1 0 0 -1 22.7799 202.6084)">
			<stop  offset="0" style="stop-color:#8A0000"/>
			<stop  offset="0.1734" style="stop-color:#8E0101"/>
			<stop  offset="0.3617" style="stop-color:#9B0603"/>
			<stop  offset="0.557" style="stop-color:#B10C06"/>
			<stop  offset="0.7572" style="stop-color:#D0160B"/>
			<stop  offset="0.9592" style="stop-color:#F62212"/>
			<stop  offset="1" style="stop-color:#FF2513"/>
		</linearGradient>
		<path class="st1" d="M18.8,192.4v-57.1L6.7,147.5c-4.1,4.1-6.6,33.9-6.6,37.1c0,2.5,1.5,4.6,5,6C8.1,191.8,12.6,192.4,18.8,192.4z
			"/>
		
			<linearGradient id="SVGID_3_" gradientUnits="userSpaceOnUse" x1="29.6082" y1="61.577" x2="81.0355" y2="196.0791" gradientTransform="matrix(1 0 0 -1 22.7799 202.6084)">
			<stop  offset="0" style="stop-color:#B90000"/>
			<stop  offset="0.2282" style="stop-color:#BD0301"/>
			<stop  offset="0.4759" style="stop-color:#CA0B05"/>
			<stop  offset="0.7329" style="stop-color:#E01A0B"/>
			<stop  offset="0.9947" style="stop-color:#FE2E13"/>
			<stop  offset="1" style="stop-color:#FF2E13"/>
		</linearGradient>
		<path class="st2" d="M184.5,0.1h-4.6H78.7l0,0c-7.9,0-15.4,3.1-21,8.7l-10,10L8.8,57.7c-5.6,5.6-8.7,13.1-8.7,21v101.2l0,0v4.7
			c0-3.2,2.5-7.1,6.6-11.2l12.1-12.1L173.6,6.4C177.6,2.5,181.4,0.1,184.5,0.1z"/>
		<g>
			<g>
				
					<linearGradient id="SVGID_4_" gradientUnits="userSpaceOnUse" x1="-107.2686" y1="8.8375" x2="13.1495" y2="114.9686" gradientTransform="matrix(1 0 0 -1 22.7799 202.6084)">
					<stop  offset="0" style="stop-color:#FFFFFF"/>
					<stop  offset="1" style="stop-color:#FFFFFF;stop-opacity:0"/>
				</linearGradient>
				<path class="st3" d="M4.6,78.7c0-6.7,2.6-13,7.4-17.8L60.9,12C65.7,7.2,72,4.6,78.7,4.6h90.3L4.6,169V78.7z"/>
			</g>
		</g>
	</g>
	<g>
		<g>
			
				<linearGradient id="SVGID_5_" gradientUnits="userSpaceOnUse" x1="32.6449" y1="307.1132" x2="61.1607" y2="133.109" gradientTransform="matrix(1 0 0 -1 22.7799 202.6084)">
				<stop  offset="0" style="stop-color:#FFFFFF"/>
				<stop  offset="1" style="stop-color:#FFFFFF;stop-opacity:0"/>
			</linearGradient>
			<path class="st4" d="M4.6,78.7c0-6.7,2.6-13,7.4-17.8L60.9,12C65.7,7.2,72,4.6,78.7,4.6h90.3L4.6,169V78.7z"/>
		</g>
	</g>
	
		<rect x="3.6" y="41.2" transform="matrix(0.7071 -0.7071 0.7071 0.7071 -22.5975 66.4478)" class="st5" width="130.7" height="38.6"/>
	<g class="st6">
		<path class="st7" d="M62.7,86.6l-5.9,5.9l-16.9-4c-2.2-0.5-4.6-1.3-7.4-2.4c1.9,1.1,3.4,2.2,4.4,3.3l11.4,11.4l-5.9,5.9L19,83.1
			l6.8-6.8l14.1,3.1c2.8,0.6,5.1,1.3,7,2c-2.4-1.6-4.6-3.5-6.7-5.6l-7-7l5.9-5.9L62.7,86.6z"/>
		<path class="st7" d="M78.9,59.1l5.6,5.6L66.8,82.5L43.2,58.9L61,41.2l5.4,5.4L55.8,57.2l3.4,3.4l8.6-8.6l5.2,5.2l-8.6,8.6l3.8,3.8
			L78.9,59.1z"/>
		<path class="st7" d="M93.4,8.8l17.3,29.8l-6.1,6.1L88.3,35l9.9,16.1l-6.3,6.3L62,40.1l6.8-6.8l16.9,10.3L75.3,26.8l5.7-5.7
			l17.1,10.1L87.8,14.3L93.4,8.8z"/>
	</g>
</g>
</svg>
