<?xml version="1.0" encoding="utf-8"?>
<!-- Generator: Adobe Illustrator 24.2.0, SVG Export Plug-In . SVG Version: 6.00 Build 0)  -->
<svg version="1.1" id="레이어_1" xmlns="http://www.w3.org/2000/svg" xmlns:xlink="http://www.w3.org/1999/xlink" x="0px"
	 y="0px" viewBox="0 0 22.67 22.67" style="enable-background:new 0 0 22.67 22.67;" xml:space="preserve">
<style type="text/css">
	.st0{fill:#323333;}
	.st1{fill:none;stroke:#323333;stroke-width:1.5;stroke-linecap:round;stroke-linejoin:round;stroke-miterlimit:10;}
</style>
<g>
	<path class="st0" d="M21.93,1.5H0.74C0.33,1.5,0,1.17,0,0.75S0.33,0,0.74,0h21.19c0.41,0,0.74,0.34,0.74,0.75S22.34,1.5,21.93,1.5z
		"/>
	<path class="st0" d="M21.93,12.08H0.74C0.33,12.08,0,11.75,0,11.33c0-0.41,0.33-0.75,0.74-0.75h21.19c0.41,0,0.74,0.34,0.74,0.75
		C22.67,11.75,22.34,12.08,21.93,12.08z"/>
	<path class="st0" d="M21.93,22.67H0.74C0.33,22.67,0,22.33,0,21.91s0.33-0.75,0.74-0.75h21.19c0.41,0,0.74,0.34,0.74,0.75
		S22.34,22.67,21.93,22.67z"/>
</g>
<path class="st1" d="M11.3,14.84"/>
</svg>
