<svg xmlns="http://www.w3.org/2000/svg" width="70" height="70" viewBox="0 0 70 70">
  <defs>
    <style>
      .cls-1 {
        fill: none;
        stroke: #fff;
        stroke-width: 2px;
      }

      .cls-2 {
        fill: #fff;
        fill-rule: evenodd;
      }
    </style>
  </defs>
  <circle id="타원_537" data-name="타원 537" class="cls-1" cx="35" cy="35" r="35"/>
  <path id="모양_2" data-name="모양 2" class="cls-2" d="M11.133,60a1.1,1.1,0,0,1-1.094-1.1h0a1.106,1.106,0,0,1,1.095-1.107H58.859A1.1,1.1,0,0,1,59.944,58.9h0A1.1,1.1,0,0,1,58.859,60H11.133Zm13.04-.25H16.791a1.089,1.089,0,0,1-1.085-1.1V24.3a1.089,1.089,0,0,1,1.085-1.1h7.382a1.09,1.09,0,0,1,1.085,1.1V58.649A1.089,1.089,0,0,1,24.173,59.747Zm-6.3-2.195h5.211V25.4H17.876V57.552Zm20.808,2.195H31.307a1.089,1.089,0,0,1-1.085-1.1V11.114a1.089,1.089,0,0,1,1.085-1.1h7.377a1.089,1.089,0,0,1,1.085,1.1V58.649A1.089,1.089,0,0,1,38.684,59.747Zm-6.291-2.195H37.6V12.212H32.393v45.34Zm19.83,2.195H44.841a1.089,1.089,0,0,1-1.085-1.1V34.757a1.09,1.09,0,0,1,1.085-1.1h7.382a1.089,1.089,0,0,1,1.085,1.1V58.649A1.089,1.089,0,0,1,52.222,59.747Zm-6.3-2.195h5.211v-21.7H45.926v21.7Z"/>
</svg>
