<?xml version="1.0" encoding="utf-8"?>
<!-- Generator: Adobe Illustrator 24.2.0, SVG Export Plug-In . SVG Version: 6.00 Build 0)  -->
<svg version="1.1" id="격리_모드" xmlns="http://www.w3.org/2000/svg" xmlns:xlink="http://www.w3.org/1999/xlink" x="0px"
	 y="0px" viewBox="0 0 36.25 25.89" style="enable-background:new 0 0 36.25 25.89;" xml:space="preserve">
<style type="text/css">
	.st0{fill:#FFFFFF;}
</style>
<g>
	<g>
		<g>
			<g>
				<path class="st0" d="M35.63,24.65h-2.55V3.95c-0.09-2.27-2-4.04-4.27-3.95c-2.15,0.08-3.87,1.8-3.96,3.95v20.7h-2.61V7.04
					c-0.09-2.27-2-4.04-4.28-3.95c-2.15,0.08-3.87,1.81-3.95,3.95v17.61H11.4V10.12c-0.09-2.27-2-4.04-4.27-3.95
					c-2.15,0.08-3.87,1.8-3.95,3.95v14.53H0.62C0.27,24.65,0,24.93,0,25.27c0,0.34,0.27,0.62,0.62,0.62h35.01
					c0.34,0,0.62-0.28,0.62-0.62C36.25,24.93,35.97,24.65,35.63,24.65L35.63,24.65z M4.4,24.65V10.12C4.47,8.53,5.82,7.3,7.41,7.38
					c1.48,0.07,2.67,1.26,2.75,2.74l0,14.53H4.4z M15.24,24.65V7.04c0.07-1.59,1.42-2.82,3.01-2.75c1.48,0.07,2.67,1.26,2.74,2.75
					L21,24.65H15.24z M26.08,24.65V3.95c0.07-1.59,1.42-2.81,3.01-2.75c1.49,0.07,2.67,1.26,2.74,2.75l0,20.7H26.08z M26.08,24.65"
					/>
			</g>
		</g>
	</g>
</g>
</svg>
