<?xml version="1.0" encoding="utf-8"?>
<!-- Generator: Adobe Illustrator 24.2.0, SVG Export Plug-In . SVG Version: 6.00 Build 0)  -->
<svg version="1.1" id="레이어_1" xmlns="http://www.w3.org/2000/svg" xmlns:xlink="http://www.w3.org/1999/xlink" x="0px"
	 y="0px" viewBox="0 0 73.94 66.7" style="enable-background:new 0 0 73.94 66.7;" xml:space="preserve">
<style type="text/css">
	.st0{fill:#CFCFCF;}
</style>
<g>
	<g>
		<path class="st0" d="M57.65,66.7H16.3c-2.45,0-4.44-2.15-4.44-4.79V32.32H3.34c-2.31,0-3.01-1.28-3.2-1.83
			c-0.19-0.55-0.45-1.99,1.34-3.43L33.54,1.13c1.87-1.51,5-1.51,6.87,0l32.06,25.93c1.79,1.45,1.53,2.88,1.34,3.43
			c-0.19,0.55-0.9,1.83-3.2,1.83h-8.52v29.59C62.09,64.55,60.1,66.7,57.65,66.7z M13.84,30.57l1.93,0.17l0,31.17
			c0,0.52,0.31,0.87,0.52,0.87h41.35c0.21,0,0.52-0.35,0.52-0.87V30.69c-0.06-0.55,0.11-1.16,0.48-1.58
			c0.37-0.41,0.9-0.71,1.45-0.71h7.79L37.94,4.18c-0.46-0.38-1.48-0.37-1.94,0L6.05,28.4h7.79c0.56,0,1.09,0.24,1.46,0.65
			c0.37,0.42,0.55,0.97,0.49,1.53L13.84,30.57L13.84,30.57z"/>
	</g>
	<g>
		<path class="st0" d="M47.51,62.42c0,1.63-1.33,2.96-2.96,2.96H29.39c-1.63,0-2.96-1.33-2.96-2.96V44.44
			c0-1.63,1.33-2.96,2.96-2.96h15.17c1.63,0,2.96,1.33,2.96,2.96V62.42z"/>
	</g>
</g>
</svg>
