<?xml version="1.0" encoding="utf-8"?>
<!-- Generator: Adobe Illustrator 24.2.0, SVG Export Plug-In . SVG Version: 6.00 Build 0)  -->
<svg version="1.1" id="레이어_1" xmlns="http://www.w3.org/2000/svg" xmlns:xlink="http://www.w3.org/1999/xlink" x="0px"
	 y="0px" viewBox="0 0 74.95 71.76" style="enable-background:new 0 0 74.95 71.76;" xml:space="preserve">
<style type="text/css">
	.st0{fill:#7EBD30;}
</style>
<path class="st0" d="M1.68,32.16l13.55,11.6c1.36,1.17,1.96,3,1.54,4.74l-4.15,17.35c-0.99,4.13,3.51,7.4,7.14,5.19l15.22-9.31
	c1.53-0.94,3.45-0.94,4.98,0l15.22,9.31c3.63,2.22,8.13-1.05,7.14-5.19L58.18,48.5c-0.42-1.74,0.18-3.57,1.54-4.74l13.55-11.6
	c3.23-2.76,1.51-8.05-2.73-8.39l-17.78-1.42c-1.79-0.14-3.34-1.27-4.03-2.93L41.89,2.94c-1.63-3.93-7.19-3.93-8.82,0l-6.84,16.48
	c-0.69,1.66-2.24,2.79-4.03,2.93L4.4,23.77C0.17,24.11-1.55,29.4,1.68,32.16z"/>
</svg>
