<?xml version="1.0" encoding="utf-8"?>
<!-- Generator: Adobe Illustrator 24.3.0, SVG Export Plug-In . SVG Version: 6.00 Build 0)  -->
<svg version="1.1" id="Layer_1" xmlns="http://www.w3.org/2000/svg" xmlns:xlink="http://www.w3.org/1999/xlink" x="0px" y="0px"
	 viewBox="0 0 30 30" style="enable-background:new 0 0 30 30;" xml:space="preserve">
<style type="text/css">
	.st0{fill:#999999;}
	.st1{fill:#666666;}
</style>
<g>
	<path class="st0" d="M24.5,30h-19c-3,0-5.5-2.5-5.5-5.5v-19C0,2.5,2.5,0,5.5,0h19c3,0,5.5,2.5,5.5,5.5v19C30,27.5,27.5,30,24.5,30z
		 M5.5,1.4c-2.2,0-4,1.8-4,4v19c0,2.2,1.8,4,4,4h19c2.2,0,4-1.8,4-4v-19c0-2.2-1.8-4-4-4H5.5z"/>
</g>
<path class="st1" d="M15.9,14.6l6.9-6.9c0.2-0.2,0.3-0.4,0.3-0.7c0-0.3-0.1-0.5-0.3-0.7c-0.4-0.4-1-0.4-1.3,0l-6.9,6.9L7.6,6.3
	c-0.4-0.4-1-0.4-1.3,0c-0.4,0.4-0.4,1,0,1.3l6.9,6.9l-6.9,6.9C6.1,21.7,6,21.9,6,22.2c0,0.5,0.4,0.9,0.9,0.9c0.3,0,0.5-0.1,0.7-0.3
	l6.9-6.9l6.9,6.9c0.2,0.2,0.4,0.3,0.7,0.3c0.3,0,0.5-0.1,0.7-0.3c0.2-0.2,0.3-0.4,0.3-0.7c0-0.3-0.1-0.5-0.3-0.7L15.9,14.6z"/>
</svg>
