<svg xmlns="http://www.w3.org/2000/svg" width="36" height="66" viewBox="0 0 36 66">
  <defs>
    <style>
      .cls-1 {
        fill: #269bd7;
        fill-rule: evenodd;
      }
    </style>
  </defs>
  <path id="모양_3" data-name="모양 3" class="cls-1" d="M36,65.974H0.448V61.023q0.732-.55,1.741-1.421T4.48,57.539q2.106-2.108,5.268-5.5t6.459-7.519q3.3-4.125,6.276-8.618a53.228,53.228,0,0,0,4.81-8.894A20.594,20.594,0,0,0,28.577,22.1a33.52,33.52,0,0,0,.458-4.905,16.126,16.126,0,0,0-.5-3.667,12.5,12.5,0,0,0-1.786-4.034,11.863,11.863,0,0,0-3.573-3.255,10.676,10.676,0,0,0-5.59-1.329q-5.59,0-8.567,3.209a11.249,11.249,0,0,0-3.161,7.335H-0.01a17.714,17.714,0,0,1,1.1-4.4A14.508,14.508,0,0,1,4.114,6.285,16.865,16.865,0,0,1,9.427,2.526,19.278,19.278,0,0,1,17.674.967a17.465,17.465,0,0,1,6.368,1.192,18.2,18.2,0,0,1,5.543,3.392A16.662,16.662,0,0,1,34.9,18.021a32.635,32.635,0,0,1-.458,4.86,24.239,24.239,0,0,1-1.283,5.042,39.757,39.757,0,0,1-4.536,8.711,99.744,99.744,0,0,1-6.642,8.71q-3.574,4.311-7.6,8.344L6.77,61.3,36,61.481v4.493Z"/>
</svg>
