<svg xmlns="http://www.w3.org/2000/svg" width="110" height="100" viewBox="0 0 110 100">
  <defs>
    <style>
      .cls-1 {
        fill: #94bd41;
      }

      .cls-2, .cls-3 {
        fill: #fff;
      }

      .cls-2 {
        fill-rule: evenodd;
      }

      .cls-3 {
        font-size: 19.75px;
        text-anchor: middle;
        font-family: "Noto Sans CJK KR";
        font-weight: 700;
      }
    </style>
  </defs>
  <circle id="타원_731" data-name="타원 731" class="cls-1" cx="50" cy="50" r="50"/>
  <path id="시계" class="cls-2" d="M48.043,16.576V13.743h-3.85V8H54.828v5.744h-3.85v2.833a33.341,33.341,0,0,1,22.266,9.817,34.071,34.071,0,0,1,0,47.745,33.518,33.518,0,0,1-47.467,0,34.071,34.071,0,0,1,0-47.745,33.341,33.341,0,0,1,22.266-9.817h0ZM45.267,49.95a4.523,4.523,0,0,0,7.717,3.315,4.571,4.571,0,0,0-2.334-7.74V27.3a0.849,0.849,0,1,0-1.695.031V45.525a3.633,3.633,0,0,0-2.366,1.3l-14.425-5.5a1.7,1.7,0,1,0-1.294,3.14l14.4,5.486h0ZM29.849,30.468a28.225,28.225,0,0,0,0,39.554,27.767,27.767,0,0,0,39.323,0,28.225,28.225,0,0,0,0-39.553,27.766,27.766,0,0,0-39.323,0h0Z"/>
  <rect id="사각형_753" data-name="사각형 753" class="cls-1" x="65" y="30" width="45" height="32"/>
  <text id="종료" class="cls-3" transform="translate(87.285 52.778) scale(0.912 0.911)"><tspan x="0">종료</tspan></text>
</svg>
