<svg xmlns="http://www.w3.org/2000/svg" width="28" height="28" viewBox="0 0 28 28">
  <defs>
    <style>
      .cls-1 {
        fill: #333;
        fill-rule: evenodd;
      }

      .cls-2 {
        fill: none;
        stroke: #333;
        stroke-width: 2px;
      }
    </style>
  </defs>
  <path id="화살표_복사" data-name="화살표 복사" class="cls-1" d="M13.948,20.009a0.442,0.442,0,0,1-.315-0.131L8.139,14.34a0.451,0.451,0,0,1,0-.635,0.442,0.442,0,0,1,.629,0l5.494,5.538a0.451,0.451,0,0,1,0,.635A0.442,0.442,0,0,1,13.948,20.009ZM8.454,14.443a0.442,0.442,0,0,1-.315-0.132,0.451,0.451,0,0,1,0-.634l5.494-5.537a0.443,0.443,0,0,1,.629,0,0.451,0.451,0,0,1,0,.635L8.769,14.311A0.442,0.442,0,0,1,8.454,14.443Zm11.1,0.014H9.068a0.449,0.449,0,0,1,0-.9H19.554A0.449,0.449,0,0,1,19.554,14.457Z"/>
  <circle id="타원_2_복사" data-name="타원 2 복사" class="cls-2" cx="14" cy="14" r="13"/>
</svg>
