<?xml version="1.0" encoding="utf-8"?>
<!-- Generator: Adobe Illustrator 24.2.0, SVG Export Plug-In . SVG Version: 6.00 Build 0)  -->
<svg version="1.1" id="OBJECTS" xmlns="http://www.w3.org/2000/svg" xmlns:xlink="http://www.w3.org/1999/xlink" x="0px" y="0px"
	 viewBox="0 0 21.85 33.37" style="enable-background:new 0 0 21.85 33.37;" xml:space="preserve">
<style type="text/css">
	.st0{fill:#CFCFCF;}
</style>
<g>
	<path class="st0" d="M18.26,0H3.6C1.61,0,0,1.61,0,3.6v26.18c0,1.98,1.61,3.6,3.6,3.6h14.66c1.98,0,3.6-1.61,3.6-3.6V3.6
		C21.85,1.61,20.24,0,18.26,0L18.26,0z M3.6,1.96h14.66c0.9,0,1.64,0.74,1.64,1.64v19.44H1.96V3.6C1.96,2.69,2.69,1.96,3.6,1.96
		L3.6,1.96z M18.26,31.42H3.6c-0.9,0-1.64-0.74-1.64-1.64V25H19.9v4.78C19.9,30.68,19.16,31.42,18.26,31.42L18.26,31.42z
		 M18.26,31.42 M10.93,25.66c-1.41,0-2.55,1.14-2.55,2.55c0,1.41,1.14,2.55,2.55,2.55c1.41,0,2.55-1.14,2.55-2.55
		C13.48,26.8,12.33,25.66,10.93,25.66L10.93,25.66z M10.93,28.8c-0.33,0-0.59-0.27-0.59-0.59c0-0.33,0.27-0.59,0.59-0.59
		c0.33,0,0.59,0.27,0.59,0.59C11.52,28.53,11.25,28.8,10.93,28.8L10.93,28.8z M10.93,28.8"/>
</g>
</svg>
