<svg xmlns="http://www.w3.org/2000/svg" width="44" height="54" viewBox="0 0 44 54">
  <defs>
    <style>
      .cls-1 {
        fill: #fff;
        fill-rule: evenodd;
      }
    </style>
  </defs>
  <path id="아이콘_전화걸기" class="cls-1" d="M0.961,0.959V53.971H43.981V0.959H0.961ZM26.4,50.974H18.54a1.407,1.407,0,0,1,0-2.814H26.4A1.407,1.407,0,0,1,26.4,50.974Zm12.336-6.717H6.2V6.132H38.739V44.257ZM26.158,13.012l2.706,1.625a4.769,4.769,0,0,1,1.622,5.623S26.31,31.251,19.864,35.731c0,0-2.224,1.87-4.3.977l-3.387-2.575,3.872-4.875,2.208,1.754s3.734-2.138,7.616-11.129l-2.395-1.239Z"/>
</svg>
