<?xml version="1.0" encoding="utf-8"?>
<!-- Generator: Adobe Illustrator 24.2.0, SVG Export Plug-In . SVG Version: 6.00 Build 0)  -->
<svg version="1.1" id="격리_모드" xmlns="http://www.w3.org/2000/svg" xmlns:xlink="http://www.w3.org/1999/xlink" x="0px"
	 y="0px" viewBox="0 0 35.64 25.95" style="enable-background:new 0 0 35.64 25.95;" xml:space="preserve">
<style type="text/css">
	.st0{fill:#FFFFFF;}
</style>
<g>
	<g>
		<path class="st0" d="M34.97,0.01c-0.03,0-0.05,0-0.08,0v0L20.59,1.74L6.3,0.01C5.94-0.04,5.6,0.22,5.56,0.59
			c0,0.03-0.01,0.06-0.01,0.09v9.81c-2.06,2.27-2.15,5.7-0.21,8.07l-5.1,5.09c-0.28,0.24-0.31,0.67-0.07,0.95
			c0.24,0.28,0.67,0.31,0.95,0.07c0.02-0.02,0.05-0.05,0.07-0.07l4.36-4.36v3.31c0,0.34,0.25,0.63,0.59,0.67l14.39,1.74h0.16
			l14.36-1.74c0.34-0.04,0.6-0.33,0.59-0.67V0.68C35.64,0.31,35.34,0.01,34.97,0.01z M6.65,11.26c0.02-0.02,0.03-0.03,0.04-0.04
			c1.89-1.88,4.95-1.88,6.83,0c1.89,1.89,1.88,4.94,0,6.83c-1.89,1.88-4.93,1.88-6.83,0C4.8,16.18,4.79,13.14,6.65,11.26z
			 M19.92,24.52L6.89,22.94v-3.06c2.91,1.78,6.7,0.87,8.49-2.04c1.78-2.9,0.86-6.71-2.04-8.48c-1.98-1.21-4.46-1.21-6.44,0V1.43
			l13.03,1.58V24.52z M34.29,22.94l-13.03,1.58V3.02l13.03-1.58V22.94z"/>
		<path class="st0" d="M8.34,6.78h0.02l9.41,1.14h0.06c0.37,0.02,0.69-0.26,0.71-0.63c0.02-0.37-0.26-0.69-0.63-0.71l-9.4-1.14
			C8.14,5.39,7.8,5.66,7.76,6.03C7.71,6.39,7.98,6.73,8.34,6.78z"/>
		<path class="st0" d="M23.08,7.92h0.08l9.41-1.14c0.37-0.05,0.64-0.38,0.6-0.75c-0.05-0.37-0.39-0.64-0.76-0.59L23,6.58
			c-0.37,0.02-0.66,0.34-0.63,0.71C22.39,7.66,22.71,7.94,23.08,7.92z"/>
		<path class="st0" d="M23.08,13.58h0.08l9.41-1.14c0.37-0.04,0.64-0.38,0.6-0.75c-0.05-0.37-0.39-0.64-0.76-0.59L23,12.24
			c-0.37,0.02-0.66,0.34-0.63,0.71C22.39,13.32,22.71,13.6,23.08,13.58z"/>
		<path class="st0" d="M23.08,19.24h0.08l9.41-1.14c0.37-0.04,0.64-0.38,0.6-0.76c-0.05-0.37-0.39-0.64-0.76-0.59L23,17.9
			c-0.37,0.02-0.66,0.34-0.63,0.71C22.39,18.98,22.71,19.26,23.08,19.24z"/>
	</g>
</g>
</svg>
