<?xml version="1.0" encoding="utf-8"?>
<!-- Generator: Adobe Illustrator 24.2.0, SVG Export Plug-In . SVG Version: 6.00 Build 0)  -->
<svg version="1.1" id="믿펔_4" xmlns="http://www.w3.org/2000/svg" xmlns:xlink="http://www.w3.org/1999/xlink" x="0px" y="0px"
	 viewBox="0 0 14.85 15.15" style="enable-background:new 0 0 14.85 15.15;" xml:space="preserve">
<style type="text/css">
	.st0{fill:#FFFFFF;}
</style>
<g>
	<path class="st0" d="M11.34,13.44c-1.76,1.46-4.37,1.39-6.02-0.26L1.95,9.82C0.31,8.17,0.24,5.56,1.7,3.8L1.5,3.6
		C1.41,3.51,1.35,3.39,1.28,3.28c-1.77,2.01-1.72,5.09,0.21,7.01l3.37,3.36c1,1,2.32,1.5,3.63,1.5c1.22,0,2.44-0.45,3.41-1.32
		c-0.17-0.07-0.34-0.18-0.48-0.32L11.34,13.44z"/>
	<path class="st0" d="M3.93,6.03C3.65,7.08,3.86,8.14,4.58,8.86l1.86,1.86c0.72,0.72,1.78,0.93,2.83,0.65l-0.56-0.56
		c-0.69,0.09-1.34-0.09-1.8-0.55L5.04,8.4C4.58,7.93,4.4,7.25,4.5,6.55C4.46,6.52,4.4,6.5,4.36,6.46L3.93,6.03z"/>
	<path class="st0" d="M1.5,3.01c-0.17-0.41-0.1-0.9,0.23-1.23c0.44-0.44,1.15-0.44,1.58,0l2.86,2.86c0.44,0.44,0.44,1.15,0,1.58
		c-0.44,0.44-1.15,0.44-1.58,0L4.57,6.21C4.54,6.32,4.51,6.44,4.5,6.55c0.26,0.21,0.57,0.33,0.89,0.33c0.37,0,0.74-0.14,1.03-0.42
		c0.56-0.57,0.56-1.48,0-2.05L3.55,1.55c-0.57-0.56-1.48-0.56-2.05,0C1.23,1.83,1.08,2.19,1.08,2.58c0,0.25,0.09,0.49,0.21,0.7
		C1.36,3.19,1.41,3.1,1.5,3.01C1.49,3.02,1.5,3.02,1.5,3.01z"/>
	<path class="st0" d="M4.05,5.68L1.91,3.54C1.83,3.62,1.77,3.72,1.7,3.8l2.23,2.23C3.96,5.91,4.01,5.8,4.05,5.68z"/>
	<path class="st0" d="M4.05,5.68C4.01,5.8,3.96,5.91,3.93,6.03l0.43,0.43C4.4,6.5,4.46,6.52,4.5,6.55c0.02-0.12,0.04-0.23,0.07-0.35
		L4.05,5.68z"/>
	<path class="st0" d="M1.7,3.8c0.07-0.08,0.13-0.18,0.21-0.26L1.73,3.37c-0.1-0.1-0.18-0.23-0.23-0.35c0,0-0.01,0-0.01,0.01
		C1.41,3.1,1.36,3.19,1.28,3.28C1.35,3.39,1.41,3.51,1.5,3.6L1.7,3.8z"/>
	<path class="st0" d="M4.19,5.36L2.15,3.32c-0.06,0.06-0.14,0.11-0.2,0.17C1.94,3.51,1.93,3.53,1.91,3.54l2.14,2.14
		C4.09,5.58,4.14,5.47,4.19,5.36z"/>
	<path class="st0" d="M1.73,2.58c0-0.21,0.08-0.41,0.23-0.56c0.15-0.15,0.36-0.23,0.56-0.23s0.4,0.08,0.56,0.23l2.86,2.86
		c0.31,0.31,0.31,0.81,0,1.12C5.64,6.31,5.14,6.31,4.83,6L4.69,5.86C4.64,5.97,4.6,6.09,4.57,6.21L4.6,6.23
		c0.44,0.44,1.15,0.44,1.58,0c0.44-0.44,0.44-1.15,0-1.58L3.32,1.78c-0.44-0.44-1.15-0.44-1.58,0C1.4,2.12,1.32,2.61,1.5,3.01
		c0.09-0.09,0.18-0.16,0.27-0.24C1.76,2.71,1.73,2.64,1.73,2.58z"/>
	<path class="st0" d="M2.15,3.32L1.97,3.14c-0.1-0.1-0.16-0.23-0.19-0.36C1.68,2.85,1.58,2.93,1.5,3.01
		c0.05,0.13,0.13,0.25,0.23,0.35l0.18,0.18c0.02-0.02,0.03-0.04,0.05-0.06C2.01,3.43,2.09,3.38,2.15,3.32z"/>
	<path class="st0" d="M4.19,5.36c-0.05,0.11-0.1,0.22-0.14,0.33l0.52,0.52C4.6,6.09,4.64,5.97,4.69,5.86L4.19,5.36z"/>
	<path class="st0" d="M10.6,8.6c-0.57-0.56-1.49-0.56-2.05,0C8.28,8.88,8.13,9.24,8.13,9.63c0,0.39,0.15,0.75,0.42,1.02l0.16,0.16
		c0.13-0.02,0.26-0.04,0.39-0.08l-0.31-0.31c-0.44-0.44-0.44-1.15,0-1.58c0.44-0.44,1.15-0.44,1.58,0l2.86,2.86
		c0.44,0.44,0.44,1.15,0,1.58c-0.28,0.28-0.67,0.36-1.04,0.28c-0.03,0.03-0.05,0.06-0.08,0.09c-0.07,0.07-0.15,0.12-0.22,0.18
		c0.17,0.07,0.36,0.11,0.55,0.11c0.37,0,0.74-0.14,1.02-0.42c0.27-0.27,0.42-0.64,0.42-1.03c0-0.39-0.15-0.75-0.42-1.02L10.6,8.6z"
		/>
	<path class="st0" d="M9.27,11.37l2.07,2.07c0.08-0.07,0.18-0.13,0.26-0.21l-1.98-1.98C9.5,11.29,9.39,11.34,9.27,11.37z"/>
	<path class="st0" d="M12.19,13.56c-0.2-0.04-0.39-0.12-0.55-0.28l-0.05-0.05c-0.08,0.08-0.17,0.14-0.26,0.21l0.08,0.08
		c0.14,0.14,0.3,0.25,0.48,0.32c0.07-0.06,0.15-0.11,0.22-0.18C12.14,13.62,12.17,13.59,12.19,13.56z"/>
	<path class="st0" d="M9.62,11.25L9.1,10.73c-0.13,0.04-0.26,0.06-0.39,0.08l0.56,0.56C9.39,11.34,9.5,11.29,9.62,11.25z"/>
	<path class="st0" d="M11.82,12.99l-1.87-1.87c-0.11,0.05-0.22,0.1-0.33,0.14l1.98,1.98c0.02-0.02,0.04-0.03,0.06-0.05
		C11.71,13.13,11.76,13.05,11.82,12.99z"/>
	<path class="st0" d="M9.02,10.19c-0.31-0.31-0.31-0.81,0-1.12c0.15-0.15,0.36-0.23,0.56-0.23c0.2,0,0.4,0.08,0.56,0.23L13,11.93
		c0.15,0.15,0.23,0.35,0.23,0.56S13.15,12.9,13,13.05c-0.15,0.15-0.35,0.23-0.55,0.23c-0.08,0.1-0.17,0.19-0.25,0.28
		c0.36,0.08,0.75,0,1.04-0.28c0.44-0.44,0.44-1.15,0-1.58l-2.86-2.86c-0.44-0.44-1.15-0.44-1.58,0c-0.44,0.44-0.44,1.15,0,1.58
		l0.31,0.31c0.12-0.03,0.23-0.07,0.35-0.12L9.02,10.19z"/>
	<path class="st0" d="M11.88,13.05l-0.06-0.06c-0.06,0.06-0.11,0.14-0.17,0.2c-0.02,0.02-0.04,0.03-0.06,0.05l0.05,0.05
		c0.16,0.15,0.35,0.23,0.55,0.28c0.09-0.09,0.17-0.18,0.25-0.28C12.24,13.28,12.04,13.21,11.88,13.05z"/>
	<path class="st0" d="M9.94,11.11l-0.5-0.5c-0.12,0.05-0.23,0.08-0.35,0.12l0.52,0.52C9.73,11.21,9.84,11.17,9.94,11.11z"/>
	<path class="st0" d="M13.26,1.59C12.19,0.53,10.8,0,9.41,0C8.97,0,8.52,0.06,8.09,0.16C7.92,0.2,7.81,0.38,7.85,0.56
		C7.9,0.74,8.08,0.84,8.25,0.8v0C8.63,0.7,9.02,0.66,9.41,0.66c1.23,0,2.45,0.47,3.39,1.4c0.93,0.93,1.4,2.16,1.4,3.38
		c0,0.39-0.05,0.78-0.14,1.16c-0.04,0.18,0.06,0.35,0.24,0.4c0.03,0.01,0.05,0.01,0.08,0.01c0.15,0,0.28-0.1,0.32-0.25
		c0.11-0.44,0.16-0.88,0.16-1.32C14.85,4.05,14.32,2.66,13.26,1.59z"/>
	<path class="st0" d="M12.14,7.07c0.03,0.01,0.05,0.01,0.08,0.01c0.15,0,0.28-0.1,0.32-0.25c0.07-0.29,0.11-0.59,0.11-0.88
		c0-0.94-0.36-1.87-1.07-2.59c-0.71-0.71-1.65-1.07-2.59-1.07c-0.29,0-0.59,0.04-0.88,0.11c-0.18,0.04-0.28,0.22-0.24,0.4
		c0.04,0.18,0.22,0.29,0.4,0.24C8.5,2.97,8.74,2.94,8.98,2.94c0.77,0,1.53,0.29,2.12,0.88c0.59,0.59,0.88,1.35,0.88,2.12
		c0,0.24-0.03,0.49-0.09,0.73C11.85,6.84,11.96,7.02,12.14,7.07z"/>
	<path class="st0" d="M8.11,5.1c0.12-0.03,0.24-0.04,0.36-0.04c0.38,0,0.76,0.14,1.06,0.44c0.29,0.29,0.44,0.67,0.44,1.06
		c0,0.12-0.01,0.24-0.04,0.36c-0.04,0.18,0.06,0.35,0.24,0.4c0.03,0.01,0.05,0.01,0.08,0.01c0.15,0,0.28-0.1,0.32-0.25
		c0.04-0.17,0.06-0.35,0.06-0.52c0-0.55-0.21-1.1-0.63-1.52C9.57,4.6,9.02,4.39,8.47,4.39c-0.17,0-0.35,0.02-0.52,0.06
		C7.77,4.5,7.66,4.68,7.71,4.86C7.75,5.03,7.93,5.14,8.11,5.1z"/>
</g>
</svg>
