<?xml version="1.0" encoding="utf-8"?>
<!-- Generator: Adobe Illustrator 24.2.0, SVG Export Plug-In . SVG Version: 6.00 Build 0)  -->
<svg version="1.1" id="레이어_1" xmlns="http://www.w3.org/2000/svg" xmlns:xlink="http://www.w3.org/1999/xlink" x="0px"
	 y="0px" viewBox="0 0 52.61 48.17" style="enable-background:new 0 0 52.61 48.17;" xml:space="preserve">
<style type="text/css">
	.st0{fill:#C6C6C6;}
</style>
<g>
	<path class="st0" d="M22.36,9.25c-7.56,3.92-11.34,9.14-11.45,17.08c0.43-0.12,0.86-0.12,1.3-0.12c5.4,0,9.83,4.03,9.83,10.44
		c0,7-4.21,11.51-9.83,11.51C4.1,48.17,0,41.4,0,29.78C0,16.73,5.94,6.64,18.15,0L22.36,9.25z M52.61,9.25
		c-7.56,3.92-11.34,9.14-11.45,17.08c0.43-0.12,0.86-0.12,1.3-0.12c5.4,0,9.83,4.03,9.83,10.44c0,7-4.21,11.51-9.83,11.51
		c-8.1,0-12.21-6.76-12.21-18.39C30.25,16.73,36.19,6.64,48.4,0L52.61,9.25z"/>
</g>
</svg>
