<svg xmlns="http://www.w3.org/2000/svg" width="108" height="100" viewBox="0 0 108 100">
  <defs>
    <style>
      .cls-1 {
        fill: #28b6ff;
      }

      .cls-2, .cls-3 {
        fill: #fff;
      }

      .cls-2 {
        fill-rule: evenodd;
      }

      .cls-3 {
        font-size: 19.75px;
        text-anchor: middle;
        font-family: "Noto Sans CJK KR";
        font-weight: 700;
      }
    </style>
  </defs>
  <circle id="타원_731" data-name="타원 731" class="cls-1" cx="50" cy="50" r="50"/>
  <path id="모양_739" data-name="모양 739" class="cls-2" d="M68.907,8H32.092A3.27,3.27,0,0,0,29,11.4V78.59a3.272,3.272,0,0,0,3.093,3.4H68.907A3.273,3.273,0,0,0,72,78.59V11.4A3.271,3.271,0,0,0,68.907,8ZM46.15,11.43h8.67a0.537,0.537,0,0,1,.6.426,0.533,0.533,0,0,1-.6.423H46.15a0.532,0.532,0,0,1-.608-0.423A0.536,0.536,0,0,1,46.15,11.43Zm4.675,68.861a3.118,3.118,0,1,1,3.143-3.122A3.132,3.132,0,0,1,50.824,80.291ZM69.431,69a2.6,2.6,0,0,1-2.7,2.451H34.61A2.807,2.807,0,0,1,32.8,70.8,2.335,2.335,0,0,1,31.924,69V20.661A2.587,2.587,0,0,1,34.61,18.21H66.733a2.832,2.832,0,0,1,1.939.759,2.324,2.324,0,0,1,.759,1.692V69Z"/>
  <rect id="사각형_740" data-name="사각형 740" class="cls-1" x="42" y="30" width="66" height="32"/>
  <text id="스마트북" class="cls-3" transform="translate(72.285 51.778) scale(0.912 0.911)"><tspan x="0">스마트북</tspan></text>
</svg>
