<?xml version="1.0" encoding="utf-8"?>
<!-- Generator: Adobe Illustrator 24.2.0, SVG Export Plug-In . SVG Version: 6.00 Build 0)  -->
<svg version="1.1" id="레이어_1" xmlns="http://www.w3.org/2000/svg" xmlns:xlink="http://www.w3.org/1999/xlink" x="0px"
	 y="0px" viewBox="0 0 71.44 67.62" style="enable-background:new 0 0 71.44 67.62;" xml:space="preserve">
<style type="text/css">
	.st0{fill:#CFCFCF;}
</style>
<g>
	<path class="st0" d="M32.89,67.62c-0.53,0-1.04-0.23-1.39-0.62c-0.48-0.54-0.61-1.31-0.33-1.98c0.02-0.04,1.5-3.56,2.34-7.63h-1.07
		c-3.63,0-7.04-1.41-9.59-3.97c-2.56-2.56-3.97-5.96-3.97-9.58v-5.32h-5.32c-3.62,0-7.03-1.41-9.59-3.98C1.41,31.97,0,28.57,0,24.95
		V13.56c0-3.62,1.41-7.03,3.97-9.59C6.53,1.41,9.93,0,13.56,0H39c3.63,0,7.04,1.41,9.59,3.97c2.56,2.56,3.97,5.97,3.97,9.59v5.32
		h5.32c3.63,0,7.04,1.41,9.59,3.97c2.56,2.56,3.97,5.97,3.97,9.59v11.39c0,3.62-1.41,7.02-3.97,9.58c-2.55,2.56-5.96,3.97-9.59,3.97
		h-8.24c-3.54,4.56-8.99,7.97-16.21,10.14C33.25,67.59,33.07,67.62,32.89,67.62z M32.44,22.62c-2.63,0-5.1,1.02-6.95,2.87
		c-1.86,1.86-2.88,4.32-2.88,6.95v11.39c0,2.62,1.02,5.09,2.88,6.94c1.85,1.85,4.32,2.87,6.95,2.87h3.28c0.54,0,1.06,0.23,1.41,0.64
		c0.35,0.41,0.51,0.94,0.44,1.47c-0.34,2.54-1,5.02-1.6,6.91c4.95-2.03,8.8-4.86,11.19-8.24c0.35-0.49,0.92-0.79,1.53-0.79h9.18
		c2.63,0,5.1-1.02,6.95-2.87c1.86-1.86,2.88-4.32,2.88-6.94V32.44c0-2.63-1.02-5.09-2.88-6.95c-1.85-1.85-4.31-2.87-6.95-2.87H32.44
		z M13.56,3.74c-2.63,0-5.1,1.02-6.95,2.87c-1.86,1.86-2.88,4.33-2.88,6.95v11.39c0,2.62,1.02,5.09,2.88,6.94
		c1.85,1.86,4.32,2.89,6.95,2.89h5.32v-2.33c0-3.62,1.41-7.03,3.97-9.59c2.55-2.56,5.96-3.97,9.59-3.97h16.38v-5.32
		c0-2.61-1.01-5.06-2.84-6.91c-0.01-0.01-0.03-0.02-0.04-0.04C44.1,4.76,41.63,3.74,39,3.74H13.56z"/>
	<path class="st0" d="M67.07,23.25c-2.44-2.45-5.71-3.8-9.19-3.8h-5.89v-5.89c0-3.47-1.35-6.73-3.81-9.19
		c-2.44-2.45-5.71-3.8-9.19-3.8H13.56c-3.48,0-6.74,1.35-9.19,3.8c-2.46,2.46-3.81,5.72-3.81,9.19v11.39c0,3.47,1.35,6.73,3.81,9.18
		c2.45,2.46,5.71,3.81,9.19,3.81h5.88v5.89c0,3.47,1.35,6.73,3.81,9.18c2.44,2.45,5.71,3.8,9.19,3.8h1.76
		c-0.82,4.39-2.49,8.37-2.51,8.42c-0.2,0.46-0.1,1,0.23,1.38c0.25,0.28,0.6,0.43,0.97,0.43c0.13,0,0.25-0.02,0.37-0.06
		c7.22-2.18,12.63-5.59,16.09-10.17h8.52c3.48,0,6.74-1.35,9.19-3.8c2.45-2.46,3.81-5.72,3.81-9.18V32.44
		C70.87,28.97,69.52,25.71,67.07,23.25z M68.27,43.84c0,2.77-1.08,5.38-3.04,7.34c-1.95,1.96-4.56,3.04-7.35,3.04H48.7
		c-0.42,0-0.82,0.2-1.06,0.55c-2.66,3.76-6.97,6.79-12.57,8.88c0.69-2.01,1.55-4.95,1.95-7.95c0.05-0.37-0.06-0.74-0.31-1.03
		c-0.25-0.29-0.61-0.44-0.98-0.44h-3.28c-2.78,0-5.39-1.08-7.35-3.04c-1.96-1.96-3.05-4.57-3.05-7.34v-5.89v-2.6v-2.9
		c0-2.78,1.08-5.39,3.05-7.35c1.95-1.96,4.56-3.04,7.35-3.04h16.95h2.6h5.89c2.78,0,5.39,1.08,7.35,3.04
		c1.96,1.96,3.04,4.57,3.04,7.35V43.84z M13.56,35.34c-2.78,0-5.39-1.09-7.35-3.05c-1.96-1.96-3.05-4.57-3.05-7.34V13.56
		c0-2.77,1.08-5.38,3.05-7.35c1.95-1.96,4.56-3.04,7.35-3.04H39c2.78,0,5.39,1.08,7.34,3.04c0,0,0,0,0,0
		c1.96,1.96,3.05,4.57,3.05,7.35v5.89H32.44c-3.48,0-6.74,1.35-9.19,3.8c-2.46,2.46-3.81,5.72-3.81,9.19v2.9H13.56z"/>
	<path class="st0" d="M34.46,33.86c-1.03,0-1.88-0.84-1.88-1.87c0-1.03,0.84-1.87,1.88-1.87h22.6c1.03,0,1.86,0.84,1.86,1.87
		c0,1.03-0.83,1.87-1.86,1.87H34.46z"/>
	<path class="st0" d="M34.46,33.29h10.67h3.74h8.19c0.71,0,1.29-0.59,1.29-1.31c0-0.72-0.58-1.31-1.29-1.31h-6.45h-2.94h-13.2
		c-0.71,0-1.31,0.59-1.31,1.31C33.15,32.7,33.75,33.29,34.46,33.29z"/>
	<path class="st0" d="M34.47,45.12c-0.9,0-1.65-0.67-1.8-1.58c-0.03-0.07-0.07-0.17-0.07-0.29c0-1.03,0.84-1.87,1.88-1.87h22.59
		c1.03,0,1.87,0.84,1.87,1.87c0,1.03-0.84,1.88-1.87,1.88H34.47z"/>
	<path class="st0" d="M57.06,41.94H38.24h-2.71h-1.07c-0.71,0-1.31,0.58-1.31,1.3c0,0.05,0.05,0.08,0.05,0.12
		c0.07,0.65,0.59,1.18,1.26,1.18h1.43h0.41h2.76h17.98c0.73,0,1.31-0.59,1.31-1.31C58.36,42.52,57.78,41.94,57.06,41.94z"/>
</g>
</svg>
