<svg xmlns="http://www.w3.org/2000/svg" width="108" height="100" viewBox="0 0 108 100">
  <defs>
    <style>
      .cls-1 {
        fill: #fdc140;
      }

      .cls-2, .cls-3 {
        fill: #fff;
      }

      .cls-2 {
        fill-rule: evenodd;
      }

      .cls-3 {
        font-size: 19.75px;
        text-anchor: middle;
        font-family: "Noto Sans CJK KR";
        font-weight: 700;
      }
    </style>
  </defs>
  <circle id="타원_731" data-name="타원 731" class="cls-1" cx="50" cy="50" r="50"/>
  <path id="모양_750" data-name="모양 750" class="cls-2" d="M19.6,38.461a5.284,5.284,0,0,1,1.2-.14l23.552,7.6,1.007,0.044L87.4,36.311a1.81,1.81,0,0,0,1.381-2.177,1.859,1.859,0,0,0-2.231-1.348l-40.48,9.293V35.93a1.175,1.175,0,0,0-2.35,0v5.976L19.16,33.981a4.94,4.94,0,0,1-.13-9.377c0.086-.031.177-0.052,0.266-0.079l25.533,7.09a1.9,1.9,0,0,0,.893.029l41.794-8.662a1.8,1.8,0,0,0,.067-3.525l-26.2-6.435A1.9,1.9,0,0,0,60.58,13L18.913,20.857a1.87,1.87,0,0,0-.361.11c-0.276.071-.549,0.147-0.814,0.244A8.646,8.646,0,0,0,12,29.27a8.53,8.53,0,0,0,3.722,7.01,8.469,8.469,0,0,0,0,14.026A8.511,8.511,0,0,0,12,57.322a8.622,8.622,0,0,0,5.978,8.141l26.368,8.508,1.007,0.044L87.4,64.363a1.809,1.809,0,0,0,1.381-2.176,1.857,1.857,0,0,0-2.231-1.348l-40.48,9.293V64.2a1.175,1.175,0,0,0-2.35,0v5.756L19.16,62.033a4.946,4.946,0,0,1,.437-9.546,5.278,5.278,0,0,1,1.2-.14l23.552,7.6,1.007,0.044L87.4,50.337a1.809,1.809,0,0,0,1.381-2.177,1.858,1.858,0,0,0-2.231-1.348l-40.48,9.293V50.065a1.175,1.175,0,0,0-2.35,0v5.867L19.16,48.007A4.947,4.947,0,0,1,19.6,38.461Z"/>
  <rect id="사각형_740" data-name="사각형 740" class="cls-1" x="61" y="30" width="48" height="27"/>
  <text id="전집" class="cls-3" transform="translate(84.285 50.778) scale(0.912 0.911)"><tspan x="0">전집</tspan></text>
</svg>
