<?xml version="1.0" encoding="utf-8"?>
<!-- Generator: Adobe Illustrator 24.2.0, SVG Export Plug-In . SVG Version: 6.00 Build 0)  -->
<svg version="1.1" id="OBJECTS" xmlns="http://www.w3.org/2000/svg" xmlns:xlink="http://www.w3.org/1999/xlink" x="0px" y="0px"
	 viewBox="0 0 37.62 28.66" style="enable-background:new 0 0 37.62 28.66;" xml:space="preserve">
<style type="text/css">
	.st0{fill:#CFCFCF;}
</style>
<g>
	<path class="st0" d="M34.32,0H3.31C1.49,0,0,1.48,0,3.31v22.04c0,1.82,1.48,3.31,3.31,3.31h31.01c1.82,0,3.31-1.48,3.31-3.31V3.31
		C37.62,1.49,36.14,0,34.32,0L34.32,0z M33.86,2.2L18.88,17.18L3.77,2.2H33.86z M2.2,24.89V3.75l10.62,10.53L2.2,24.89z M3.76,26.45
		l10.62-10.62l3.72,3.69c0.43,0.43,1.13,0.43,1.56,0l3.63-3.63l10.57,10.57H3.76z M35.42,24.89L24.85,14.33L35.42,3.76V24.89z
		 M35.42,24.89"/>
</g>
</svg>
