<?xml version="1.0" encoding="utf-8"?>
<!-- Generator: Adobe Illustrator 24.2.2, SVG Export Plug-In . SVG Version: 6.00 Build 0)  -->
<svg version="1.1" id="레이어_1" xmlns="http://www.w3.org/2000/svg" xmlns:xlink="http://www.w3.org/1999/xlink" x="0px"
	 y="0px" viewBox="0 0 22.15 22.59" style="enable-background:new 0 0 22.15 22.59;" xml:space="preserve">
<style type="text/css">
	.st0{fill:#333333;}
</style>
<g>
	<path class="st0" d="M15.94,22.13c-0.58,0.26-1.56,0.46-2.71,0.46c-3.43,0-5.78-1.85-6.86-4.37C2.54,17.57,0,14.21,0,9.1
		C0,3.41,3.14,0,7.68,0c4.54,0,7.7,3.41,7.7,9.1c0,4.97-2.42,8.28-6.05,9.05c0.79,1.49,2.42,2.16,4.2,2.16
		c0.77,0,1.39-0.12,1.87-0.26L15.94,22.13z M7.68,16.03c2.93,0,4.85-2.66,4.85-6.94c0-4.15-1.92-6.67-4.85-6.67S2.86,4.94,2.86,9.1
		C2.86,13.37,4.75,16.03,7.68,16.03z"/>
	<path class="st0" d="M18.46,16.39c0-1.13,0.82-1.97,1.85-1.97c1.03,0,1.85,0.84,1.85,1.97c0,1.13-0.82,1.92-1.85,1.92
		C19.27,18.31,18.46,17.52,18.46,16.39z"/>
</g>
</svg>
