<svg xmlns="http://www.w3.org/2000/svg" width="69" height="54" viewBox="0 0 69 54">
  <defs>
    <style>
      .cls-1 {
        fill: #cfcfcf;
        fill-rule: evenodd;
      }
    </style>
  </defs>
  <path id="모양_1" data-name="모양 1" class="cls-1" d="M69,3.258a2.369,2.369,0,0,0-2.43-2.3H46.526a28.536,28.536,0,0,0-8.272.891A10.036,10.036,0,0,0,34.5,3.876a10.035,10.035,0,0,0-3.754-2.029A28.537,28.537,0,0,0,22.474.956H2.43A2.369,2.369,0,0,0,0,3.258V48.836a2.368,2.368,0,0,0,2.43,2.3H22.474a45.5,45.5,0,0,1,6.392.323c2.753,0.413,3.187,1.1,3.189,1.1a2.438,2.438,0,0,0,2.223,1.374h0.444a2.438,2.438,0,0,0,2.223-1.373c0-.007.437-0.691,3.19-1.1a45.5,45.5,0,0,1,6.392-.323H66.57a2.368,2.368,0,0,0,2.43-2.3V3.258h0ZM46.526,5.56H64.141V38.938H46.526a28.538,28.538,0,0,0-8.272.891,12.209,12.209,0,0,0-1.324.493V9.473C36.93,6.621,39.531,5.56,46.526,5.56Zm-41.667,0h7.167V18.451a2.433,2.433,0,0,0,4.859,0V5.56h5.588c7,0,9.6,1.06,9.6,3.913V40.322a12.218,12.218,0,0,0-1.325-.493,28.539,28.539,0,0,0-8.272-.891H4.859V5.56ZM22.474,46.535H4.859V43.542H22.474c6.995,0,9.6,1.06,9.6,3.913C29.031,46.538,25.2,46.535,22.474,46.535Zm24.053,0c-2.726,0-6.557,0-9.6.92,0-2.853,2.6-3.913,9.6-3.913H64.141v2.993H46.526Z"/>
</svg>
