<?xml version="1.0" encoding="utf-8"?>
<!-- Generator: Adobe Illustrator 24.3.0, SVG Export Plug-In . SVG Version: 6.00 Build 0)  -->
<svg version="1.1" id="Layer_1" xmlns="http://www.w3.org/2000/svg" xmlns:xlink="http://www.w3.org/1999/xlink" x="0px" y="0px"
	 viewBox="0 0 28 28" style="enable-background:new 0 0 28 28;" xml:space="preserve">
<style type="text/css">
	.st0{fill-rule:evenodd;clip-rule:evenodd;fill:#333333;}
	.st1{fill:none;stroke:#333333;stroke-width:2;}
</style>
<path id="화살표_복사" class="st0" d="M14.1,8c0.1,0,0.2,0,0.3,0.1l5.5,5.5c0.2,0.2,0.2,0.5,0,0.6c-0.2,0.2-0.5,0.2-0.6,0
	c0,0,0,0,0,0l-5.5-5.5c-0.2-0.2-0.2-0.5,0-0.6C13.8,8,13.9,8,14.1,8z M19.5,13.6c0.1,0,0.2,0,0.3,0.1c0.2,0.2,0.2,0.5,0,0.6
	l-5.5,5.5c-0.2,0.2-0.5,0.2-0.6,0c0,0,0,0,0,0c-0.2-0.2-0.2-0.5,0-0.6l5.5-5.5C19.3,13.6,19.4,13.6,19.5,13.6z M8.4,13.5h10.5
	c0.2,0,0.5,0.2,0.5,0.4s-0.2,0.4-0.5,0.4H8.4C8.2,14.4,8,14.2,8,14S8.2,13.5,8.4,13.5z"/>
<circle id="타원_2_복사" class="st1" cx="14" cy="14" r="13"/>
</svg>
