<svg xmlns="http://www.w3.org/2000/svg" width="29.383" height="23.895" viewBox="0 0 29.383 23.895">
    <g>
        <path fill="#fff" d="M18.416 3.515L15.621.72a2.351 2.351 0 0 0-3.278-.1L1.057 11.9a.922.922 0 0 0-.239.364.565.565 0 0 0-.081.225l-.484 3.363-.237 1.641a1.424 1.424 0 0 0 .4 1.222 1.423 1.423 0 0 0 1.222.407l1.822-.262 3.194-.46a.614.614 0 0 0 .213-.08.908.908 0 0 0 .368-.241L18.52 6.793a2.351 2.351 0 0 0-.104-3.278zm-7.384-.138l1.112 1.113L3.1 13.532l-1.111-1.113zm1.837 1.838l1.1 1.1-9.04 9.04-1.1-1.1zM1.5 18.106a.408.408 0 0 1-.351-.116.4.4 0 0 1-.116-.348l.159-1.1h.013l.208.1.016.01c.067.039.133.08.2.124l.013.008a2.914 2.914 0 0 1 .713.714l.007.01a2.158 2.158 0 0 1 .125.2l.01.015c.037.068.073.138.1.21v.011zm2.142-.306l-.01-.028-.026-.072c-.021-.055-.044-.111-.067-.164l-.033-.073q-.039-.085-.083-.166l-.023-.05c-.039-.072-.081-.143-.125-.212l-.028-.042c-.036-.055-.073-.109-.112-.163l-.049-.063c-.036-.047-.073-.094-.112-.14l-.049-.057c-.055-.063-.112-.125-.172-.184s-.12-.117-.184-.172l-.059-.049c-.046-.039-.091-.076-.138-.112L2.3 16c-.052-.039-.106-.076-.159-.112l-.041-.025c-.07-.044-.14-.085-.21-.124l-.057-.029c-.054-.028-.109-.055-.164-.081L1.6 15.6c-.055-.024-.109-.046-.164-.067l-.065-.024-.031-.009.286-1.99 4.005 4.005zm3.075-.651l-1.061-1.063L14.7 7.044 15.759 8.1zM17.8 6.069L16.483 7.38l-4.728-4.727 1.313-1.311a1.347 1.347 0 0 1 1.829.1l2.795 2.8a1.349 1.349 0 0 1 .108 1.827z" transform="translate(-1235 -141.296) rotate(-17 1111.68 -4076.707)"/>
        <path fill="none" stroke="#fff" stroke-linecap="round" d="M0 0L11.748 0" transform="translate(-1235 -141.296) translate(1235.5 164.341)"/>
    </g>
</svg>
