<svg xmlns="http://www.w3.org/2000/svg" width="38" height="67" viewBox="0 0 38 67">
  <defs>
    <style>
      .cls-1 {
        fill: #269bd7;
        fill-rule: evenodd;
      }
    </style>
  </defs>
  <path id="모양_4" data-name="모양 4" class="cls-1" d="M38,48.714A17.573,17.573,0,0,1,32.74,61.778q-5.258,5.18-14.479,5.179-8.67,0-12.958-3.621A14.964,14.964,0,0,1,0,55.04H6.179a12.5,12.5,0,0,0,1.153,2.8A9.522,9.522,0,0,0,9.5,60.449a11.853,11.853,0,0,0,3.458,1.833,15.454,15.454,0,0,0,5.118.734q6.73,0,10.283-3.989T31.91,48.256a12.919,12.919,0,0,0-1.66-6.784,14.064,14.064,0,0,0-4.058-4.4A17.443,17.443,0,0,0,20.8,34.688a22.163,22.163,0,0,0-5.4-.734V30.379a25.237,25.237,0,0,0,7.008-1.008A10.313,10.313,0,0,0,27.3,26.8a20.005,20.005,0,0,0,2.628-4.034,13.5,13.5,0,0,0,1.061-5.409,11.65,11.65,0,0,0-3.643-9.213A12.464,12.464,0,0,0,18.63,4.709Q12.542,4.709,9.868,7a10.118,10.118,0,0,0-3.412,5.593H1.015a11.7,11.7,0,0,1,1.43-3.8,13.425,13.425,0,0,1,3.273-3.8,17.8,17.8,0,0,1,5.3-2.888A22.205,22.205,0,0,1,18.537.951a20.576,20.576,0,0,1,6.594,1.1,18.507,18.507,0,0,1,5.856,3.209,15.541,15.541,0,0,1,4.2,5.088A14.655,14.655,0,0,1,36.8,17.269a12.652,12.652,0,0,1-1.153,5.409,14.875,14.875,0,0,1-3,4.309A17.8,17.8,0,0,1,28.5,30.058a16.571,16.571,0,0,1-4.611,1.7V32.3a19.367,19.367,0,0,1,4.887,1.467,14.971,14.971,0,0,1,4.519,3.117,16.649,16.649,0,0,1,3.366,4.951A16.462,16.462,0,0,1,38,48.714Z"/>
</svg>
