<?xml version="1.0" encoding="utf-8"?>
<!-- Generator: Adobe Illustrator 24.2.0, SVG Export Plug-In . SVG Version: 6.00 Build 0)  -->
<svg version="1.1" id="격리_모드" xmlns="http://www.w3.org/2000/svg" xmlns:xlink="http://www.w3.org/1999/xlink" x="0px"
	 y="0px" viewBox="0 0 9.76 10" style="enable-background:new 0 0 9.76 10;" xml:space="preserve">
<style type="text/css">
	.st0{fill:#999999;}
</style>
<g>
	<path class="st0" d="M8.59,4.17c-0.1-0.51-0.3-0.99-0.58-1.4l0.83-0.83L7.83,0.93L7,1.76C6.58,1.47,6.11,1.27,5.6,1.18V0H4.17v1.18
		c-0.51,0.1-0.99,0.3-1.4,0.58L1.93,0.93L0.93,1.93l0.83,0.83c-0.28,0.42-0.48,0.89-0.58,1.4H0v0.99v0.67h1.18
		c0.1,0.51,0.3,0.99,0.58,1.4L0.93,8.07l1.01,1.01l0.83-0.83c0.42,0.28,0.89,0.48,1.4,0.58V10H5.6V8.82c0.51-0.1,0.99-0.3,1.4-0.58
		l0.83,0.83l1.01-1.01L8.01,7.24c0.28-0.42,0.48-0.89,0.58-1.4h1.18V5.16V4.17H8.59z M4.88,6.65C3.97,6.65,3.23,5.91,3.23,5
		c0-0.91,0.74-1.65,1.65-1.65c0.91,0,1.65,0.74,1.65,1.65C6.53,5.91,5.79,6.65,4.88,6.65z"/>
</g>
</svg>
