<svg xmlns="http://www.w3.org/2000/svg" width="70" height="70" viewBox="0 0 70 70">
  <defs>
    <style>
      .cls-1 {
        fill: none;
        stroke: #fff;
        stroke-width: 2px;
      }

      .cls-2 {
        fill: #fff;
        fill-rule: evenodd;
      }
    </style>
  </defs>
  <circle id="타원_537" data-name="타원 537" class="cls-1" cx="35" cy="35" r="35"/>
  <path id="모양_1" data-name="모양 1" class="cls-2" d="M44.472,45.517H24.6a1.145,1.145,0,0,1-.79-0.312,14.563,14.563,0,0,1-4.615-10.64A15.148,15.148,0,0,1,34.535,19.653,15.148,15.148,0,0,1,49.88,34.564,14.565,14.565,0,0,1,45.263,45.2,1.15,1.15,0,0,1,44.472,45.517Zm-19.4-2.17H44a12.424,12.424,0,0,0,3.628-8.782,13.1,13.1,0,0,0-26.181,0A12.433,12.433,0,0,0,25.071,43.347Zm0.1,5.085a0.942,0.942,0,0,1-.95-0.926h0a0.934,0.934,0,0,1,.95-0.917H43.894a0.934,0.934,0,0,1,.953.917h0a0.942,0.942,0,0,1-.953.926H25.173Zm3.175,3.427a0.938,0.938,0,0,1-.95-0.922h0a0.934,0.934,0,0,1,.95-0.917H40.709a0.927,0.927,0,0,1,.95.917h0a0.93,0.93,0,0,1-.95.922H28.348Zm6.187,8.084c-2.556,0-5.014-1.7-7.306-5.048a1.045,1.045,0,0,1-.051-1.113,1.135,1.135,0,0,1,.992-0.568H40.9a1.135,1.135,0,0,1,.992.568,1.045,1.045,0,0,1-.05,1.113C39.553,58.243,37.1,59.943,34.535,59.943Zm-4.119-4.559c1.156,1.295,2.588,2.389,4.119,2.389s2.965-1.094,4.121-2.389h-8.24Zm4.119-44.252v0ZM33.405,16.78V11.131a1.11,1.11,0,0,1,1.124-1.094h0a1.119,1.119,0,0,1,1.134,1.094h0V16.78a1.119,1.119,0,0,1-1.134,1.094h0a1.11,1.11,0,0,1-1.124-1.094h0ZM11.067,34.289h0Zm0,1.085a1.108,1.108,0,0,1-1.124-1.09h0A1.1,1.1,0,0,1,11.062,33.2h5.873a1.1,1.1,0,0,1,1.124,1.085h0a1.106,1.106,0,0,1-1.124,1.09H11.062Zm9.375-20.308,4.148,4Zm3.347,4.759-4.15-4a1.053,1.053,0,0,1,0-1.532h0a1.158,1.158,0,0,1,1.594,0h0l4.15,4a1.054,1.054,0,0,1,0,1.532h0a1.141,1.141,0,0,1-.8.321h0a1.137,1.137,0,0,1-.8-0.321h0ZM12.976,22.838l5.338,2.337Zm4.869,3.329-5.338-2.346a1.077,1.077,0,0,1-.563-1.434h0a1.145,1.145,0,0,1,1.494-.54h0l5.336,2.333a1.075,1.075,0,0,1,.563,1.443h0a1.132,1.132,0,0,1-1.03.638h0a1.236,1.236,0,0,1-.462-0.093h0ZM58.9,34.289h0Zm-5.868,1.085a1.108,1.108,0,0,1-1.127-1.09h0A1.1,1.1,0,0,1,53.037,33.2h5.87a1.109,1.109,0,0,1,1.125,1.085h0a1.113,1.113,0,0,1-1.125,1.09h-5.87Zm-3.5-20.308-4.145,4Zm-4.946,4.759a1.053,1.053,0,0,1,0-1.532h0l4.15-4a1.157,1.157,0,0,1,1.593,0h0a1.053,1.053,0,0,1,0,1.532h0l-4.15,4a1.141,1.141,0,0,1-.8.321h0a1.133,1.133,0,0,1-.8-0.321h0ZM57,22.838l-5.338,2.337Zm-6.373,2.785a1.085,1.085,0,0,1,.564-1.443h0l5.338-2.333a1.136,1.136,0,0,1,1.492.54h0a1.072,1.072,0,0,1-.551,1.434h0l-5.338,2.346a1.259,1.259,0,0,1-.464.093h0a1.157,1.157,0,0,1-1.04-.638h0Z"/>
</svg>
