<?xml version="1.0" encoding="utf-8"?>
<!-- Generator: Adobe Illustrator 24.2.0, SVG Export Plug-In . SVG Version: 6.00 Build 0)  -->
<svg version="1.1" id="격리_모드" xmlns="http://www.w3.org/2000/svg" xmlns:xlink="http://www.w3.org/1999/xlink" x="0px"
	 y="0px" viewBox="0 0 80 80" style="enable-background:new 0 0 80 80;" xml:space="preserve">
<style type="text/css">
	.st0{fill:#F6F6F6;}
	.st1{opacity:0.8;fill:#CFCFCF;}
</style>
<g>
	<path class="st0" d="M22.41,66.41c1.44-0.41,2.79-1.02,4.12-1.69c0.61-0.31,0.93-0.77,1.13-1.41c0.37-1.17,0.57-2.38,0.94-3.55
		c0.12-0.6,0.53-0.55,1.02-0.55c0.49,0.01,0.97,0.55,1.46,0.03c0.94-2.69,0.17-5.09-1.26-7.37c-0.03-0.07-0.05-0.15-0.06-0.24
		c0-0.78-0.5-1.38-0.8-2.05c-0.26-0.82-0.57-1.63-0.76-2.48c-0.11-0.53-0.4-0.89-0.92-1.08c-0.63-0.23-0.94-0.65-1.07-1.37
		c-0.21-1.09-0.58-2.17-1.17-3.14c-0.38-1.15-0.71-2.31-1.03-3.47c-0.23-0.83-0.2-1.66-0.09-2.49c0.11-0.8,0.44-1.46,1.26-1.75
		c0.65-0.23,0.84-0.68,0.78-1.36c-0.1-1.22-0.11-2.46-0.46-3.65c0.01-1.41-0.38-2.82-0.07-4.23c0.04-0.08,0.09-0.15,0.15-0.22
		c0.05-0.04,0.09-0.06,0.14-0.08c-0.2-1.74,0.49-3.11,1.75-4.29c0.68-0.64,1.34-1.33,1.8-2.17c0.24-0.45,0.57-0.81,1-1.08
		c-0.01-0.04-0.01-0.07-0.03-0.1c3.78-3.23,8.12-4.32,12.98-3.34c2.34,0.47,4.67,1.01,6.82,2.1c2.54,1.29,4.55,3.17,6,5.62
		c0.75,1.27,0.91,2.72,1.07,4.15c0.07,0.6,0.12,1.2,0.18,1.8c0.03,0.05,0.02,0.08,0,0.12c0.03,0.05,0.04,0.12,0.02,0.19
		c-0.12,1.98-0.23,3.97-0.36,5.95c-0.03,0.5,0.07,0.82,0.64,0.96c0.61,0.16,0.92,0.68,0.94,1.31c0.02,0.45-0.02,0.9-0.04,1.35
		c0.03,0.03,0.07,0.06,0.11,0.08c0.06,0.07,0.1,0.14,0.12,0.22c0.02,0.21-0.04,0.42-0.03,0.63c-0.04,1.05-0.55,1.99-0.76,3.01
		c-0.68,1.39-1.1,2.87-1.55,4.34c-0.15,0.49-0.52,0.8-0.97,0.82c-0.75,0.02-1.01,0.5-1.17,1.06c-0.69,2.51-1.54,4.96-2.69,7.29
		c-0.99,0.76-0.83,1.85-0.78,2.88c0.02,0.46,0.15,0.93,0.22,1.4c0.1,0.65,0.43,0.84,1.04,0.71c0.3-0.06,0.6-0.22,0.92-0.06
		c0.33,0.09,0.4,0.35,0.47,0.65c0.11,0.53,0.12,1.08,0.31,1.6c0.14,0.52,0.3,1.03,0.42,1.55c0.09,0.4,0.29,0.63,0.62,0.8
		c0.26,0.21,0.55,0.37,0.82,0.55c0.46,0.58,1.06,0.95,1.77,1.12c0.25,0.07,0.46,0.24,0.71,0.3c0.33,0.4,0.79,0.51,1.27,0.59
		c1.37,0.83,2.92,1.27,4.39,1.87c0.54,0.44,1.15,0.69,1.85,0.65c0.53,0.16,1.06,0.3,1.59,0.45C75.06,62.03,80,51.6,80,40
		C80,17.91,62.09,0,40,0C17.91,0,0,17.91,0,40c0,11.65,4.98,22.13,12.93,29.44c2.11-0.56,4.25-1,6.3-1.75
		C20.3,67.29,21.46,67.08,22.41,66.41z"/>
	<path class="st0" d="M40,80c0.1,0,0.19-0.01,0.29-0.01c-0.19,0-0.39,0-0.58,0C39.81,79.99,39.9,80,40,80z"/>
	<path class="st0" d="M65.59,68.89c-0.71,0.04-1.32-0.21-1.85-0.65c-1.47-0.6-3.02-1.03-4.39-1.87c-0.48-0.08-0.94-0.19-1.27-0.59
		c-0.25-0.07-0.46-0.23-0.71-0.3c-0.72-0.18-1.31-0.54-1.77-1.12c-0.27-0.18-0.57-0.34-0.82-0.55c-0.33-0.17-0.53-0.4-0.62-0.8
		c-0.12-0.52-0.28-1.04-0.42-1.55c-0.19-0.52-0.2-1.07-0.31-1.6c-0.06-0.3-0.14-0.56-0.47-0.65c-0.32-0.16-0.62-0.01-0.92,0.06
		c-0.61,0.13-0.95-0.06-1.04-0.71c-0.07-0.47-0.2-0.94-0.22-1.4c-0.05-1.03-0.21-2.12,0.78-2.88c1.15-2.34,2-4.78,2.69-7.29
		c0.16-0.56,0.42-1.04,1.17-1.06c0.45-0.01,0.82-0.33,0.97-0.82c0.44-1.47,0.86-2.95,1.55-4.34c0.21-1.01,0.71-1.95,0.76-3.01
		c-0.01-0.21,0.05-0.42,0.03-0.63c-0.02-0.09-0.06-0.16-0.12-0.22c-0.04-0.02-0.08-0.05-0.11-0.08c0.02-0.45,0.06-0.9,0.04-1.35
		c-0.02-0.63-0.32-1.15-0.94-1.31c-0.57-0.15-0.67-0.46-0.64-0.96c0.13-1.98,0.24-3.96,0.36-5.95c0.02-0.07,0.01-0.13-0.02-0.19
		c0.02-0.03,0.02-0.07,0-0.12c-0.06-0.6-0.11-1.2-0.18-1.8c-0.16-1.43-0.32-2.88-1.07-4.15c-1.45-2.45-3.46-4.33-6-5.62
		c-2.14-1.09-4.47-1.63-6.82-2.1c-4.87-0.98-9.2,0.11-12.98,3.34c0.01,0.03,0.02,0.07,0.03,0.1c-0.43,0.27-0.76,0.64-1,1.08
		c-0.45,0.85-1.11,1.53-1.8,2.17c-1.26,1.18-1.95,2.55-1.75,4.29c-0.05,0.02-0.09,0.04-0.14,0.08c-0.06,0.06-0.11,0.14-0.15,0.22
		c-0.3,1.41,0.08,2.82,0.07,4.23c0.35,1.19,0.36,2.42,0.46,3.65c0.06,0.67-0.13,1.13-0.78,1.36c-0.82,0.29-1.15,0.95-1.26,1.75
		c-0.11,0.83-0.14,1.66,0.09,2.49c0.32,1.16,0.66,2.32,1.03,3.47c0.6,0.97,0.96,2.05,1.17,3.14c0.14,0.72,0.44,1.14,1.07,1.37
		c0.52,0.19,0.8,0.55,0.92,1.08c0.18,0.85,0.5,1.66,0.76,2.48c0.3,0.67,0.8,1.27,0.8,2.05c0.01,0.08,0.02,0.16,0.06,0.24
		c1.43,2.29,2.2,4.68,1.26,7.37c-0.49,0.52-0.97-0.02-1.46-0.03c-0.49-0.01-0.9-0.05-1.02,0.55c-0.37,1.17-0.57,2.38-0.94,3.55
		c-0.2,0.64-0.52,1.1-1.13,1.41c-1.33,0.67-2.68,1.29-4.12,1.69c-0.96,0.68-2.11,0.89-3.18,1.28c-2.05,0.75-4.2,1.19-6.3,1.75
		c7.06,6.49,16.45,10.48,26.78,10.55c0.19,0,0.39,0,0.58,0c10.38-0.07,19.82-4.1,26.89-10.65C66.65,69.19,66.12,69.05,65.59,68.89z"
		/>
	<path class="st1" d="M65.59,68.89c-0.71,0.04-1.32-0.21-1.85-0.65c-1.47-0.6-3.02-1.03-4.39-1.87c-0.48-0.08-0.94-0.19-1.27-0.59
		c-0.25-0.07-0.46-0.23-0.71-0.3c-0.72-0.18-1.31-0.54-1.77-1.12c-0.27-0.18-0.57-0.34-0.82-0.55c-0.33-0.17-0.53-0.4-0.62-0.8
		c-0.12-0.52-0.28-1.04-0.42-1.55c-0.19-0.52-0.2-1.07-0.31-1.6c-0.06-0.3-0.14-0.56-0.47-0.65c-0.32-0.16-0.62-0.01-0.92,0.06
		c-0.61,0.13-0.95-0.06-1.04-0.71c-0.07-0.47-0.2-0.94-0.22-1.4c-0.05-1.03-0.21-2.12,0.78-2.88c1.15-2.34,2-4.78,2.69-7.29
		c0.16-0.56,0.42-1.04,1.17-1.06c0.45-0.01,0.82-0.33,0.97-0.82c0.44-1.47,0.86-2.95,1.55-4.34c0.21-1.01,0.71-1.95,0.76-3.01
		c-0.01-0.21,0.05-0.42,0.03-0.63c-0.02-0.09-0.06-0.16-0.12-0.22c-0.04-0.02-0.08-0.05-0.11-0.08c0.02-0.45,0.06-0.9,0.04-1.35
		c-0.02-0.63-0.32-1.15-0.94-1.31c-0.57-0.15-0.67-0.46-0.64-0.96c0.13-1.98,0.24-3.96,0.36-5.95c0.02-0.07,0.01-0.13-0.02-0.19
		c0.02-0.03,0.02-0.07,0-0.12c-0.06-0.6-0.11-1.2-0.18-1.8c-0.16-1.43-0.32-2.88-1.07-4.15c-1.45-2.45-3.46-4.33-6-5.62
		c-2.14-1.09-4.47-1.63-6.82-2.1c-4.87-0.98-9.2,0.11-12.98,3.34c0.01,0.03,0.02,0.07,0.03,0.1c-0.43,0.27-0.76,0.64-1,1.08
		c-0.45,0.85-1.11,1.53-1.8,2.17c-1.26,1.18-1.95,2.55-1.75,4.29c-0.05,0.02-0.09,0.04-0.14,0.08c-0.06,0.06-0.11,0.14-0.15,0.22
		c-0.3,1.41,0.08,2.82,0.07,4.23c0.35,1.19,0.36,2.42,0.46,3.65c0.06,0.67-0.13,1.13-0.78,1.36c-0.82,0.29-1.15,0.95-1.26,1.75
		c-0.11,0.83-0.14,1.66,0.09,2.49c0.32,1.16,0.66,2.32,1.03,3.47c0.6,0.97,0.96,2.05,1.17,3.14c0.14,0.72,0.44,1.14,1.07,1.37
		c0.52,0.19,0.8,0.55,0.92,1.08c0.18,0.85,0.5,1.66,0.76,2.48c0.3,0.67,0.8,1.27,0.8,2.05c0.01,0.08,0.02,0.16,0.06,0.24
		c1.43,2.29,2.2,4.68,1.26,7.37c-0.49,0.52-0.97-0.02-1.46-0.03c-0.49-0.01-0.9-0.05-1.02,0.55c-0.37,1.17-0.57,2.38-0.94,3.55
		c-0.2,0.64-0.52,1.1-1.13,1.41c-1.33,0.67-2.68,1.29-4.12,1.69c-0.96,0.68-2.11,0.89-3.18,1.28c-2.05,0.75-4.2,1.19-6.3,1.75
		c7.06,6.49,16.45,10.48,26.78,10.55c0.19,0,0.39,0,0.58,0c10.38-0.07,19.82-4.1,26.89-10.65C66.65,69.19,66.12,69.05,65.59,68.89z"
		/>
</g>
</svg>
