<?xml version="1.0" encoding="utf-8"?>
<!-- Generator: Adobe Illustrator 24.2.0, SVG Export Plug-In . SVG Version: 6.00 Build 0)  -->
<svg version="1.1" id="격리_모드" xmlns="http://www.w3.org/2000/svg" xmlns:xlink="http://www.w3.org/1999/xlink" x="0px"
	 y="0px" viewBox="0 0 1586.9 182.3" style="enable-background:new 0 0 1586.9 182.3;" xml:space="preserve">
<style type="text/css">
	.st0{fill:#3D4459;}
	.st1{fill:#CD39FA;}
	.st2{fill:#FFFFFF;}
	.st3{fill:#26B2F0;}
	.st4{fill:#CC597D;}
	.st5{fill:none;stroke:#2D3D49;stroke-width:5;stroke-linecap:round;stroke-linejoin:round;stroke-miterlimit:4;}
	.st6{fill:none;stroke:#FFFFFF;stroke-width:2;stroke-linecap:round;stroke-linejoin:round;stroke-miterlimit:3.9999;}
	.st7{fill:#07C5B2;}
	.st8{fill:#FF91AB;}
	.st9{fill:#FFA220;}
	.st10{fill:#F7305E;}
	.st11{fill:none;stroke:#FFFFFF;stroke-width:2;stroke-linecap:round;stroke-linejoin:round;stroke-miterlimit:4;}
	.st12{fill:none;stroke:#3D4459;stroke-width:5;stroke-linecap:round;stroke-linejoin:round;}
	.st13{fill:none;stroke:#3D4459;stroke-width:4.9999;stroke-linecap:round;stroke-linejoin:round;stroke-miterlimit:4;}
	.st14{fill:none;stroke:#FF8ABF;stroke-width:1;stroke-linecap:round;stroke-linejoin:round;stroke-miterlimit:4;}
	.st15{fill:#A3D14D;}
</style>
<g>
	<g>
		<g transform="matrix( 1.4101104736328125, 0.404266357421875, -0.399078369140625, 1.3920440673828125, -27.35,-543.45) ">
			<g>
				<g id="Layer0_1_MEMBER_0_MEMBER_0_MEMBER_0_FILL">
					<path class="st0" d="M809.42,176.65c-0.53,0.57-0.8,1.22-0.8,1.95v25.8c0,0.77,0.27,1.42,0.8,1.95c0.57,0.53,1.22,0.8,1.95,0.8
						c0.77,0,1.43-0.27,2-0.8c0.53-0.53,0.8-1.18,0.8-1.95v-25.8c0-0.77-0.27-1.42-0.8-1.95c-0.57-0.53-1.23-0.8-2-0.8
						C810.64,175.85,809.99,176.12,809.42,176.65z"/>
				</g>
			</g>
		</g>
		<g transform="matrix( 1.0615386962890625, 0.304351806640625, -0.304351806640625, 1.0615386962890625, 194.65,-322.75) ">
			<g>
				<g id="Layer0_1_MEMBER_0_MEMBER_0_MEMBER_1_FILL">
					<path class="st0" d="M827.88,113.39c6.73-5.09,13.58-4.48,20.55,1.85c1.4,0.57,2.02-0.12,1.85-2.05
						c0.1-10.79-7.12-17.09-21.65-18.9L827.88,113.39z"/>
				</g>
			</g>
		</g>
		<g transform="matrix( 0.9797515869140625, 0, 0, 0.9797515869140625, -84.45,121) ">
			<g>
				<g id="Layer0_1_MEMBER_0_MEMBER_0_MEMBER_2_FILL">
					<path class="st0" d="M1174.12,15.56c9.17-9.17,13.75-20.23,13.75-33.2c0-12.93-4.58-24.02-13.75-33.25
						c-9.2-9.17-20.28-13.75-33.25-13.75c-12.97,0-24.03,4.58-33.2,13.75c-9.17,9.23-13.75,20.32-13.75,33.25
						c0,12.97,4.58,24.03,13.75,33.2c9.17,9.17,20.23,13.75,33.2,13.75C1153.83,29.31,1164.92,24.72,1174.12,15.56z"/>
				</g>
			</g>
		</g>
		<g transform="matrix( 1.4482421875, 0, 0, 1.4482421875, -664.7,145.35) ">
			<g>
				<g id="Layer0_1_MEMBER_0_MEMBER_0_MEMBER_3_FILL">
					<path class="st1" d="M1178.98-5.96c-0.57,0.57-0.85,1.25-0.85,2.05v19.15c-0.27,1.17-0.05,2.15,0.65,2.95
						c0.6,0.73,1.28,1.25,2.05,1.55c0.83,0.3,1.92,0.45,3.25,0.45s2.38-0.35,3.15-1.05c0.7-0.63,1.05-1.47,1.05-2.5
						c0-0.97-0.42-1.8-1.25-2.5c-0.8-0.67-1.78-1-2.95-1h-0.15V-3.91c0-0.8-0.28-1.48-0.85-2.05c-0.57-0.57-1.25-0.85-2.05-0.85
						S1179.55-6.53,1178.98-5.96z"/>
				</g>
			</g>
		</g>
		<g transform="matrix( 1.4482421875, 0, 0, 1.4482421875, -664.7,145.35) ">
			<g>
				<g id="Layer0_1_MEMBER_0_MEMBER_0_MEMBER_4_FILL">
					<path class="st1" d="M1167.08-3.91c0-0.8-0.28-1.48-0.85-2.05c-0.57-0.57-1.25-0.85-2.05-0.85s-1.48,0.28-2.05,0.85
						c-0.57,0.57-0.85,1.25-0.85,2.05v17.05h-0.15c-1.17,0-2.17,0.33-3,1c-0.8,0.7-1.2,1.53-1.2,2.5c0,1.03,0.35,1.87,1.05,2.5
						c0.77,0.7,1.82,1.05,3.15,1.05c1.33,0,2.4-0.15,3.2-0.45c0.77-0.3,1.47-0.82,2.1-1.55c0.7-0.83,0.92-1.82,0.65-2.95V-3.91z"/>
				</g>
			</g>
		</g>
		<g transform="matrix( 1.4482421875, 0, 0, 1.4482421875, -664.7,145.35) ">
			<g>
				<g id="Layer0_1_MEMBER_0_MEMBER_0_MEMBER_5_FILL">
					<path class="st1" d="M1192.13-3.66c5.63-4.4,9.37-10.03,11.2-16.9c-6.77,2.63-16.8,3.95-30.1,3.95
						c-14.37,0-24.85-1.52-31.45-4.55c1.73,7.03,5.43,12.8,11.1,17.3c5.77,4.57,12.35,6.85,19.75,6.85
						C1179.93,2.99,1186.43,0.77,1192.13-3.66z"/>
				</g>
			</g>
		</g>
		<g transform="matrix( 1.4476776123046875, 0, 0, 1.4476776123046875, -664.7,145.35) ">
			<g>
				<g id="Layer0_1_MEMBER_0_MEMBER_0_MEMBER_6_MEMBER_0_MEMBER_0_FILL">
					<path class="st2" d="M1191.13-42.59c-0.2-0.47-0.47-0.92-0.8-1.35c-0.2-0.27-0.45-0.42-0.75-0.45
						c-0.33-0.03-0.62,0.05-0.85,0.25s-0.37,0.47-0.4,0.8c-0.03,0.3,0.05,0.57,0.25,0.8c0.5,0.87,0.68,1.5,0.55,1.9
						c-0.13,0.53-0.83,0.98-2.1,1.35c-1.23,0.33-2.85,0.25-4.85-0.25c-1.03-0.23-2.72-0.78-5.05-1.65c-2.47-0.97-4.17-1.45-5.1-1.45
						c-0.97,0-2.68,0.48-5.15,1.45c-2.33,0.87-4.02,1.42-5.05,1.65c-1.97,0.5-3.58,0.58-4.85,0.25c-1.2-0.37-1.9-0.82-2.1-1.35
						c-0.17-0.57,0.03-1.2,0.6-1.9c0.2-0.23,0.28-0.5,0.25-0.8c-0.03-0.33-0.18-0.6-0.45-0.8c-0.23-0.2-0.5-0.28-0.8-0.25
						c-0.33,0.07-0.6,0.22-0.8,0.45c-0.33,0.43-0.58,0.88-0.75,1.35c-0.4,0.93-0.47,1.82-0.2,2.65c0.47,1.37,1.7,2.32,3.7,2.85
						c0.63,0.17,1.4,0.25,2.3,0.25c2,0,4.98-0.73,8.95-2.2c2.17-0.87,3.62-1.3,4.35-1.3c0.7,0,2.13,0.43,4.3,1.3
						c2.5,0.9,4.37,1.5,5.6,1.8c2.23,0.5,4.13,0.55,5.7,0.15c2.03-0.57,3.25-1.52,3.65-2.85
						C1191.55-40.78,1191.5-41.66,1191.13-42.59z"/>
				</g>
			</g>
		</g>
		<g transform="matrix( 1.4474334716796875, 0, 0, 1.4474334716796875, -664.7,145.35) ">
			<g>
				<g id="Layer0_1_MEMBER_0_MEMBER_0_MEMBER_6_MEMBER_1_MEMBER_0_MEMBER_0_FILL">
					<path class="st2" d="M1166.06-45.99c0.37-0.2,0.62-0.5,0.75-0.9c0.13-0.4,0.1-0.78-0.1-1.15c-0.2-0.37-0.5-0.62-0.9-0.75
						c-0.4-0.13-0.78-0.1-1.15,0.1l-4.55,2.3c-0.37,0.2-0.62,0.5-0.75,0.9c-0.13,0.4-0.1,0.78,0.1,1.15c0.27,0.53,0.72,0.8,1.35,0.8
						l0.7-0.15L1166.06-45.99z"/>
				</g>
			</g>
		</g>
		<g transform="matrix( 1.4474334716796875, 0, 0, 1.4474334716796875, -664.7,145.35) ">
			<g>
				<g id="Layer0_1_MEMBER_0_MEMBER_0_MEMBER_6_MEMBER_1_MEMBER_1_MEMBER_0_FILL">
					<path class="st2" d="M1177.21-46.89c0.13,0.4,0.38,0.7,0.75,0.9l4.55,2.3c0.2,0.1,0.42,0.15,0.65,0.15
						c0.63,0,1.08-0.27,1.35-0.8c0.2-0.37,0.23-0.75,0.1-1.15c-0.13-0.4-0.38-0.7-0.75-0.9l-4.55-2.3c-0.37-0.2-0.75-0.23-1.15-0.1
						c-0.4,0.13-0.7,0.38-0.9,0.75C1177.1-47.67,1177.08-47.29,1177.21-46.89z"/>
				</g>
			</g>
		</g>
		<g transform="matrix( 1.4482421875, 0, 0, 1.4482421875, -664.7,145.35) ">
			<g>
				<g id="Layer0_1_MEMBER_0_MEMBER_1_MEMBER_0_FILL">
					<path class="st0" d="M1143.93-26.36c-0.67,0.13-1.18,0.5-1.55,1.1c-0.1,0.13-1.25,2.45-3.45,6.95c-2.07,5.4-2.9,10.53-2.5,15.4
						c0.07,0.67,0.37,1.23,0.9,1.7s1.13,0.67,1.8,0.6l0.35-0.1c0.6-0.13,1.08-0.43,1.45-0.9c0.4-0.5,0.57-1.07,0.5-1.7
						c-0.33-4.13,0.42-8.57,2.25-13.3c1.9-3.9,2.85-5.88,2.85-5.95c0.37-0.57,0.48-1.18,0.35-1.85c-0.13-0.7-0.48-1.23-1.05-1.6
						C1145.23-26.38,1144.6-26.5,1143.93-26.36z"/>
				</g>
			</g>
		</g>
		<g transform="matrix( 1.4482421875, 0, 0, 1.4482421875, -664.7,145.35) ">
			<g>
				<g id="Layer0_1_MEMBER_0_MEMBER_1_MEMBER_1_FILL">
					<path class="st0" d="M1144.23-6.96c-0.3-1.33-1.02-2.3-2.15-2.9c-1.13-0.6-2.35-0.65-3.65-0.15s-2.3,1.4-3,2.7
						c-0.7,1.3-0.9,2.63-0.6,4c0.3,1.33,1.02,2.3,2.15,2.9c1.13,0.6,2.35,0.65,3.65,0.15s2.3-1.4,3-2.7
						C1144.33-4.26,1144.53-5.6,1144.23-6.96z"/>
				</g>
			</g>
		</g>
		<g transform="matrix( 1.4482421875, 0, 0, 1.4482421875, -664.7,145.35) ">
			<g>
				<g id="Layer0_1_MEMBER_0_MEMBER_1_MEMBER_2_FILL">
					<path class="st0" d="M1203.63-25.26c-0.37-0.6-0.9-0.97-1.6-1.1c-0.67-0.13-1.3-0.02-1.9,0.35c-0.57,0.37-0.92,0.9-1.05,1.6
						c-0.13,0.67-0.02,1.28,0.35,1.85c0.03,0.07,0.98,2.05,2.85,5.95c1.83,4.73,2.58,9.17,2.25,13.3c-0.03,0.63,0.13,1.2,0.5,1.7
						c0.37,0.47,0.85,0.77,1.45,0.9l0.35,0.1c0.7,0.07,1.32-0.13,1.85-0.6c0.53-0.47,0.82-1.03,0.85-1.7c0.4-4.87-0.43-10-2.5-15.4
						C1204.86-22.81,1203.73-25.13,1203.63-25.26z"/>
				</g>
			</g>
		</g>
		<g transform="matrix( 1.4482421875, 0, 0, 1.4482421875, -664.7,145.35) ">
			<g>
				<g id="Layer0_1_MEMBER_0_MEMBER_1_MEMBER_3_FILL">
					<path class="st0" d="M1203.88-9.86c-1.13,0.6-1.85,1.57-2.15,2.9c-0.3,1.37-0.1,2.7,0.6,4c0.7,1.3,1.7,2.2,3,2.7
						c1.3,0.5,2.52,0.45,3.65-0.15c1.13-0.6,1.85-1.57,2.15-2.9c0.3-1.37,0.1-2.7-0.6-4c-0.7-1.3-1.7-2.2-3-2.7
						S1205.01-10.46,1203.88-9.86z"/>
				</g>
			</g>
		</g>
	</g>
	<g>
		<g transform="matrix( 1.4782562255859375, 0, 0, 1.4782562255859375, -842.75,-200.6) ">
			<g>
				<g id="Layer0_1_MEMBER_1_MEMBER_0_MEMBER_0_FILL">
					<path class="st0" d="M1082.56,166.19c-6.13,6.13-9.2,13.53-9.2,22.2c0,8.67,3.07,16.05,9.2,22.15
						c6.13,6.13,13.52,9.2,22.15,9.2c8.67,0,16.05-3.07,22.15-9.2c6.13-6.1,9.2-13.48,9.2-22.15c0-8.67-3.07-16.07-9.2-22.2
						c-6.1-6.1-13.48-9.15-22.15-9.15C1096.04,157.04,1088.66,160.09,1082.56,166.19z"/>
				</g>
			</g>
		</g>
		<g transform="matrix( 1.4782562255859375, 0, 0, 1.4782562255859375, -842.75,-194.6) ">
			<g>
				<g id="Layer0_1_MEMBER_1_MEMBER_0_MEMBER_1_FILL">
					<path class="st0" d="M1102.26,132.44c-0.53,0.57-0.8,1.22-0.8,1.95v25.8c0,0.77,0.27,1.42,0.8,1.95
						c0.57,0.53,1.22,0.8,1.95,0.8c0.77,0,1.43-0.27,2-0.8c0.53-0.53,0.8-1.18,0.8-1.95v-25.8c0-0.77-0.27-1.42-0.8-1.95
						c-0.57-0.53-1.23-0.8-2-0.8C1103.48,131.64,1102.83,131.91,1102.26,132.44z"/>
				</g>
			</g>
		</g>
		<g transform="matrix( 1, 0, 0, 1, -429.15,60.25) ">
			<g>
				<g id="Layer0_1_MEMBER_1_MEMBER_0_MEMBER_2_FILL">
					<path class="st0" d="M1219.53-40.87c6.73-5.09,13.58-4.48,20.55,1.85c1.4,0.57,2.02-0.12,1.85-2.05
						c0.1-10.79-7.12-17.09-21.65-18.9L1219.53-40.87z"/>
				</g>
			</g>
		</g>
		<g transform="matrix( 1.4782562255859375, 0, 0, 1.4782562255859375, -842.75,-200.6) ">
			<g>
				<g id="Layer0_1_MEMBER_1_MEMBER_0_MEMBER_3_FILL">
					<path class="st3" d="M1113.46,208.44c0,0.8,0.27,1.47,0.8,2l13.35,13.4c0.7,0.97,1.53,1.48,2.5,1.55
						c0.93,0.07,1.78-0.07,2.55-0.4c0.77-0.33,1.62-0.97,2.55-1.9c0.93-0.93,1.42-1.9,1.45-2.9c0.07-0.93-0.25-1.77-0.95-2.5
						c-0.67-0.67-1.53-0.95-2.6-0.85c-1.03,0.1-1.97,0.55-2.8,1.35l-0.1,0.1l-11.9-11.9c-0.53-0.53-1.2-0.8-2-0.8
						c-0.8,0-1.48,0.27-2.05,0.8C1113.73,206.96,1113.46,207.64,1113.46,208.44z"/>
				</g>
			</g>
		</g>
		<g transform="matrix( 1.4782562255859375, 0, 0, 1.4782562255859375, -842.75,-200.6) ">
			<g>
				<g id="Layer0_1_MEMBER_1_MEMBER_0_MEMBER_4_FILL">
					<path class="st3" d="M1095.26,210.44c0.57-0.53,0.85-1.2,0.85-2s-0.28-1.48-0.85-2.05c-0.57-0.53-1.25-0.8-2.05-0.8
						c-0.77,0-1.43,0.27-2,0.8l-11.9,11.9l-0.15-0.1c-0.8-0.8-1.72-1.25-2.75-1.35c-1.07-0.1-1.93,0.18-2.6,0.85
						c-0.7,0.73-1.03,1.57-1,2.5c0.07,1.03,0.55,2,1.45,2.9c0.97,0.93,1.83,1.57,2.6,1.9c0.77,0.33,1.6,0.47,2.5,0.4
						c0.97-0.07,1.8-0.58,2.5-1.55L1095.26,210.44z"/>
				</g>
			</g>
		</g>
		<g transform="matrix( 1.4782562255859375, 0, 0, 1.4782562255859375, -842.75,-200.6) ">
			<g>
				<g id="Layer0_1_MEMBER_1_MEMBER_0_MEMBER_5_FILL">
					<path class="st3" d="M1074.36,195.89c1.7,6.93,5.35,12.62,10.95,17.05c5.7,4.53,12.18,6.8,19.45,6.8c7.2,0,13.63-2.2,19.3-6.6
						c5.53-4.33,9.2-9.88,11-16.65c-6.8,2.6-16.68,3.9-29.65,3.9C1091.34,200.39,1080.99,198.89,1074.36,195.89z"/>
				</g>
			</g>
		</g>
		<g transform="matrix( 1, 0, 0, 1, -430.9,104) ">
			<g>
				<g id="Layer0_1_MEMBER_1_MEMBER_0_MEMBER_6_MEMBER_0_FILL">
					<path class="st4" d="M1209.58-40.32l-0.1,2.3c0.1,1.77,0.43,3.42,1,4.95c1.73,4.8,5.53,7.2,11.4,7.2c5.83,0,9.65-2.4,11.45-7.2
						c0.57-1.53,0.9-3.18,1-4.95l-0.1-2.3H1209.58z"/>
				</g>
			</g>
		</g>
		<g transform="matrix( 1.4134674072265625, 0, 0, 1.4134674072265625, -321.75,163.45) ">
			<g>
				<g id="Layer0_1_MEMBER_1_MEMBER_0_MEMBER_6_MEMBER_1_MEMBER_0_MEMBER_0_FILL">
					<path class="st2" d="M806.22-73.1c0.47-0.83,0.45-1.6-0.05-2.3c-0.13-0.27-0.37-0.43-0.7-0.5c-0.3-0.07-0.58-0.02-0.85,0.15
						c-0.27,0.17-0.42,0.4-0.45,0.7c-0.07,0.33-0.02,0.62,0.15,0.85l-0.1,0.05c-0.3,0.57-1.35,1.08-3.15,1.55
						c-3.17,0.8-8.02,1.2-14.55,1.2c-6.17,0-10.85-0.37-14.05-1.1c-1.9-0.43-3.1-0.95-3.6-1.55l-0.1-0.2c0.27-0.6,0.13-1.1-0.4-1.5
						c-0.23-0.17-0.52-0.22-0.85-0.15c-0.3,0.07-0.53,0.23-0.7,0.5c-0.43,0.73-0.43,1.5,0,2.3c1.43,2.63,8,3.95,19.7,3.95
						S804.78-70.46,806.22-73.1z"/>
				</g>
			</g>
		</g>
		<g transform="matrix( 1.41387939453125, 0, 0, 1.41387939453125, -321.75,163.45) ">
			<g>
				<g id="Layer0_1_MEMBER_1_MEMBER_0_MEMBER_6_MEMBER_2_MEMBER_0_FILL">
					<path class="st2" d="M794.26-62.07c1.27-1.4,2.08-3.23,2.45-5.5c0.1-2,0.15-3.03,0.15-3.1l-2,0.2l-0.1,2.5
						c-0.3,1.9-0.97,3.42-2,4.55c-1.3,1.47-3.23,2.2-5.8,2.2c-2.5,0-4.43-0.73-5.8-2.2c-1.03-1.13-1.68-2.65-1.95-4.55l-0.15-2.5
						l-2-0.2c0,0.07,0.05,1.1,0.15,3.1c0.37,2.27,1.2,4.1,2.5,5.5c1.73,1.9,4.15,2.85,7.25,2.85
						C790.03-59.22,792.46-60.17,794.26-62.07z"/>
				</g>
			</g>
		</g>
		<g transform="matrix( 1.4782562255859375, 0, 0, 1.4782562255859375, -842.75,-200.6) ">
			<g transform="matrix( 0.6764678955078125, 0, 0, 0.6764678955078125, 570.05,135.7) ">
				<path id="Layer0_1_MEMBER_1_MEMBER_1_MEMBER_0_1_STROKES" class="st5" d="M1077.16,193.99c-1.23-0.77-2.48-2.45-3.75-5.05
					c-2.53-5.13-3.87-12.17-4-21.1"/>
			</g>
		</g>
		<g transform="matrix( 1.4782562255859375, 0, 0, 1.4782562255859375, -842.75,-200.6) ">
			<g>
				<g id="Layer0_1_MEMBER_1_MEMBER_1_MEMBER_1_FILL">
					<path class="st0" d="M1069.46,162.04c-1.47,0-2.73,0.52-3.8,1.55c-1.03,1.07-1.55,2.33-1.55,3.8s0.52,2.72,1.55,3.75
						c1.07,1.03,2.33,1.55,3.8,1.55c1.47,0,2.72-0.52,3.75-1.55c1.03-1.03,1.55-2.28,1.55-3.75s-0.52-2.73-1.55-3.8
						C1072.18,162.56,1070.93,162.04,1069.46,162.04z"/>
				</g>
			</g>
		</g>
		<g transform="matrix( 1.4782562255859375, 0, 0, 1.4782562255859375, -842.75,-200.6) ">
			<g transform="matrix( 0.6764678955078125, 0, 0, 0.6764678955078125, 570.05,135.7) ">
				<path id="Layer0_1_MEMBER_1_MEMBER_1_MEMBER_2_1_STROKES" class="st5" d="M1132.11,193.99c1.23-0.77,2.48-2.45,3.75-5.05
					c2.53-5.13,3.88-12.17,4.05-21.1"/>
			</g>
		</g>
		<g transform="matrix( 1.4782562255859375, 0, 0, 1.4782562255859375, -842.75,-200.6) ">
			<g>
				<g id="Layer0_1_MEMBER_1_MEMBER_1_MEMBER_3_FILL">
					<path class="st0" d="M1139.96,162.04c-1.47,0-2.73,0.52-3.8,1.55c-1.03,1.07-1.55,2.33-1.55,3.8s0.52,2.72,1.55,3.75
						c1.07,1.03,2.33,1.55,3.8,1.55c1.47,0,2.72-0.52,3.75-1.55c1.03-1.03,1.55-2.28,1.55-3.75s-0.52-2.73-1.55-3.8
						C1142.68,162.56,1141.43,162.04,1139.96,162.04z"/>
				</g>
			</g>
		</g>
		<g transform="matrix( 1.4780426025390625, 0, 0, 1.4780426025390625, -842.75,-200.6) ">
			<g transform="matrix( 0.6765594482421875, 0, 0, 0.6765594482421875, 570.15,135.7) ">
				<path id="Layer0_1_MEMBER_1_MEMBER_2_MEMBER_0_1_STROKES" class="st6" d="M1093.02,173.78c0-1.27,0.43-2.33,1.3-3.2
					c0.9-0.9,1.97-1.35,3.2-1.35c1.27,0,2.33,0.45,3.2,1.35c0.9,0.9,1.35,1.97,1.35,3.2"/>
			</g>
		</g>
		<g transform="matrix( 1.4780426025390625, 0, 0, 1.4780426025390625, -842.75,-200.6) ">
			<g transform="matrix( 0.6765594482421875, 0, 0, 0.6765594482421875, 570.15,135.7) ">
				<path id="Layer0_1_MEMBER_1_MEMBER_2_MEMBER_1_1_STROKES" class="st6" d="M1107.27,173.78c0-1.27,0.43-2.33,1.3-3.2
					c0.9-0.9,1.97-1.35,3.2-1.35c1.27,0,2.33,0.45,3.2,1.35c0.9,0.9,1.35,1.97,1.35,3.2"/>
			</g>
		</g>
	</g>
	<g>
		<g transform="matrix( 1.4140625, 0, 0, 1.4140625, -1021.1,172.65) ">
			<g>
				<g id="Layer0_1_MEMBER_2_MEMBER_0_MEMBER_0_FILL">
					<path class="st0" d="M1108.75-73.69c-8.63,0-16.02,3.07-22.15,9.2c-6.13,6.13-9.2,13.52-9.2,22.15c0,8.67,3.07,16.05,9.2,22.15
						c6.13,6.13,13.52,9.2,22.15,9.2c8.67,0,16.05-3.07,22.15-9.2c6.13-6.1,9.2-13.48,9.2-22.15c0-8.63-3.07-16.02-9.2-22.15
						C1124.8-70.63,1117.41-73.69,1108.75-73.69z"/>
				</g>
			</g>
		</g>
		<g transform="matrix( 1.4140625, 0, 0, -1.4140625, -1021.1,1710.85) ">
			<g>
				<g id="Layer0_1_MEMBER_2_MEMBER_0_MEMBER_1_MEMBER_0_MEMBER_0_FILL">
					<path class="st2" d="M1117.1,1145.29c-0.57-0.43-1.18-0.65-1.85-0.65c-0.63,0-1.12,0.23-1.45,0.7
						c-0.33,0.43-0.42,0.97-0.25,1.6c0.17,0.6,0.53,1.12,1.1,1.55s1.18,0.65,1.85,0.65c0.63,0,1.12-0.23,1.45-0.7
						c0.33-0.43,0.42-0.97,0.25-1.6C1118.03,1146.24,1117.66,1145.73,1117.1,1145.29z"/>
				</g>
			</g>
		</g>
		<g transform="matrix( 1.4140625, 0, 0, -1.4140625, -1021.1,1710.85) ">
			<g>
				<g id="Layer0_1_MEMBER_2_MEMBER_0_MEMBER_1_MEMBER_0_MEMBER_1_FILL">
					<path class="st2" d="M1102.25,1144.64c-0.67,0-1.28,0.22-1.85,0.65s-0.93,0.95-1.1,1.55c-0.17,0.63-0.08,1.17,0.25,1.6
						c0.33,0.47,0.82,0.7,1.45,0.7c0.67,0,1.28-0.22,1.85-0.65s0.93-0.95,1.1-1.55c0.17-0.63,0.08-1.17-0.25-1.6
						C1103.36,1144.88,1102.88,1144.64,1102.25,1144.64z"/>
				</g>
			</g>
		</g>
		<g transform="matrix( 1.4137115478515625, 0, 0, 1.4137115478515625, -1021.1,172.65) ">
			<g>
				<g id="Layer0_1_MEMBER_2_MEMBER_0_MEMBER_1_MEMBER_1_MEMBER_0_FILL">
					<path class="st2" d="M1108.73-52.19c-6.17,0-10.85-0.37-14.05-1.1c-1.9-0.43-3.1-0.95-3.6-1.55l-0.1-0.2
						c0.3-0.6,0.17-1.1-0.4-1.5c-0.27-0.13-0.55-0.17-0.85-0.1s-0.53,0.22-0.7,0.45c-0.43,0.73-0.43,1.5,0,2.3
						c1.43,2.63,8,3.95,19.7,3.95s18.27-1.32,19.7-3.95c0.43-0.8,0.43-1.57,0-2.3c-0.17-0.23-0.4-0.38-0.7-0.45s-0.58-0.03-0.85,0.1
						c-0.27,0.17-0.43,0.4-0.5,0.7c-0.07,0.33-0.02,0.62,0.15,0.85v0.05c-0.03-0.03-0.07-0.03-0.1,0c-0.33,0.57-1.38,1.08-3.15,1.55
						C1120.15-52.59,1115.3-52.19,1108.73-52.19z"/>
				</g>
			</g>
		</g>
		<g transform="matrix( 1.4140625, 0, 0, 1.4140625, -1021.1,172.65) ">
			<g>
				<g id="Layer0_1_MEMBER_2_MEMBER_0_MEMBER_2_FILL">
					<path class="st7" d="M1117.1-20.69c-0.77,0-1.43,0.28-2,0.85c-0.57,0.57-0.85,1.23-0.85,2v18.9c-0.27,1.17-0.05,2.13,0.65,2.9
						c0.63,0.73,1.32,1.25,2.05,1.55c0.8,0.3,1.85,0.45,3.15,0.45s2.33-0.33,3.1-1c0.7-0.67,1.05-1.5,1.05-2.5
						c0-0.97-0.4-1.78-1.2-2.45c-0.83-0.67-1.82-1-2.95-1h-0.15v-16.85c0-0.77-0.27-1.43-0.8-2
						C1118.58-20.41,1117.9-20.69,1117.1-20.69z"/>
				</g>
			</g>
		</g>
		<g transform="matrix( 1.4140625, 0, 0, 1.4140625, -1021.1,172.65) ">
			<g>
				<g id="Layer0_1_MEMBER_2_MEMBER_0_MEMBER_3_FILL">
					<path class="st7" d="M1103.35-17.84c0-0.77-0.28-1.43-0.85-2c-0.57-0.57-1.23-0.85-2-0.85c-0.8,0-1.48,0.28-2.05,0.85
						c-0.57,0.57-0.85,1.23-0.85,2v16.85h-0.15c-1.13,0-2.1,0.33-2.9,1c-0.83,0.7-1.25,1.52-1.25,2.45c0,1,0.37,1.83,1.1,2.5
						c0.73,0.67,1.75,1,3.05,1c1.33,0,2.4-0.15,3.2-0.45c0.77-0.3,1.45-0.82,2.05-1.55c0.7-0.8,0.92-1.77,0.65-2.9V-17.84z"/>
				</g>
			</g>
		</g>
		<g transform="matrix( 1.4140625, 0, 0, 1.4140625, -1021.1,172.65) ">
			<g>
				<g id="Layer0_1_MEMBER_2_MEMBER_0_MEMBER_4_FILL">
					<path class="st7" d="M1089.35-17.79c5.7,4.53,12.18,6.8,19.45,6.8c7.2,0,13.63-2.2,19.3-6.6c5.53-4.33,9.2-9.88,11-16.65
						c-6.87,2.63-16.75,3.95-29.65,3.95c-14.07,0-24.42-1.5-31.05-4.5C1080.1-27.89,1083.75-22.23,1089.35-17.79z"/>
				</g>
			</g>
		</g>
		<g transform="matrix( 1.480804443359375, 0.2216949462890625, -0.2188720703125, 1.46185302734375, -815.65,-387.9) ">
			<g>
				<g id="Layer0_1_MEMBER_2_MEMBER_0_MEMBER_5_FILL">
					<path class="st0" d="M944.52,147.22c-0.53,0.57-0.8,1.22-0.8,1.95v25.8c0,0.77,0.27,1.42,0.8,1.95c0.57,0.53,1.22,0.8,1.95,0.8
						c0.77,0,1.43-0.27,2-0.8c0.53-0.53,0.8-1.18,0.8-1.95v-25.8c0-0.77-0.27-1.42-0.8-1.95c-0.57-0.53-1.23-0.8-2-0.8
						C945.74,146.42,945.09,146.69,944.52,147.22z"/>
				</g>
			</g>
		</g>
		<g transform="matrix( 1.11480712890625, 0.1669158935546875, -0.1669158935546875, 1.11480712890625, -560.85,-194.35) ">
			<g>
				<g id="Layer0_1_MEMBER_2_MEMBER_0_MEMBER_6_FILL">
					<path class="st0" d="M1007.36,74.81c6.73-5.09,13.58-4.48,20.55,1.85c1.4,0.57,2.02-0.12,1.85-2.05
						c0.1-10.79-7.12-17.09-21.65-18.9L1007.36,74.81z"/>
				</g>
			</g>
		</g>
		<g transform="matrix( 1.4140625, 0, 0, 1.4140625, -1021.1,172.65) ">
			<g>
				<g id="Layer0_1_MEMBER_2_MEMBER_1_MEMBER_0_FILL">
					<path class="st0" d="M1079.5-40.59c-0.7,0.13-1.23,0.5-1.6,1.1c-0.07,0.13-1.2,2.45-3.4,6.95c-2.07,5.4-2.9,10.53-2.5,15.4
						c0.07,0.67,0.35,1.23,0.85,1.7c0.53,0.47,1.15,0.67,1.85,0.6l0.35-0.1c0.6-0.13,1.08-0.43,1.45-0.9c0.4-0.5,0.57-1.07,0.5-1.7
						c-0.33-4.13,0.42-8.57,2.25-13.3c1.9-3.9,2.85-5.88,2.85-5.95c0.37-0.57,0.48-1.18,0.35-1.85c-0.13-0.7-0.48-1.23-1.05-1.6
						C1080.8-40.61,1080.16-40.73,1079.5-40.59z"/>
				</g>
			</g>
		</g>
		<g transform="matrix( 1.4140625, 0, 0, 1.4140625, -1021.1,172.65) ">
			<g>
				<g id="Layer0_1_MEMBER_2_MEMBER_1_MEMBER_1_FILL">
					<path class="st0" d="M1079.8-21.19c-0.3-1.33-1.02-2.3-2.15-2.9c-1.13-0.6-2.35-0.65-3.65-0.15s-2.3,1.4-3,2.7
						c-0.7,1.3-0.9,2.63-0.6,4c0.3,1.33,1.02,2.3,2.15,2.9c1.13,0.6,2.35,0.65,3.65,0.15c1.3-0.5,2.3-1.4,3-2.7
						C1079.9-18.49,1080.1-19.83,1079.8-21.19z"/>
				</g>
			</g>
		</g>
		<g transform="matrix( 1.4140625, 0, 0, 1.4140625, -1021.1,172.65) ">
			<g>
				<g id="Layer0_1_MEMBER_2_MEMBER_1_MEMBER_2_FILL">
					<path class="st0" d="M1139.15-39.49c-0.37-0.6-0.88-0.97-1.55-1.1c-0.7-0.13-1.33-0.02-1.9,0.35c-0.57,0.37-0.92,0.9-1.05,1.6
						c-0.13,0.67-0.02,1.28,0.35,1.85c0.03,0.07,0.98,2.05,2.85,5.95c1.83,4.73,2.58,9.17,2.25,13.3c-0.03,0.63,0.13,1.2,0.5,1.7
						c0.37,0.47,0.85,0.77,1.45,0.9l0.35,0.1c0.67,0.07,1.27-0.13,1.8-0.6c0.57-0.47,0.87-1.03,0.9-1.7c0.4-4.87-0.43-10-2.5-15.4
						C1140.4-37.04,1139.25-39.36,1139.15-39.49z"/>
				</g>
			</g>
		</g>
		<g transform="matrix( 1.4140625, 0, 0, 1.4140625, -1021.1,172.65) ">
			<g>
				<g id="Layer0_1_MEMBER_2_MEMBER_1_MEMBER_3_FILL">
					<path class="st0" d="M1139.45-24.09c-1.13,0.6-1.85,1.57-2.15,2.9c-0.3,1.37-0.1,2.7,0.6,4c0.7,1.3,1.7,2.2,3,2.7
						s2.52,0.45,3.65-0.15c1.13-0.6,1.85-1.57,2.15-2.9c0.3-1.37,0.1-2.7-0.6-4c-0.7-1.3-1.7-2.2-3-2.7S1140.58-24.69,1139.45-24.09
						z"/>
				</g>
			</g>
		</g>
	</g>
	<g>
		<g transform="matrix( -1.49853515625, 0, 0, 1.49853515625, 3032.7,-53.65) ">
			<g>
				<g id="Layer0_1_MEMBER_3_MEMBER_0_MEMBER_0_FILL">
					<path class="st0" d="M1190.37,117.3c-2.27-3.23-3.42-4.87-3.45-4.9c-0.27-0.63-0.73-1.07-1.4-1.3
						c-0.63-0.23-1.27-0.22-1.9,0.05c-0.63,0.3-1.07,0.77-1.3,1.4c-0.23,0.67-0.22,1.32,0.05,1.95c0.07,0.13,1.43,2.12,4.1,5.95
						c3.7,4.2,8.23,7.37,13.6,9.5c0.47,0.17,0.9,0.22,1.3,0.15c0.93-0.17,1.58-0.68,1.95-1.55c0.23-0.63,0.22-1.27-0.05-1.9
						s-0.72-1.08-1.35-1.35C1197.39,123.5,1193.54,120.83,1190.37,117.3z"/>
				</g>
			</g>
		</g>
		<g transform="matrix( -1.49853515625, 0, 0, 1.49853515625, 3032.7,-53.65) ">
			<g>
				<g id="Layer0_1_MEMBER_3_MEMBER_0_MEMBER_1_FILL">
					<path class="st0" d="M1204.37,123c-0.9-0.3-1.82-0.13-2.75,0.5c-0.97,0.63-1.65,1.53-2.05,2.7c-0.4,1.2-0.42,2.32-0.05,3.35
						s1,1.7,1.9,2c0.9,0.3,1.83,0.13,2.8-0.5c0.93-0.63,1.6-1.53,2-2.7c0.4-1.17,0.42-2.27,0.05-3.3
						C1205.94,124.01,1205.31,123.33,1204.37,123z"/>
				</g>
			</g>
		</g>
		<g transform="matrix( 1.49853515625, 0, 0, 1.49853515625, -405.1,-52.05) ">
			<g>
				<g id="Layer0_1_MEMBER_3_MEMBER_1_MEMBER_0_FILL">
					<path class="st0" d="M1127.23,75.6c-8.67,0-16.05,3.05-22.15,9.15c-6.13,6.13-9.2,13.53-9.2,22.2c0,8.67,3.07,16.05,9.2,22.15
						c6.13,6.13,13.52,9.2,22.15,9.2c8.67,0,16.05-3.07,22.15-9.2c6.13-6.1,9.2-13.48,9.2-22.15c0-8.67-3.07-16.07-9.2-22.2
						C1143.28,78.65,1135.89,75.6,1127.23,75.6z"/>
				</g>
			</g>
		</g>
		<g transform="matrix( 1.498138427734375, 0, 0, 1.498138427734375, -415.7,-52.05) ">
			<g>
				<g id="Layer0_1_MEMBER_3_MEMBER_1_MEMBER_1_MEMBER_0_MEMBER_0_FILL">
					<path class="st2" d="M1132.27,88.45c-0.33,0.43-0.42,0.97-0.25,1.6c0.17,0.63,0.53,1.17,1.1,1.6c0.57,0.43,1.18,0.65,1.85,0.65
						c0.63-0.03,1.12-0.27,1.45-0.7s0.42-0.97,0.25-1.6c-0.17-0.63-0.53-1.17-1.1-1.6c-0.57-0.43-1.18-0.65-1.85-0.65
						C1133.08,87.78,1132.6,88.01,1132.27,88.45z"/>
				</g>
			</g>
		</g>
		<g transform="matrix( 1.498138427734375, 0, 0, 1.498138427734375, -415.7,-52.05) ">
			<g>
				<g id="Layer0_1_MEMBER_3_MEMBER_1_MEMBER_1_MEMBER_0_MEMBER_1_FILL">
					<path class="st2" d="M1120.71,87.75c-0.67,0-1.28,0.22-1.85,0.65c-0.57,0.43-0.93,0.97-1.1,1.6c-0.17,0.63-0.08,1.17,0.25,1.6
						s0.82,0.67,1.45,0.7c0.67,0,1.28-0.22,1.85-0.65c0.57-0.43,0.93-0.97,1.1-1.6c0.17-0.63,0.08-1.17-0.25-1.6
						C1121.83,88.01,1121.35,87.78,1120.71,87.75z"/>
				</g>
			</g>
		</g>
		<g transform="matrix( 1.498138427734375, 0, 0, 1.498138427734375, -415.7,-52.05) ">
			<g>
				<g id="Layer0_1_MEMBER_3_MEMBER_1_MEMBER_1_MEMBER_1_MEMBER_0_FILL">
					<path class="st2" d="M1127.21,97.05c-6.2,0-10.88-0.37-14.05-1.1c-1.93-0.43-3.13-0.95-3.6-1.55l-0.1-0.2
						c0.13-0.27,0.17-0.53,0.1-0.8c-0.1-0.3-0.27-0.52-0.5-0.65c-0.23-0.17-0.52-0.22-0.85-0.15c-0.3,0.03-0.53,0.18-0.7,0.45
						c-0.43,0.73-0.43,1.52,0,2.35c1.43,2.6,8,3.9,19.7,3.9s18.27-1.3,19.7-3.9c0.43-0.83,0.43-1.62,0-2.35
						c-0.17-0.27-0.4-0.42-0.7-0.45c-0.33-0.07-0.62-0.02-0.85,0.15c-0.27,0.17-0.43,0.4-0.5,0.7s-0.02,0.58,0.15,0.85h-0.1
						c-0.33,0.57-1.38,1.08-3.15,1.55C1138.63,96.65,1133.78,97.05,1127.21,97.05z"/>
				</g>
			</g>
		</g>
		<g transform="matrix( 1.05975341796875, 0, 0, 1.05975341796875, 540.7,48.3) ">
			<g>
				<g id="Layer0_1_MEMBER_3_MEMBER_1_MEMBER_2_FILL">
					<path class="st8" d="M695.14,88.31c-0.8-0.8-1.75-1.2-2.85-1.2c-1.13,0-2.1,0.4-2.9,1.2s-1.2,1.77-1.2,2.9
						c-3.15,7.92-3.15,15.83,0,23.75h-0.2c-1.6,0-2.97,0.48-4.1,1.45c-1.17,1-1.75,2.17-1.75,3.5c0,1.4,0.52,2.55,1.55,3.45
						c1.07,0.93,2.5,1.4,4.3,1.4c1.9,0,3.42-0.2,4.55-0.6c1.03-0.43,2-1.15,2.9-2.15c0.93-1.17,1.23-2.53,0.9-4.1
						c-4.32-9.44-4.32-18.34,0-26.7C696.34,90.07,695.94,89.11,695.14,88.31z"/>
				</g>
			</g>
		</g>
		<g transform="matrix( 0.946319580078125, -0.47698974609375, 0.47698974609375, 0.946319580078125, 213.3,506.7) ">
			<g>
				<g id="Layer0_1_MEMBER_3_MEMBER_1_MEMBER_3_FILL">
					<path class="st8" d="M1063.54,148.13c-0.8-0.8-1.75-1.2-2.85-1.2c-1.13,0-2.1,0.4-2.9,1.2c-0.8,0.8-1.2,1.77-1.2,2.9
						c-3.15,7.92-3.15,15.83,0,23.75h-0.2c-1.6,0-2.97,0.48-4.1,1.45c-1.17,1-1.75,2.17-1.75,3.5c0,1.4,0.52,2.55,1.55,3.45
						c1.07,0.93,2.5,1.4,4.3,1.4c1.9,0,3.42-0.2,4.55-0.6c1.03-0.43,2-1.15,2.9-2.15c0.93-1.17,1.23-2.53,0.9-4.1
						c-4.32-9.44-4.32-18.34,0-26.7C1064.74,149.9,1064.34,148.93,1063.54,148.13z"/>
				</g>
			</g>
		</g>
		<g transform="matrix( 1.49853515625, 0, 0, 1.49853515625, -405.1,-52.05) ">
			<g>
				<g id="Layer0_1_MEMBER_3_MEMBER_1_MEMBER_4_FILL">
					<path class="st8" d="M1127.93,118.95c-14.07,0-24.42-1.5-31.05-4.5c1.7,6.93,5.35,12.62,10.95,17.05
						c5.7,4.53,12.18,6.8,19.45,6.8c7.2,0,13.63-2.2,19.3-6.6c5.53-4.33,9.2-9.88,11-16.65
						C1150.78,117.65,1140.89,118.95,1127.93,118.95z"/>
				</g>
			</g>
		</g>
		<g transform="matrix( 1.52532958984375, 0.4375, -0.431915283203125, 1.50579833984375, 21.4,-657.7) ">
			<g>
				<g id="Layer0_1_MEMBER_3_MEMBER_1_MEMBER_5_FILL">
					<path class="st0" d="M899.03,196.92c-0.53,0.57-0.8,1.22-0.8,1.95v25.8c0,0.77,0.27,1.42,0.8,1.95c0.57,0.53,1.22,0.8,1.95,0.8
						c0.77,0,1.43-0.27,2-0.8c0.53-0.53,0.8-1.18,0.8-1.95v-25.8c0-0.77-0.27-1.42-0.8-1.95c-0.57-0.53-1.23-0.8-2-0.8
						C900.25,196.12,899.6,196.39,899.03,196.92z"/>
				</g>
			</g>
		</g>
		<g transform="matrix( 1.1483612060546875, 0.3293914794921875, -0.3293914794921875, 1.1483612060546875, 262.4,-419.2) ">
			<g>
				<g id="Layer0_1_MEMBER_3_MEMBER_1_MEMBER_6_FILL">
					<path class="st0" d="M946.95,140.01c6.73-5.09,13.58-4.48,20.55,1.85c1.4,0.57,2.02-0.12,1.85-2.05
						c0.1-10.79-7.12-17.09-21.65-18.9L946.95,140.01z"/>
				</g>
			</g>
		</g>
		<g transform="matrix( 1.49853515625, 0, 0, 1.49853515625, -421,-52.05) ">
			<g>
				<g id="Layer0_1_MEMBER_3_MEMBER_2_MEMBER_0_FILL">
					<path class="st0" d="M1150.18,112.4c-0.7,1.47-1.85,3.1-3.45,4.9c-3.17,3.53-7.02,6.2-11.55,8c-0.63,0.23-1.08,0.68-1.35,1.35
						c-0.3,0.6-0.32,1.23-0.05,1.9c0.37,0.87,1,1.38,1.9,1.55c0.47,0.07,0.92,0.02,1.35-0.15c5.37-2.13,9.9-5.3,13.6-9.5
						c1.87-2.1,3.23-4.08,4.1-5.95c0.27-0.63,0.28-1.28,0.05-1.95c-0.23-0.63-0.67-1.1-1.3-1.4c-0.63-0.27-1.27-0.28-1.9-0.05
						C1150.91,111.33,1150.44,111.76,1150.18,112.4z"/>
				</g>
			</g>
		</g>
		<g transform="matrix( 1.49853515625, 0, 0, 1.49853515625, -421,-52.05) ">
			<g>
				<g id="Layer0_1_MEMBER_3_MEMBER_2_MEMBER_1_FILL">
					<path class="st0" d="M1135.48,123.5c-0.93-0.63-1.85-0.8-2.75-0.5c-0.93,0.33-1.58,1.02-1.95,2.05c-0.33,1.03-0.3,2.13,0.1,3.3
						c0.4,1.17,1.07,2.07,2,2.7c0.93,0.63,1.85,0.8,2.75,0.5c0.93-0.3,1.58-0.97,1.95-2c0.37-1.07,0.35-2.18-0.05-3.35
						C1137.09,125.03,1136.41,124.13,1135.48,123.5z"/>
				</g>
			</g>
		</g>
	</g>
	<g>
		<g transform="matrix( 1.4140625, 0, 0, 1.4140625, -593.75,194.95) ">
			<g>
				<g id="Layer0_1_MEMBER_4_MEMBER_0_FILL">
					<path class="st0" d="M636.69-88.59c-8.67,0-16.07,3.07-22.2,9.2c-6.1,6.1-9.15,13.48-9.15,22.15s3.05,16.07,9.15,22.2
						c6.13,6.1,13.53,9.15,22.2,9.15c8.67,0,16.05-3.05,22.15-9.15c6.13-6.13,9.2-13.53,9.2-22.2c0-8.63-3.07-16.02-9.2-22.15
						C652.74-85.53,645.36-88.59,636.69-88.59z"/>
				</g>
			</g>
		</g>
		<g transform="matrix( 1.341400146484375, 0.447418212890625, -0.447418212890625, 1.341400146484375, -300.4,-110.45) ">
			<g>
				<g id="Layer0_1_MEMBER_4_MEMBER_1_FILL">
					<path class="st0" d="M454.55-37.04l-1.95-1.95l0,12.1c0.8,1.03,2.45,1.67,4.95,1.9c1.97,0.2,3.8,0.13,5.5-0.2
						c1.37-0.27,2.63-0.33,3.8-0.2c1.23,0.1,2.1,0.38,2.6,0.85c1,0.93,1.47,2.15,1.4,3.65c-0.07,1.17-0.42,2.25-1.05,3.25
						c-0.13,0.17-0.13,0.33,0,0.5c0.13,0.13,0.28,0.17,0.45,0.1c2.27-0.87,3.87-2.3,4.8-4.3c0.9-1.87,1.1-3.85,0.6-5.95
						c-0.53-2.13-1.67-3.9-3.4-5.3c-1.9-1.53-4.23-2.32-7-2.35C460.38-35.01,456.81-35.71,454.55-37.04z"/>
				</g>
			</g>
		</g>
		<g transform="matrix( 1.341400146484375, 0.447418212890625, -0.447418212890625, 1.341400146484375, -300.4,-110.45) ">
			<g>
				<g id="Layer0_1_MEMBER_4_MEMBER_2_FILL">
					<path class="st0" d="M452.15-41.44c-0.77,0-1.42,0.27-1.95,0.8c-0.53,0.57-0.8,1.23-0.8,2v25.8c0,0.77,0.27,1.42,0.8,1.95
						c0.57,0.53,1.22,0.8,1.95,0.8c0.77,0,1.43-0.27,2-0.8c0.53-0.53,0.8-1.18,0.8-1.95l0-25.8c0-0.77-0.27-1.43-0.8-2
						C453.58-41.17,452.91-41.44,452.15-41.44z"/>
				</g>
			</g>
		</g>
		<g transform="matrix( 1.4140625, 0, 0, 1.4140625, -593.75,194.95) ">
			<g>
				<g id="Layer0_1_MEMBER_4_MEMBER_3_MEMBER_0_FILL">
					<path class="st9" d="M647.04-34.74c-0.57-0.57-1.23-0.85-2-0.85c-0.8,0-1.47,0.28-2,0.85c-0.57,0.57-0.85,1.23-0.85,2v18.95
						c-0.33,1.03-0.13,1.98,0.6,2.85c0.6,0.73,1.28,1.25,2.05,1.55c0.8,0.3,1.87,0.45,3.2,0.45c1.3,0,2.33-0.33,3.1-1
						c0.7-0.67,1.05-1.5,1.05-2.5c0-0.97-0.4-1.78-1.2-2.45c-0.83-0.67-1.82-1-2.95-1h-0.15v-16.85
						C647.89-33.51,647.61-34.18,647.04-34.74z"/>
				</g>
			</g>
		</g>
		<g transform="matrix( 1.4140625, 0, 0, 1.4140625, -593.75,194.95) ">
			<g>
				<g id="Layer0_1_MEMBER_4_MEMBER_3_MEMBER_1_FILL">
					<path class="st9" d="M628.39-35.59c-0.77,0-1.43,0.28-2,0.85c-0.57,0.57-0.85,1.23-0.85,2v16.85h-0.15
						c-1.13,0-2.12,0.33-2.95,1c-0.8,0.67-1.2,1.48-1.2,2.45c0,1,0.35,1.83,1.05,2.5c0.77,0.67,1.8,1,3.1,1
						c1.33,0,2.4-0.15,3.2-0.45c0.77-0.3,1.45-0.82,2.05-1.55c0.67-0.8,0.88-1.75,0.65-2.85v-18.95c0-0.77-0.28-1.43-0.85-2
						C629.87-35.31,629.19-35.59,628.39-35.59z"/>
				</g>
			</g>
		</g>
		<g transform="matrix( 1.4140625, 0, 0, 1.4140625, -593.75,194.95) ">
			<g>
				<g id="Layer0_1_MEMBER_4_MEMBER_3_MEMBER_2_FILL">
					<path class="st9" d="M617.29-32.69c5.7,4.53,12.18,6.8,19.45,6.8c7.17,0,13.58-2.2,19.25-6.6c5.53-4.33,9.22-9.88,11.05-16.65
						c-6.87,2.63-16.75,3.95-29.65,3.95c-14.03,0-24.4-1.5-31.1-4.5C608.02-42.79,611.69-37.13,617.29-32.69z"/>
				</g>
			</g>
		</g>
		<g transform="matrix( 1.4140625, 0, 0, 1.4140625, -593.75,194.95) ">
			<g transform="matrix( 0.7071685791015625, 0, 0, 0.7071685791015625, 419.85,-137.85) ">
				<path id="Layer0_1_MEMBER_4_MEMBER_4_1_STROKES" class="st6" d="M648.24-80.19l-4.5,2l4.5,2.55"/>
			</g>
		</g>
		<g transform="matrix( 1.4140625, 0, 0, 1.4140625, -593.75,194.95) ">
			<g transform="matrix( 0.7071685791015625, 0, 0, 0.7071685791015625, 419.85,-137.85) ">
				<path id="Layer0_1_MEMBER_4_MEMBER_5_1_STROKES" class="st6" d="M624.99-80.19l4.5,2l-4.5,2.55"/>
			</g>
		</g>
		<g transform="matrix( 1, 0, 0, 1, -702.65,135.7) ">
			<g>
				<g id="Layer0_1_MEMBER_4_MEMBER_6_MEMBER_0_FILL">
					<path class="st4" d="M997.73-40.32l-0.1,2.3c0.1,1.77,0.43,3.42,1,4.95c1.73,4.8,5.53,7.2,11.4,7.2c5.83,0,9.65-2.4,11.45-7.2
						c0.57-1.53,0.9-3.18,1-4.95l-0.1-2.3H997.73z"/>
				</g>
			</g>
		</g>
		<g transform="matrix( 1.413360595703125, 0, 0, 1.413360595703125, -593.5,195.15) ">
			<g>
				<g id="Layer0_1_MEMBER_4_MEMBER_6_MEMBER_1_MEMBER_0_MEMBER_0_FILL">
					<path class="st2" d="M656.32-73.14c0.47-0.83,0.45-1.6-0.05-2.3c-0.13-0.27-0.37-0.43-0.7-0.5c-0.3-0.07-0.58-0.02-0.85,0.15
						c-0.27,0.17-0.42,0.4-0.45,0.7c-0.07,0.33-0.02,0.62,0.15,0.85l-0.1,0.05c-0.3,0.57-1.35,1.08-3.15,1.55
						c-3.17,0.8-8.02,1.2-14.55,1.2c-6.17,0-10.85-0.37-14.05-1.1c-1.9-0.43-3.1-0.95-3.6-1.55l-0.1-0.2c0.27-0.6,0.13-1.1-0.4-1.5
						c-0.23-0.17-0.52-0.22-0.85-0.15c-0.3,0.07-0.53,0.23-0.7,0.5c-0.43,0.73-0.43,1.5,0,2.3c1.43,2.63,8,3.95,19.7,3.95
						S654.89-70.51,656.32-73.14z"/>
				</g>
			</g>
		</g>
		<g transform="matrix( 1.41387939453125, 0, 0, 1.41387939453125, -593.5,195.15) ">
			<g>
				<g id="Layer0_1_MEMBER_4_MEMBER_6_MEMBER_2_MEMBER_0_FILL">
					<path class="st2" d="M644.42-62.07c1.27-1.4,2.08-3.23,2.45-5.5c0.1-2,0.15-3.03,0.15-3.1l-2,0.2l-0.1,2.5
						c-0.3,1.9-0.97,3.42-2,4.55c-1.3,1.47-3.23,2.2-5.8,2.2c-2.5,0-4.43-0.73-5.8-2.2c-1.03-1.13-1.68-2.65-1.95-4.55l-0.15-2.5
						l-2-0.2c0,0.07,0.05,1.1,0.15,3.1c0.37,2.27,1.2,4.1,2.5,5.5c1.73,1.9,4.15,2.85,7.25,2.85
						C640.19-59.22,642.62-60.17,644.42-62.07z"/>
				</g>
			</g>
		</g>
		<g transform="matrix( -0.904327392578125, -1.086944580078125, -1.086944580078125, 0.904327392578125, 2095.35,1691.75) ">
			<g>
				<g id="Layer0_1_MEMBER_4_MEMBER_7_MEMBER_0_FILL">
					<path class="st0" d="M1686.88,277.74c-0.7,0.13-1.23,0.5-1.6,1.1c-0.07,0.13-1.2,2.45-3.4,6.95c-2.07,5.4-2.9,10.53-2.5,15.4
						c0.07,0.67,0.35,1.23,0.85,1.7c0.53,0.47,1.15,0.67,1.85,0.6l0.35-0.1c0.6-0.13,1.08-0.43,1.45-0.9c0.4-0.5,0.57-1.07,0.5-1.7
						c-0.33-4.13,0.42-8.57,2.25-13.3c1.9-3.9,2.85-5.88,2.85-5.95c0.37-0.57,0.48-1.18,0.35-1.85c-0.13-0.7-0.48-1.23-1.05-1.6
						C1688.18,277.72,1687.55,277.6,1686.88,277.74z"/>
				</g>
			</g>
		</g>
		<g transform="matrix( -0.90435791015625, -1.08697509765625, -1.08697509765625, 0.90435791015625, 2095.35,1691.75) ">
			<g>
				<g id="Layer0_1_MEMBER_4_MEMBER_7_MEMBER_1_FILL">
					<path class="st0" d="M1687.16,297.14c-0.3-1.33-1.02-2.3-2.15-2.9c-1.13-0.6-2.35-0.65-3.65-0.15s-2.3,1.4-3,2.7
						c-0.7,1.3-0.9,2.63-0.6,4c0.3,1.33,1.02,2.3,2.15,2.9c1.13,0.6,2.35,0.65,3.65,0.15c1.3-0.5,2.3-1.4,3-2.7
						C1687.26,299.84,1687.46,298.51,1687.16,297.14z"/>
				</g>
			</g>
		</g>
		<g transform="matrix( 1.413970947265625, 0, 0, -1.413970947265625, -1157.1,1771.75) ">
			<g>
				<g id="Layer0_1_MEMBER_4_MEMBER_7_MEMBER_2_FILL">
					<path class="st0" d="M1067.48,1166.53c-0.37-0.6-0.88-0.97-1.55-1.1c-0.7-0.13-1.33-0.02-1.9,0.35
						c-0.57,0.37-0.92,0.9-1.05,1.6c-0.13,0.67-0.02,1.28,0.35,1.85c0.03,0.07,0.98,2.05,2.85,5.95c1.83,4.73,2.58,9.17,2.25,13.3
						c-0.03,0.63,0.13,1.2,0.5,1.7c0.37,0.47,0.85,0.77,1.45,0.9l0.35,0.1c0.67,0.07,1.27-0.13,1.8-0.6c0.57-0.47,0.87-1.03,0.9-1.7
						c0.4-4.87-0.43-10-2.5-15.4C1068.73,1168.98,1067.58,1166.67,1067.48,1166.53z"/>
				</g>
			</g>
		</g>
		<g transform="matrix( 1.41400146484375, 0, 0, -1.41400146484375, -1157.1,1771.75) ">
			<g>
				<g id="Layer0_1_MEMBER_4_MEMBER_7_MEMBER_3_FILL">
					<path class="st0" d="M1067.78,1181.92c-1.13,0.6-1.85,1.57-2.15,2.9c-0.3,1.37-0.1,2.7,0.6,4c0.7,1.3,1.7,2.2,3,2.7
						s2.52,0.45,3.65-0.15c1.13-0.6,1.85-1.57,2.15-2.9c0.3-1.37,0.1-2.7-0.6-4s-1.7-2.2-3-2.7S1068.92,1181.32,1067.78,1181.92z"/>
				</g>
			</g>
		</g>
	</g>
	<g>
		<g transform="matrix( -1.361328125, 0.3824615478515625, 0.3824615478515625, 1.361328125, 1179.65,-261.95) ">
			<g>
				<g id="Layer0_1_MEMBER_5_MEMBER_0_FILL">
					<path class="st0" d="M837.29,8.01c-8.67,0-16.05,3.05-22.15,9.15c-6.13,6.13-9.2,13.53-9.2,22.2c0,8.67,3.07,16.05,9.2,22.15
						c6.13,6.13,13.52,9.2,22.15,9.2c8.67,0,16.07-3.07,22.2-9.2c6.1-6.1,9.15-13.48,9.15-22.15c0-8.67-3.05-16.07-9.15-22.2
						C853.36,11.06,845.96,8.01,837.29,8.01z"/>
				</g>
			</g>
		</g>
		<g transform="matrix( -1.361328125, 0.3824615478515625, 0.3824615478515625, 1.361328125, 1179.65,-261.95) ">
			<g>
				<g id="Layer0_1_MEMBER_5_MEMBER_1_MEMBER_0_MEMBER_0_FILL">
					<path class="st10" d="M848.54,63.86c0-0.8-0.28-1.48-0.85-2.05c-0.57-0.57-1.23-0.85-2-0.85c-0.8,0-1.48,0.28-2.05,0.85
						c-0.57,0.57-0.85,1.25-0.85,2.05v18.9c-0.23,1.1-0.02,2.07,0.65,2.9c0.63,0.7,1.32,1.2,2.05,1.5c0.83,0.3,1.9,0.45,3.2,0.45
						c1.3,0,2.33-0.33,3.1-1c0.7-0.63,1.05-1.45,1.05-2.45c0-0.97-0.4-1.8-1.2-2.5c-0.8-0.67-1.78-1-2.95-1h-0.15V63.86z"/>
				</g>
			</g>
		</g>
		<g transform="matrix( -1.361328125, 0.3824615478515625, 0.3824615478515625, 1.361328125, 1179.65,-261.95) ">
			<g>
				<g id="Layer0_1_MEMBER_5_MEMBER_1_MEMBER_0_MEMBER_1_FILL">
					<path class="st10" d="M823.24,63.66c0.57-0.53,0.85-1.2,0.85-2s-0.28-1.48-0.85-2.05c-0.53-0.53-1.2-0.8-2-0.8
						c-0.8,0-1.48,0.27-2.05,0.8l-11.9,11.9l-0.1-0.1c-0.83-0.8-1.77-1.25-2.8-1.35c-1.07-0.1-1.93,0.18-2.6,0.85
						c-0.7,0.73-1.03,1.57-1,2.5c0.07,1.03,0.57,2,1.5,2.9c0.93,0.93,1.78,1.57,2.55,1.9c0.77,0.33,1.6,0.47,2.5,0.4
						c1.13-0.07,1.97-0.58,2.5-1.55L823.24,63.66z"/>
				</g>
			</g>
		</g>
		<g transform="matrix( -1.361328125, 0.3824615478515625, 0.3824615478515625, 1.361328125, 1179.65,-261.95) ">
			<g>
				<g id="Layer0_1_MEMBER_5_MEMBER_1_MEMBER_1_MEMBER_0_FILL">
					<path class="st10" d="M837.99,51.36c-14.07,0-24.42-1.5-31.05-4.5c1.73,6.93,5.4,12.62,11,17.05c5.7,4.53,12.18,6.8,19.45,6.8
						c7.17,0,13.58-2.2,19.25-6.6c5.53-4.33,9.22-9.88,11.05-16.65C860.89,50.06,850.99,51.36,837.99,51.36z"/>
				</g>
			</g>
		</g>
		<g transform="matrix( -1.361053466796875, 0.38238525390625, 0.38238525390625, 1.361053466796875, 1179.65,-261.95) ">
			<g transform="matrix( -0.68096923828125, 0.191314697265625, 0.191314697265625, 0.68096923828125, 853.4,-47.3) ">
				<path id="Layer0_1_MEMBER_5_MEMBER_2_MEMBER_0_1_STROKES" class="st11" d="M825.62,24.73c0-1.23,0.45-2.3,1.35-3.2
					c0.9-0.9,1.97-1.35,3.2-1.35c1.27,0,2.33,0.45,3.2,1.35c0.9,0.9,1.35,1.97,1.35,3.2"/>
			</g>
		</g>
		<g transform="matrix( -1.361053466796875, 0.38238525390625, 0.38238525390625, 1.361053466796875, 1179.65,-261.95) ">
			<g transform="matrix( -0.68096923828125, 0.191314697265625, 0.191314697265625, 0.68096923828125, 853.4,-47.3) ">
				<path id="Layer0_1_MEMBER_5_MEMBER_2_MEMBER_1_1_STROKES" class="st11" d="M839.87,24.73c0-1.23,0.45-2.3,1.35-3.2
					c0.9-0.9,1.97-1.35,3.2-1.35c1.27,0,2.33,0.45,3.2,1.35c0.9,0.9,1.35,1.97,1.35,3.2"/>
			</g>
		</g>
		<g transform="matrix( -1.361328125, 0.3824615478515625, 0.3824615478515625, 1.361328125, 1179.65,-261.95) ">
			<g>
				<g id="Layer0_1_MEMBER_5_MEMBER_3_MEMBER_0_FILL">
					<path class="st0" d="M798.29,24.71c-1.03-1.03-2.28-1.55-3.75-1.55s-2.73,0.52-3.8,1.55c-1.03,1.07-1.55,2.33-1.55,3.8
						c0,1.47,0.52,2.72,1.55,3.75c1.07,1.07,2.33,1.6,3.8,1.6s2.72-0.53,3.75-1.6c1.03-1.03,1.55-2.28,1.55-3.75
						S799.33,25.77,798.29,24.71z"/>
				</g>
			</g>
		</g>
		<g transform="matrix( -1, 0, 0, 1, 804.8,105.75) ">
			<g transform="matrix( -1, 0, 0, 1, 804.8,-105.75) ">
				<path id="Layer0_1_MEMBER_5_MEMBER_3_MEMBER_1_1_STROKES" class="st12" d="M696.7-21.62l-0.25,3.5c0,2.83,0.48,5.57,1.45,8.2
					c3.17,8.43,10.58,14.25,22.25,17.45"/>
			</g>
		</g>
		<g transform="matrix( -1.361328125, 0.3824615478515625, 0.3824615478515625, 1.361328125, 1179.65,-261.95) ">
			<g>
				<g id="Layer0_1_MEMBER_5_MEMBER_4_MEMBER_0_FILL">
					<path class="st0" d="M881.29,55.01c-1.07-1.03-2.32-1.55-3.75-1.55c-1.5,0.03-2.77,0.57-3.8,1.6s-1.55,2.28-1.55,3.75
						c0,1.47,0.52,2.72,1.55,3.75c1.07,1.07,2.33,1.6,3.8,1.6c1.47,0,2.72-0.53,3.75-1.6c1.03-1.03,1.55-2.28,1.55-3.75
						S882.33,56.07,881.29,55.01z"/>
				</g>
			</g>
		</g>
		<g transform="matrix( -1.361328125, 0.3824615478515625, 0.3824615478515625, 1.361328125, 1179.65,-261.95) ">
			<g transform="matrix( -0.6808319091796875, 0.1912689208984375, 0.1912689208984375, 0.6808319091796875, 853.25,-47.25) ">
				<path id="Layer0_1_MEMBER_5_MEMBER_4_MEMBER_1_1_STROKES" class="st13" d="M863.63,45.1l2.35-0.3c1.87-0.1,3.55,0.08,5.05,0.55
					c4.8,1.53,6.93,5.73,6.4,12.6"/>
			</g>
		</g>
		<g transform="matrix( -1.361053466796875, 0.38238525390625, 0.38238525390625, 1.361053466796875, 1179.65,-261.95) ">
			<g transform="matrix( -0.68096923828125, 0.191314697265625, 0.191314697265625, 0.68096923828125, 853.4,-47.3) ">
				<path id="Layer0_1_MEMBER_5_MEMBER_5_MEMBER_0_1_STROKES" class="st14" d="M820.37,23.03l2.05,4.55"/>
			</g>
		</g>
		<g transform="matrix( -1.361053466796875, 0.38238525390625, 0.38238525390625, 1.361053466796875, 1179.65,-261.95) ">
			<g transform="matrix( -0.68096923828125, 0.191314697265625, 0.191314697265625, 0.68096923828125, 853.4,-47.3) ">
				<path id="Layer0_1_MEMBER_5_MEMBER_5_MEMBER_1_1_STROKES" class="st14" d="M817.77,23.03l2.1,4.55"/>
			</g>
		</g>
		<g transform="matrix( -1.361053466796875, 0.38238525390625, 0.38238525390625, 1.361053466796875, 1179.65,-261.95) ">
			<g transform="matrix( -0.68096923828125, 0.191314697265625, 0.191314697265625, 0.68096923828125, 853.4,-47.3) ">
				<path id="Layer0_1_MEMBER_5_MEMBER_5_MEMBER_2_1_STROKES" class="st14" d="M815.22,23.03l2.05,4.55"/>
			</g>
		</g>
		<g transform="matrix( -1.361053466796875, 0.38238525390625, 0.38238525390625, 1.361053466796875, 1179.65,-261.95) ">
			<g transform="matrix( -0.68096923828125, 0.191314697265625, 0.191314697265625, 0.68096923828125, 853.4,-47.3) ">
				<path id="Layer0_1_MEMBER_5_MEMBER_6_MEMBER_0_1_STROKES" class="st14" d="M857.07,23.03l2.1,4.55"/>
			</g>
		</g>
		<g transform="matrix( -1.361053466796875, 0.38238525390625, 0.38238525390625, 1.361053466796875, 1179.65,-261.95) ">
			<g transform="matrix( -0.68096923828125, 0.191314697265625, 0.191314697265625, 0.68096923828125, 853.4,-47.3) ">
				<path id="Layer0_1_MEMBER_5_MEMBER_6_MEMBER_1_1_STROKES" class="st14" d="M854.52,23.03l2.05,4.55"/>
			</g>
		</g>
		<g transform="matrix( -1.361053466796875, 0.38238525390625, 0.38238525390625, 1.361053466796875, 1179.65,-261.95) ">
			<g transform="matrix( -0.68096923828125, 0.191314697265625, 0.191314697265625, 0.68096923828125, 853.4,-47.3) ">
				<path id="Layer0_1_MEMBER_5_MEMBER_6_MEMBER_2_1_STROKES" class="st14" d="M851.97,23.03l2.05,4.55"/>
			</g>
		</g>
		<g transform="matrix( -1.36083984375, 0.38232421875, 0.38232421875, 1.36083984375, 1179.65,-261.95) ">
			<g>
				<g id="Layer0_1_MEMBER_5_MEMBER_7_MEMBER_0_MEMBER_0_FILL">
					<path class="st2" d="M817.66,25.38c-0.47,0.67-0.47,1.43,0,2.3c1.4,2.63,7.95,3.95,19.65,3.95s18.27-1.32,19.7-3.95
						c0.47-0.87,0.47-1.63,0-2.3c-0.17-0.27-0.4-0.42-0.7-0.45c-0.3-0.07-0.58-0.02-0.85,0.15c-0.27,0.17-0.42,0.4-0.45,0.7
						c-0.07,0.3-0.02,0.58,0.15,0.85h-0.1c-0.3,0.57-1.35,1.08-3.15,1.55c-3.17,0.8-8.03,1.2-14.6,1.2c-6.17,0-10.83-0.37-14-1.1
						c-1.93-0.43-3.13-0.95-3.6-1.55l-0.15-0.2c0.17-0.23,0.22-0.5,0.15-0.8c-0.07-0.27-0.23-0.48-0.5-0.65
						c-0.27-0.17-0.55-0.22-0.85-0.15C818.06,24.96,817.82,25.11,817.66,25.38z"/>
				</g>
			</g>
		</g>
		<g transform="matrix( -1.4393310546875, 0.412841796875, 0.407562255859375, 1.4208984375, 1603.15,-563.8) ">
			<g>
				<g id="Layer0_1_MEMBER_5_MEMBER_8_MEMBER_0_FILL">
					<path class="st0" d="M1119.66,98.99c-0.53,0.57-0.8,1.22-0.8,1.95v25.8c0,0.77,0.27,1.42,0.8,1.95c0.57,0.53,1.22,0.8,1.95,0.8
						c0.77,0,1.43-0.27,2-0.8c0.53-0.53,0.8-1.18,0.8-1.95v-25.8c0-0.77-0.27-1.42-0.8-1.95c-0.57-0.53-1.23-0.8-2-0.8
						C1120.87,98.19,1120.22,98.45,1119.66,98.99z"/>
				</g>
			</g>
		</g>
		<g transform="matrix( -1.0836181640625, 0.310821533203125, 0.310821533203125, 1.0836181640625, 1375.75,-338.75) ">
			<g>
				<g id="Layer0_1_MEMBER_5_MEMBER_8_MEMBER_1_FILL">
					<path class="st0" d="M1239.99,11.59c6.73-5.09,13.58-4.48,20.55,1.85c1.4,0.57,2.02-0.12,1.85-2.05
						c0.1-10.79-7.12-17.09-21.65-18.9L1239.99,11.59z"/>
				</g>
			</g>
		</g>
	</g>
	<g>
		<g transform="matrix( 1.3539581298828125, 0.4071502685546875, -0.4071502685546875, 1.3539581298828125, 648.45,-88.85) ">
			<g>
				<g id="Layer0_1_MEMBER_6_MEMBER_0_FILL">
					<path class="st0" d="M625.99-72.63c-8.67,0-16.07,3.07-22.2,9.2c-6.1,6.1-9.15,13.48-9.15,22.15c0,8.67,3.05,16.07,9.15,22.2
						c6.13,6.1,13.53,9.15,22.2,9.15c8.67,0,16.05-3.05,22.15-9.15c6.13-6.13,9.2-13.53,9.2-22.2c0-8.63-3.07-16.02-9.2-22.15
						C642.04-69.56,634.65-72.63,625.99-72.63z"/>
				</g>
			</g>
		</g>
		<g transform="matrix( 1.155517578125, 0.81463623046875, -0.81463623046875, 1.155517578125, 1017.15,-296.5) ">
			<g>
				<g id="Layer0_1_MEMBER_6_MEMBER_1_FILL">
					<path class="st0" d="M449.43-18.51l-1.95-1.95v12.1c0.8,1.03,2.45,1.67,4.95,1.9c1.97,0.2,3.8,0.13,5.5-0.2
						c1.37-0.27,2.63-0.33,3.8-0.2c1.23,0.1,2.1,0.38,2.6,0.85c1,0.93,1.47,2.15,1.4,3.65c-0.07,1.17-0.42,2.25-1.05,3.25
						c-0.13,0.17-0.13,0.33,0,0.5c0.13,0.13,0.28,0.17,0.45,0.1c2.27-0.87,3.87-2.3,4.8-4.3c0.9-1.87,1.1-3.85,0.6-5.95
						c-0.53-2.13-1.67-3.9-3.4-5.3c-1.9-1.53-4.23-2.32-7-2.35C455.26-16.48,451.69-17.18,449.43-18.51z"/>
				</g>
			</g>
		</g>
		<g transform="matrix( 1.155517578125, 0.81463623046875, -0.81463623046875, 1.155517578125, 1017.15,-296.5) ">
			<g>
				<g id="Layer0_1_MEMBER_6_MEMBER_2_FILL">
					<path class="st0" d="M447.03-22.91c-0.77,0-1.42,0.27-1.95,0.8c-0.53,0.57-0.8,1.23-0.8,2v25.8c0,0.77,0.27,1.42,0.8,1.95
						c0.57,0.53,1.22,0.8,1.95,0.8c0.77,0,1.43-0.27,2-0.8c0.53-0.53,0.8-1.18,0.8-1.95v-25.8c0-0.77-0.27-1.43-0.8-2
						C448.46-22.64,447.79-22.91,447.03-22.91z"/>
				</g>
			</g>
		</g>
		<g transform="matrix( 1.19293212890625, -0.7583770751953125, 0.7583770751953125, 1.19293212890625, 109.35,908.25) ">
			<g>
				<g id="Layer0_1_MEMBER_6_MEMBER_3_MEMBER_0_FILL">
					<path class="st15" d="M1129.87,76.89c-0.57-0.57-1.23-0.85-2-0.85c-0.8,0-1.47,0.28-2,0.85c-0.57,0.57-0.85,1.23-0.85,2v18.95
						c-0.33,1.03-0.13,1.98,0.6,2.85c0.6,0.73,1.28,1.25,2.05,1.55c0.8,0.3,1.87,0.45,3.2,0.45c1.3,0,2.33-0.33,3.1-1
						c0.7-0.67,1.05-1.5,1.05-2.5c0-0.97-0.4-1.78-1.2-2.45c-0.83-0.67-1.82-1-2.95-1h-0.15V78.89
						C1130.72,78.12,1130.44,77.46,1129.87,76.89z"/>
				</g>
			</g>
		</g>
		<g transform="matrix( 1.3703155517578125, -0.3471832275390625, 0.3471832275390625, 1.3703155517578125, 197.45,472.55) ">
			<g>
				<g id="Layer0_1_MEMBER_6_MEMBER_3_MEMBER_1_FILL">
					<path class="st15" d="M939.89-9.22c-0.77,0-1.43,0.28-2,0.85c-0.57,0.57-0.85,1.23-0.85,2v16.85l-0.15,0
						c-1.13,0-2.12,0.33-2.95,1c-0.8,0.67-1.2,1.48-1.2,2.45c0,1,0.35,1.83,1.05,2.5c0.77,0.67,1.8,1,3.1,1
						c1.33,0,2.4-0.15,3.2-0.45c0.77-0.3,1.45-0.82,2.05-1.55c0.67-0.8,0.88-1.75,0.65-2.85V-6.37c0-0.77-0.28-1.43-0.85-2
						C941.37-8.93,940.69-9.22,939.89-9.22z"/>
				</g>
			</g>
		</g>
		<g transform="matrix( 1.3537750244140625, 0.4070587158203125, -0.4070587158203125, 1.3537750244140625, 648.15,-88.8) ">
			<g>
				<g id="Layer0_1_MEMBER_6_MEMBER_3_MEMBER_2_FILL">
					<path class="st15" d="M606.58-16.81c5.7,4.53,12.18,6.8,19.45,6.8c7.17,0,13.58-2.2,19.25-6.6c5.53-4.33,9.22-9.88,11.05-16.65
						c-6.87,2.63-16.75,3.95-29.65,3.95c-14.03,0-24.4-1.5-31.1-4.5C597.31-26.91,600.98-21.25,606.58-16.81z"/>
				</g>
			</g>
		</g>
		<g transform="matrix( 1.3539581298828125, 0.4071502685546875, -0.4071502685546875, 1.3539581298828125, 648.45,-88.85) ">
			<g transform="matrix( 0.6773223876953125, -0.20367431640625, 0.20367431640625, 0.6773223876953125, -421.1,192.25) ">
				<path id="Layer0_1_MEMBER_6_MEMBER_4_1_STROKES" class="st11" d="M637.59-64.23l-4.5,2l4.5,2.55"/>
			</g>
		</g>
		<g transform="matrix( 1.3539581298828125, 0.4071502685546875, -0.4071502685546875, 1.3539581298828125, 648.45,-88.85) ">
			<g transform="matrix( 0.6773223876953125, -0.20367431640625, 0.20367431640625, 0.6773223876953125, -421.1,192.25) ">
				<path id="Layer0_1_MEMBER_6_MEMBER_5_1_STROKES" class="st11" d="M614.34-64.23l4.5,2l-4.5,2.55"/>
			</g>
		</g>
		<g transform="matrix( 0.95733642578125, 0.2878570556640625, -0.2878570556640625, 0.95733642578125, 561.1,-176.8) ">
			<g>
				<g id="Layer0_1_MEMBER_6_MEMBER_6_MEMBER_0_FILL">
					<path class="st4" d="M982.58-17.89l-0.1,2.3c0.1,1.77,0.43,3.42,1,4.95c1.73,4.8,5.53,7.2,11.4,7.2c5.83,0,9.65-2.4,11.45-7.2
						c0.57-1.53,0.9-3.18,1-4.95l-0.1-2.3L982.58-17.89z"/>
				</g>
			</g>
		</g>
		<g transform="matrix( 1.3529205322265625, 0.40679931640625, -0.40679931640625, 1.3529205322265625, 648.35,-88.65) ">
			<g>
				<g id="Layer0_1_MEMBER_6_MEMBER_6_MEMBER_1_MEMBER_0_MEMBER_0_FILL">
					<path class="st2" d="M645.59-57.33c0.47-0.83,0.45-1.6-0.05-2.3c-0.13-0.27-0.37-0.43-0.7-0.5c-0.3-0.07-0.58-0.02-0.85,0.15
						c-0.27,0.17-0.42,0.4-0.45,0.7c-0.07,0.33-0.02,0.62,0.15,0.85l-0.1,0.05c-0.3,0.57-1.35,1.08-3.15,1.55
						c-3.17,0.8-8.02,1.2-14.55,1.2c-6.17,0-10.85-0.37-14.05-1.1c-1.9-0.43-3.1-0.95-3.6-1.55l-0.1-0.2c0.27-0.6,0.13-1.1-0.4-1.5
						c-0.23-0.17-0.52-0.22-0.85-0.15c-0.3,0.07-0.53,0.23-0.7,0.5c-0.43,0.73-0.43,1.5,0,2.3c1.43,2.63,8,3.95,19.7,3.95
						C637.59-53.38,644.16-54.7,645.59-57.33z"/>
				</g>
			</g>
		</g>
		<g transform="matrix( 1.3533782958984375, 0.4069366455078125, -0.4069366455078125, 1.3533782958984375, 648.35,-88.65) ">
			<g>
				<g id="Layer0_1_MEMBER_6_MEMBER_6_MEMBER_2_MEMBER_0_FILL">
					<path class="st2" d="M633.69-46.29c1.27-1.4,2.08-3.23,2.45-5.5c0.1-2,0.15-3.03,0.15-3.1l-2,0.2l-0.1,2.5
						c-0.3,1.9-0.97,3.42-2,4.55c-1.3,1.47-3.23,2.2-5.8,2.2c-2.5,0-4.43-0.73-5.8-2.2c-1.03-1.13-1.68-2.65-1.95-4.55l-0.15-2.5
						l-2-0.2c0,0.07,0.05,1.1,0.15,3.1c0.37,2.27,1.2,4.1,2.5,5.5c1.73,1.9,4.15,2.85,7.25,2.85
						C629.46-43.44,631.89-44.39,633.69-46.29z"/>
				</g>
			</g>
		</g>
		<g transform="matrix( 1.41278076171875, -0.0444183349609375, -0.0444183349609375, -1.41278076171875, -160.7,1801.35) ">
			<g>
				<g id="Layer0_1_MEMBER_6_MEMBER_7_MEMBER_0_FILL">
					<path class="st0" d="M1191.15,1164.31c-0.7,0.13-1.23,0.5-1.6,1.1c-0.07,0.13-1.2,2.45-3.4,6.95c-2.07,5.4-2.9,10.53-2.5,15.4
						c0.07,0.67,0.35,1.23,0.85,1.7c0.53,0.47,1.15,0.67,1.85,0.6l0.35-0.1c0.6-0.13,1.08-0.43,1.45-0.9c0.4-0.5,0.57-1.07,0.5-1.7
						c-0.33-4.13,0.42-8.57,2.25-13.3c1.9-3.9,2.85-5.88,2.85-5.95c0.37-0.57,0.48-1.18,0.35-1.85c-0.13-0.7-0.48-1.23-1.05-1.6
						C1192.45,1164.29,1191.82,1164.18,1191.15,1164.31z"/>
				</g>
			</g>
		</g>
		<g transform="matrix( 1.412811279296875, -0.0444183349609375, -0.0444183349609375, -1.412811279296875, -160.7,1801.35) ">
			<g>
				<g id="Layer0_1_MEMBER_6_MEMBER_7_MEMBER_1_FILL">
					<path class="st0" d="M1191.45,1183.7c-0.3-1.33-1.02-2.3-2.15-2.9c-1.13-0.6-2.35-0.65-3.65-0.15s-2.3,1.4-3,2.7
						c-0.7,1.3-0.9,2.63-0.6,4c0.3,1.33,1.02,2.3,2.15,2.9c1.13,0.6,2.35,0.65,3.65,0.15c1.3-0.5,2.3-1.4,3-2.7
						C1191.55,1186.4,1191.75,1185.06,1191.45,1183.7z"/>
				</g>
			</g>
		</g>
		<g transform="matrix( 0.4375762939453125, 1.34405517578125, 1.34405517578125, -0.4375762939453125, 222.45,-383.35) ">
			<g>
				<g id="Layer0_1_MEMBER_6_MEMBER_7_MEMBER_2_FILL">
					<path class="st0" d="M635.5,781.59c-0.37-0.6-0.88-0.97-1.55-1.1c-0.7-0.13-1.33-0.02-1.9,0.35c-0.57,0.37-0.92,0.9-1.05,1.6
						c-0.13,0.67-0.02,1.28,0.35,1.85c0.03,0.07,0.98,2.05,2.85,5.95c1.83,4.73,2.58,9.17,2.25,13.3c-0.03,0.63,0.13,1.2,0.5,1.7
						c0.37,0.47,0.85,0.77,1.45,0.9l0.35,0.1c0.67,0.07,1.27-0.13,1.8-0.6c0.57-0.47,0.87-1.03,0.9-1.7c0.4-4.87-0.43-10-2.5-15.4
						C636.75,784.04,635.6,781.72,635.5,781.59z"/>
				</g>
			</g>
		</g>
		<g transform="matrix( 0.437591552734375, 1.34405517578125, 1.34405517578125, -0.437591552734375, 222.45,-383.35) ">
			<g>
				<g id="Layer0_1_MEMBER_6_MEMBER_7_MEMBER_3_FILL">
					<path class="st0" d="M635.8,796.99c-1.13,0.6-1.85,1.57-2.15,2.9c-0.3,1.37-0.1,2.7,0.6,4c0.7,1.3,1.7,2.2,3,2.7
						s2.52,0.45,3.65-0.15c1.13-0.6,1.85-1.57,2.15-2.9c0.3-1.37,0.1-2.7-0.6-4c-0.7-1.3-1.7-2.2-3-2.7S636.94,796.39,635.8,796.99z
						"/>
				</g>
			</g>
		</g>
	</g>
</g>
</svg>
