<?xml version="1.0" encoding="utf-8"?>
<!-- Generator: Adobe Illustrator 24.2.0, SVG Export Plug-In . SVG Version: 6.00 Build 0)  -->
<svg version="1.1" id="Layer_1" xmlns="http://www.w3.org/2000/svg" xmlns:xlink="http://www.w3.org/1999/xlink" x="0px" y="0px"
	 viewBox="0 0 55.94 74.34" style="enable-background:new 0 0 55.94 74.34;" xml:space="preserve">
<style type="text/css">
	.st0{fill:#404041;}
	.st1{fill:#EB9F32;}
	.st2{fill:#D92828;}
	.st3{fill:#93BC40;}
</style>
<g>
	<polygon class="st0" points="24.78,25.08 22.24,26.37 14.41,11.04 16.95,9.75 	"/>
	<path class="st1" d="M17.39,6.62c0.44,2.25-1.04,4.43-3.29,4.86c-2.26,0.44-4.44-1.03-4.87-3.3c-0.43-2.24,1.04-4.43,3.29-4.86
		C14.78,2.9,16.95,4.37,17.39,6.62"/>
	<path class="st0" d="M16.37,12.07c-0.61,0.4-1.29,0.68-2.01,0.82c-1.46,0.28-2.95-0.02-4.19-0.86c-1.23-0.83-2.07-2.1-2.35-3.57
		C7.4,6.23,8.35,3.98,10.24,2.74c0.61-0.4,1.29-0.68,2.01-0.82c1.46-0.28,2.95,0.02,4.19,0.86c1.24,0.84,2.08,2.1,2.35,3.56
		C19.22,8.58,18.28,10.82,16.37,12.07 M11.81,5.13c-0.92,0.61-1.39,1.7-1.18,2.79c0.14,0.71,0.54,1.34,1.16,1.75
		c0.6,0.4,1.32,0.55,2.03,0.41c1.46-0.28,2.44-1.76,2.16-3.19c-0.14-0.71-0.55-1.33-1.15-1.74c-0.6-0.4-1.33-0.55-2.04-0.41
		C12.44,4.8,12.11,4.94,11.81,5.13"/>
	
		<rect x="17.38" y="16.39" transform="matrix(0.0895 -0.996 0.996 0.0895 5.9236 42.1051)" class="st0" width="17.21" height="2.85"/>
	<path class="st2" d="M23.78,6.38c0.44,2.25,2.61,3.72,4.87,3.28c2.26-0.43,3.72-2.61,3.29-4.86c-0.44-2.25-2.61-3.73-4.86-3.29
		C24.82,1.94,23.34,4.12,23.78,6.38"/>
	<path class="st0" d="M30.92,10.25L30.92,10.25c-0.61,0.4-1.29,0.67-2.01,0.81c-3.02,0.59-5.95-1.4-6.54-4.42
		c-0.43-2.23,0.52-4.48,2.42-5.72c0.61-0.41,1.28-0.68,2-0.82c1.47-0.28,2.95,0.02,4.18,0.86c1.24,0.84,2.08,2.1,2.36,3.56
		C33.77,6.76,32.82,9,30.92,10.25 M26.36,3.31c-0.93,0.6-1.39,1.7-1.18,2.79c0.28,1.48,1.72,2.44,3.19,2.16
		c1.46-0.28,2.44-1.75,2.16-3.19c-0.14-0.71-0.54-1.33-1.15-1.74c-0.61-0.41-1.33-0.56-2.05-0.42C26.99,2.98,26.66,3.1,26.36,3.31"
		/>
	<path class="st3" d="M54.02,41.34C56.8,55.73,47.39,69.64,33,72.43C18.61,75.21,4.69,65.79,1.91,51.4
		c-2.78-14.39,6.64-28.3,21.02-31.09C37.33,17.53,51.24,26.94,54.02,41.34"/>
	<path class="st0" d="M43.32,69.75c-3.05,2.01-6.44,3.37-10.05,4.08c-7.33,1.41-14.78-0.11-20.96-4.3
		C6.11,65.35,1.92,59.01,0.52,51.67C-1.64,40.5,3.1,29.24,12.62,22.99c3.05-2,6.42-3.38,10.05-4.08c7.33-1.41,14.78,0.11,20.96,4.3
		C49.82,27.39,54,33.73,55.42,41.07C57.58,52.25,52.84,63.5,43.32,69.75 M14.18,25.37C5.64,30.98,1.38,41.1,3.31,51.13
		c1.27,6.59,5.04,12.29,10.59,16.04c5.56,3.76,12.24,5.13,18.83,3.85c3.25-0.63,6.29-1.86,9.02-3.66
		c8.54-5.61,12.8-15.72,10.87-25.76c-1.28-6.58-5.04-12.28-10.6-16.04c-5.55-3.75-12.23-5.12-18.83-3.85
		C19.96,22.34,16.92,23.57,14.18,25.37"/>
</g>
</svg>
