<?xml version="1.0" encoding="utf-8"?>
<!-- Generator: Adobe Illustrator 24.2.2, SVG Export Plug-In . SVG Version: 6.00 Build 0)  -->
<svg version="1.1" id="레이어_1" xmlns="http://www.w3.org/2000/svg" xmlns:xlink="http://www.w3.org/1999/xlink" x="0px"
	 y="0px" viewBox="0 0 148.84 423.01" style="enable-background:new 0 0 148.84 423.01;" xml:space="preserve">
<style type="text/css">
	.st0{fill:#FFC7AE;}
	.st1{fill:#E8865B;}
	.st2{fill:#F7EFEB;}
	.st3{fill:#562B25;}
	.st4{fill:#FFA04A;}
	.st5{fill:#683C2C;}
	.st6{fill:#F4AA90;}
	.st7{fill:#D8663F;}
	.st8{fill:none;stroke:#000000;stroke-miterlimit:10;}
	.st9{fill:none;stroke:#020202;stroke-width:2;stroke-linecap:round;stroke-miterlimit:10;}
	.st10{fill:#773326;}
	.st11{fill:#FC9C7E;}
	.st12{fill:#285160;}
	.st13{fill:#AADFF9;}
	.st14{opacity:0.75;}
	.st15{fill:#E2D9D3;}
	.st16{fill:#F9F2EF;}
	.st17{fill:none;stroke:#683C2C;stroke-linecap:round;stroke-miterlimit:10;}
	.st18{fill:none;stroke:#020202;stroke-linecap:round;stroke-miterlimit:10;}
</style>
<g>
	<g>
		<path class="st0" d="M65.07,353.44H37.58l-1.53-41.89c-0.15-6.75,6.78-12.28,15.39-12.28h0c8.62,0,15.56,5.55,15.38,12.31
			L65.07,353.44z"/>
		<path class="st1" d="M36.5,328.74l-0.45-17.19c-0.15-6.75,6.78-12.28,15.39-12.28h0c8.62,0,15.56,5.55,15.38,12.31l-0.51,17.16
			H36.5z"/>
	</g>
	<path class="st0" d="M63.48,388.97H39.95l-2.37-35.17c-0.01-5.96,6.15-10.8,13.75-10.8h0c7.6,0,13.76,4.84,13.75,10.8L63.48,388.97
		z"/>
	<path class="st2" d="M62.69,403.58H39.72L39.1,379.7c0.01-0.22,0.24-0.39,0.52-0.39h24.03c0.28,0,0.51,0.17,0.52,0.39L62.69,403.58
		z"/>
	<path class="st3" d="M60.82,423.01H18.65c-1.51,0-2.29-1.42-1.24-2.28l21.98-17.96h24.77v17.62
		C64.16,421.84,62.67,423.01,60.82,423.01z"/>
	<g>
		<polygon class="st0" points="9.77,281.29 3.64,293.03 16.42,297.89 24.39,293.77 25.58,286.28 23.57,280.29 14.9,277.13 		"/>
		<path class="st0" d="M22.28,302.23L22.28,302.23c-1.22,0-2.2-0.99-2.2-2.2v-8.23c0-1.22,0.99-2.2,2.2-2.2h0
			c1.22,0,2.2,0.99,2.2,2.2v8.23C24.48,301.24,23.5,302.23,22.28,302.23z"/>
		<path class="st0" d="M9.37,307.99L9.37,307.99c-1.1-0.51-1.59-1.81-1.08-2.92l4.47-9.75c0.51-1.1,1.81-1.59,2.92-1.08h0
			c1.1,0.51,1.59,1.81,1.08,2.92l-4.47,9.75C11.78,308.02,10.47,308.5,9.37,307.99z"/>
		<path class="st0" d="M5.85,307.57L5.85,307.57c-1.1-0.51-1.59-1.81-1.08-2.92l4.74-10.34c0.51-1.1,1.81-1.59,2.92-1.08h0
			c1.1,0.51,1.59,1.81,1.08,2.92l-4.74,10.34C8.26,307.59,6.96,308.07,5.85,307.57z"/>
		<path class="st0" d="M3.43,305.63L3.43,305.63c-1.1-0.51-1.59-1.81-1.08-2.92l4.74-10.34c0.51-1.1,1.81-1.59,2.92-1.08h0
			c1.1,0.51,1.59,1.81,1.08,2.92l-4.74,10.34C5.84,305.65,4.53,306.13,3.43,305.63z"/>
		<path class="st0" d="M1.28,303.46L1.28,303.46c-1.1-0.51-1.59-1.81-1.08-2.92l4.74-10.34c0.51-1.1,1.81-1.59,2.92-1.08h0
			c1.1,0.51,1.59,1.81,1.08,2.92L4.2,302.38C3.7,303.48,2.39,303.97,1.28,303.46z"/>
	</g>
	<g>
		<path class="st0" d="M83.72,353.57h27.5l1.53-42.02c0.15-6.75-6.78-12.28-15.39-12.28h0c-8.62,0-15.56,5.55-15.38,12.31
			L83.72,353.57z"/>
		<path class="st1" d="M112.25,328.74l0.5-17.19c0.15-6.75-6.78-12.28-15.39-12.28h0c-8.62,0-15.56,5.55-15.38,12.31l0.57,17.16
			L112.25,328.74z"/>
	</g>
	<path class="st0" d="M85.33,388.97h23.52l2.37-35.17c0.01-5.96-6.15-10.8-13.75-10.8h0c-7.6,0-13.76,4.84-13.75,10.8L85.33,388.97z
		"/>
	<path class="st2" d="M86.12,403.58h22.97l0.62-23.88c-0.01-0.22-0.24-0.39-0.52-0.39H85.16c-0.28,0-0.51,0.17-0.52,0.39
		L86.12,403.58z"/>
	<path class="st3" d="M87.99,423.01h42.17c1.51,0,2.29-1.42,1.24-2.28l-21.98-17.96H84.64v17.62
		C84.64,421.84,86.14,423.01,87.99,423.01z"/>
	<path class="st0" d="M43.23,249.98l-23.44-6.49l16.5-52.24c2.06-6.52,9.01-10.14,15.53-8.08l0,0c6.52,2.06,10.14,9.01,8.08,15.53
		L43.23,249.98z"/>
	<path class="st0" d="M24.48,285.85l-14.57-5.01l10.57-39.53c1.02-3.23,6.63-6.88,14.8-4.33c7.99,2.48,9.65,8.61,8.63,11.85
		L24.48,285.85z"/>
	<g>
		<polygon class="st0" points="139.07,281.29 145.2,293.03 132.43,297.89 124.45,293.77 123.27,286.28 125.27,280.29 133.94,277.13 
					"/>
		<path class="st0" d="M126.56,302.23L126.56,302.23c1.22,0,2.2-0.99,2.2-2.2v-8.23c0-1.22-0.99-2.2-2.2-2.2l0,0
			c-1.22,0-2.2,0.99-2.2,2.2v8.23C124.36,301.24,125.34,302.23,126.56,302.23z"/>
		<path class="st0" d="M139.48,307.99L139.48,307.99c1.1-0.51,1.59-1.81,1.08-2.92l-4.47-9.75c-0.51-1.1-1.81-1.59-2.92-1.08l0,0
			c-1.1,0.51-1.59,1.81-1.08,2.92l4.47,9.75C137.07,308.02,138.37,308.5,139.48,307.99z"/>
		<path class="st0" d="M142.99,307.57L142.99,307.57c1.1-0.51,1.59-1.81,1.08-2.92l-4.74-10.34c-0.51-1.1-1.81-1.59-2.92-1.08l0,0
			c-1.1,0.51-1.59,1.81-1.08,2.92l4.74,10.34C140.58,307.59,141.88,308.07,142.99,307.57z"/>
		<path class="st0" d="M145.42,305.63L145.42,305.63c1.1-0.51,1.59-1.81,1.08-2.92l-4.74-10.34c-0.51-1.1-1.81-1.59-2.92-1.08h0
			c-1.1,0.51-1.59,1.81-1.08,2.92l4.74,10.34C143.01,305.65,144.31,306.13,145.42,305.63z"/>
		<path class="st0" d="M147.56,303.46L147.56,303.46c1.1-0.51,1.59-1.81,1.08-2.92l-4.74-10.34c-0.51-1.1-1.81-1.59-2.92-1.08l0,0
			c-1.1,0.51-1.59,1.81-1.08,2.92l4.74,10.34C145.15,303.48,146.45,303.97,147.56,303.46z"/>
	</g>
	<path class="st0" d="M105.61,249.98l23.44-6.49l-16.5-52.24c-2.06-6.52-9.01-10.14-15.53-8.08l0,0
		c-6.52,2.06-10.14,9.01-8.08,15.53L105.61,249.98z"/>
	<path class="st0" d="M124.36,285.85l14.57-5.01l-10.57-39.53c-1.02-3.23-6.63-6.88-14.8-4.33c-7.99,2.48-9.65,8.61-8.63,11.85
		L124.36,285.85z"/>
	<path class="st4" d="M53.57,228.13l-30.76-17.47l10.75-20.41c3.98-7.55,13.32-10.45,20.87-6.47l0,0
		c7.55,3.98,10.45,13.32,6.47,20.87L53.57,228.13z"/>
	<path class="st4" d="M93.41,227.34l30.76-17.47l-10.75-20.41c-3.98-7.55-13.32-10.45-20.87-6.47l0,0
		c-7.55,3.98-10.45,13.32-6.47,20.87L93.41,227.34z"/>
	<path class="st5" d="M69.83,21.75C-3.84,21.59-2.13,91.32,12.84,128.3c11.73,28.97,54.11,32.44,54.11,32.44s44.33-1.67,58.22-26.51
		C147.22,94.8,140.54,21.72,69.83,21.75z"/>
	<polygon class="st0" points="88.37,186.09 73.25,196.35 58.13,186.09 61.05,148.36 85.05,148.36 	"/>
	<path class="st1" d="M59.05,174.32l1.38-18.68h25.27C86.64,176.6,72.08,177.87,59.05,174.32z"/>
	<ellipse class="st6" cx="16.63" cy="118.8" rx="14.48" ry="15.76"/>
	<ellipse class="st6" cx="122.17" cy="118.8" rx="14.48" ry="15.76"/>
	<path class="st7" d="M124.15,127.15c0,0-5.51-14.42,6.29-13.45"/>
	<path class="st7" d="M15.34,127.15c0,0,5.51-14.42-6.29-13.45"/>
	<path class="st0" d="M15.01,114.26V95.78c0-30.62,24.82-55.45,55.45-55.45h0c30.62,0,55.45,24.82,55.45,55.45v18.48
		c0,30.62-24.82,55.45-55.45,55.45h0C39.84,169.71,15.01,144.88,15.01,114.26z"/>
	<ellipse cx="93.99" cy="111.23" rx="3.71" ry="6.21"/>
	<ellipse cx="48.12" cy="111.23" rx="3.71" ry="6.21"/>
	<path class="st8" d="M70.46,113.71c0,0-6.79,4.85-1.47,9.7"/>
	<path class="st9" d="M41.1,98.19"/>
	<path class="st9" d="M55.13,94.8"/>
	<path class="st10" d="M71.89,138.76h-2.85c-1.84,0-3.32-1.49-3.32-3.32v0c0-1.84,1.49-3.32,3.32-3.32h2.85
		c1.84,0,3.32,1.49,3.32,3.32v0C75.21,137.27,73.72,138.76,71.89,138.76z"/>
	<ellipse class="st11" cx="109.41" cy="125.2" rx="11.45" ry="12.46"/>
	<ellipse class="st11" cx="32.22" cy="125.2" rx="11.45" ry="12.46"/>
	<polygon class="st12" points="71.47,323.35 30.41,323.35 33.6,264.65 71.47,264.65 	"/>
	<polygon class="st12" points="75.75,323.35 116.96,323.35 113.76,264.65 75.75,264.65 	"/>
	<path class="st12" d="M88.89,294H58.32c-13.73,0-24.87-11.13-24.87-24.87v-8.15h80.31v8.15C113.76,282.87,102.63,294,88.89,294z"/>
	<rect x="29.41" y="318.63" class="st13" width="42.06" height="6.06"/>
	<rect x="75.75" y="318.63" class="st13" width="42.06" height="6.06"/>
	<polygon class="st4" points="25.57,284.24 42.08,182.89 57.33,175.85 73.25,187.64 89.09,175.76 104.67,182 121.48,284.24 	"/>
	<g>
		<g class="st14">
			<path class="st15" d="M89.71,175.82l-17.26,12.83c0,0,7.02,5.29,15.42,2.47C96.27,188.3,89.71,175.82,89.71,175.82z"/>
			<path class="st15" d="M56.79,175.82l17.26,12.83c0,0-7.02,5.29-15.42,2.47C50.23,188.3,56.79,175.82,56.79,175.82z"/>
		</g>
		<g>
			<g>
				<path class="st16" d="M89.71,174.82l-17.26,12.83c0,0,7.02,5.29,15.42,2.47C96.27,187.3,89.71,174.82,89.71,174.82z"/>
				<path class="st16" d="M56.79,174.82l17.26,12.83c0,0-7.02,5.29-15.42,2.47C50.23,187.3,56.79,174.82,56.79,174.82z"/>
			</g>
		</g>
	</g>
	<path class="st17" d="M90.28,85.82"/>
	<path class="st17" d="M70.46,38.8"/>
	<path class="st2" d="M42.53,409.69l-7.31-3.31c-0.49-0.22-0.66-0.71-0.38-1.1l0,0c0.28-0.38,0.91-0.52,1.4-0.29l7.31,3.31
		c0.49,0.22,0.66,0.71,0.38,1.1l0,0C43.65,409.78,43.02,409.92,42.53,409.69z"/>
	<path class="st2" d="M38.24,413.66l-7.31-3.31c-0.49-0.22-0.66-0.71-0.38-1.1h0c0.28-0.38,0.91-0.52,1.4-0.29l7.31,3.31
		c0.49,0.22,0.66,0.71,0.38,1.1h0C39.36,413.75,38.73,413.88,38.24,413.66z"/>
	<path class="st2" d="M105.93,409.69l7.31-3.31c0.49-0.22,0.66-0.71,0.38-1.1l0,0c-0.28-0.38-0.91-0.52-1.4-0.29l-7.31,3.31
		c-0.49,0.22-0.66,0.71-0.38,1.1v0C104.82,409.78,105.44,409.92,105.93,409.69z"/>
	<path class="st2" d="M110.22,413.66l7.31-3.31c0.49-0.22,0.66-0.71,0.38-1.1l0,0c-0.28-0.38-0.91-0.52-1.4-0.29l-7.31,3.31
		c-0.49,0.22-0.66,0.71-0.38,1.1l0,0C109.11,413.75,109.73,413.88,110.22,413.66z"/>
	<path class="st5" d="M69.66,24.23c0,0-19.35-4.19-7.65-24.23C62,0,60.23,14.95,69.66,24.23z"/>
	<path class="st18" d="M87.04,88.86c0,0,8.76-3.46,14.83,5.26"/>
	<path class="st18" d="M53.88,88.86c0,0-8.76-3.46-14.83,5.26"/>
	<path class="st5" d="M66.95,34.97c0,0-27.7-5.56-48.47,20.67s-7.13,44.91-7.13,44.91s21.9-2.85,33.05-18.77l-1.65,6.4
		c0,0,27.67-3.06,39.55-22.79c0,0,14.34,30.14,43.58,28.73C125.88,94.12,134.43,28.79,66.95,34.97z"/>
</g>
</svg>
