<?xml version="1.0" encoding="utf-8"?>
<!-- Generator: Adobe Illustrator 24.2.2, SVG Export Plug-In . SVG Version: 6.00 Build 0)  -->
<svg version="1.1" id="레이어_1" xmlns="http://www.w3.org/2000/svg" xmlns:xlink="http://www.w3.org/1999/xlink" x="0px"
	 y="0px" viewBox="0 0 170.28 423.01" style="enable-background:new 0 0 170.28 423.01;" xml:space="preserve">
<style type="text/css">
	.st0{fill:#FFC7AE;}
	.st1{fill:#E8865B;}
	.st2{fill:#F7EFEB;}
	.st3{fill:#193E59;}
	.st4{fill:#FFA04A;}
	.st5{fill:#683C2C;}
	.st6{fill:#F4AA90;}
	.st7{fill:#D8663F;}
	.st8{fill:none;stroke:#000000;stroke-miterlimit:10;}
	.st9{fill:none;stroke:#020202;stroke-width:2;stroke-linecap:round;stroke-miterlimit:10;}
	.st10{fill:#773326;}
	.st11{fill:#FC9C7E;}
	.st12{opacity:0.75;}
	.st13{fill:#E2D9D3;}
	.st14{fill:#F9F2EF;}
	.st15{fill:none;stroke:#683C2C;stroke-linecap:round;stroke-miterlimit:10;}
	.st16{fill:none;stroke:#020202;stroke-linecap:round;stroke-miterlimit:10;}
</style>
<g>
	<g>
		<path class="st0" d="M81.17,353.44H53.68l-1.53-41.89c-0.15-6.75,6.78-12.28,15.39-12.28h0c8.62,0,15.56,5.55,15.38,12.31
			L81.17,353.44z"/>
		<path class="st1" d="M52.6,328.74l-0.45-17.19c-0.15-6.75,6.78-12.28,15.39-12.28h0c8.62,0,15.56,5.55,15.38,12.31l-0.51,17.16
			H52.6z"/>
	</g>
	<path class="st0" d="M79.57,388.97H56.05l-2.37-35.17c-0.01-5.96,6.15-10.8,13.75-10.8h0c7.6,0,13.76,4.84,13.75,10.8L79.57,388.97
		z"/>
	<path class="st2" d="M78.78,403.58H55.81l-0.62-23.88c0.01-0.22,0.24-0.39,0.52-0.39h24.03c0.28,0,0.51,0.17,0.52,0.39
		L78.78,403.58z"/>
	<path class="st3" d="M76.91,423.01H34.74c-1.51,0-2.29-1.42-1.24-2.28l21.98-17.96h24.77v17.62
		C80.26,421.84,78.76,423.01,76.91,423.01z"/>
	<g>
		<polygon class="st0" points="25.86,281.29 19.73,293.03 32.51,297.89 40.49,293.77 41.67,286.28 39.66,280.29 31,277.13 		"/>
		<path class="st0" d="M38.38,302.23L38.38,302.23c-1.22,0-2.2-0.99-2.2-2.2v-8.23c0-1.22,0.99-2.2,2.2-2.2h0
			c1.22,0,2.2,0.99,2.2,2.2v8.23C40.58,301.24,39.59,302.23,38.38,302.23z"/>
		<path class="st0" d="M25.46,307.99L25.46,307.99c-1.1-0.51-1.59-1.81-1.08-2.92l4.47-9.75c0.51-1.1,1.81-1.59,2.92-1.08h0
			c1.1,0.51,1.59,1.81,1.08,2.92l-4.47,9.75C27.87,308.02,26.56,308.5,25.46,307.99z"/>
		<path class="st0" d="M21.95,307.57L21.95,307.57c-1.1-0.51-1.59-1.81-1.08-2.92l4.74-10.34c0.51-1.1,1.81-1.59,2.92-1.08h0
			c1.1,0.51,1.59,1.81,1.08,2.92l-4.74,10.34C24.36,307.59,23.05,308.07,21.95,307.57z"/>
		<path class="st0" d="M19.52,305.63L19.52,305.63c-1.1-0.51-1.59-1.81-1.08-2.92l4.74-10.34c0.51-1.1,1.81-1.59,2.92-1.08h0
			c1.1,0.51,1.59,1.81,1.08,2.92l-4.74,10.34C21.93,305.65,20.62,306.13,19.52,305.63z"/>
		<path class="st0" d="M17.38,303.46L17.38,303.46c-1.1-0.51-1.59-1.81-1.08-2.92l4.74-10.34c0.51-1.1,1.81-1.59,2.92-1.08h0
			c1.1,0.51,1.59,1.81,1.08,2.92l-4.74,10.34C19.79,303.48,18.48,303.97,17.38,303.46z"/>
	</g>
	<g>
		<path class="st0" d="M99.82,353.57h27.5l1.53-42.02c0.15-6.75-6.78-12.28-15.39-12.28h0c-8.62,0-15.56,5.55-15.38,12.31
			L99.82,353.57z"/>
		<path class="st1" d="M128.34,328.74l0.5-17.19c0.15-6.75-6.78-12.28-15.39-12.28h0c-8.62,0-15.56,5.55-15.38,12.31l0.57,17.16
			L128.34,328.74z"/>
	</g>
	<path class="st0" d="M101.42,388.97h23.52l2.37-35.17c0.01-5.96-6.15-10.8-13.75-10.8h0c-7.6,0-13.76,4.84-13.75,10.8
		L101.42,388.97z"/>
	<path class="st2" d="M102.21,403.58h22.97l0.62-23.88c-0.01-0.22-0.24-0.39-0.52-0.39h-24.03c-0.28,0-0.51,0.17-0.52,0.39
		L102.21,403.58z"/>
	<path class="st3" d="M104.08,423.01h42.17c1.51,0,2.29-1.42,1.24-2.28l-21.98-17.96h-24.77v17.62
		C100.74,421.84,102.23,423.01,104.08,423.01z"/>
	<path class="st0" d="M59.32,249.98l-23.44-6.49l16.5-52.24c2.06-6.52,9.01-10.14,15.53-8.08l0,0c6.52,2.06,10.14,9.01,8.08,15.53
		L59.32,249.98z"/>
	<path class="st0" d="M40.58,285.85l-14.57-5.01l10.57-39.53c1.02-3.23,6.63-6.88,14.8-4.33c7.99,2.48,9.65,8.61,8.63,11.85
		L40.58,285.85z"/>
	<g>
		<polygon class="st0" points="155.17,281.29 161.29,293.03 148.52,297.89 140.54,293.77 139.36,286.28 141.37,280.29 
			150.03,277.13 		"/>
		<path class="st0" d="M142.65,302.23L142.65,302.23c1.22,0,2.2-0.99,2.2-2.2v-8.23c0-1.22-0.99-2.2-2.2-2.2l0,0
			c-1.22,0-2.2,0.99-2.2,2.2v8.23C140.45,301.24,141.44,302.23,142.65,302.23z"/>
		<path class="st0" d="M155.57,307.99L155.57,307.99c1.1-0.51,1.59-1.81,1.08-2.92l-4.47-9.75c-0.51-1.1-1.81-1.59-2.92-1.08l0,0
			c-1.1,0.51-1.59,1.81-1.08,2.92l4.47,9.75C153.16,308.02,154.46,308.5,155.57,307.99z"/>
		<path class="st0" d="M159.08,307.57L159.08,307.57c1.1-0.51,1.59-1.81,1.08-2.92l-4.74-10.34c-0.51-1.1-1.81-1.59-2.92-1.08h0
			c-1.1,0.51-1.59,1.81-1.08,2.92l4.74,10.34C156.67,307.59,157.98,308.07,159.08,307.57z"/>
		<path class="st0" d="M161.51,305.63L161.51,305.63c1.1-0.51,1.59-1.81,1.08-2.92l-4.74-10.34c-0.51-1.1-1.81-1.59-2.92-1.08l0,0
			c-1.1,0.51-1.59,1.81-1.08,2.92l4.74,10.34C159.1,305.65,160.4,306.13,161.51,305.63z"/>
		<path class="st0" d="M163.65,303.46L163.65,303.46c1.1-0.51,1.59-1.81,1.08-2.92L160,290.21c-0.51-1.1-1.81-1.59-2.92-1.08h0
			c-1.1,0.51-1.59,1.81-1.08,2.92l4.74,10.34C161.24,303.48,162.55,303.97,163.65,303.46z"/>
	</g>
	<path class="st0" d="M121.7,249.98l23.44-6.49l-16.5-52.24c-2.06-6.52-9.01-10.14-15.53-8.08l0,0c-6.52,2.06-10.14,9.01-8.08,15.53
		L121.7,249.98z"/>
	<path class="st0" d="M140.45,285.85l14.57-5.01l-10.57-39.53c-1.02-3.23-6.63-6.88-14.8-4.33c-7.99,2.48-9.65,8.61-8.63,11.85
		L140.45,285.85z"/>
	<path class="st4" d="M69.66,228.13L38.9,210.66l10.75-20.41c3.98-7.55,13.32-10.45,20.87-6.47l0,0
		c7.55,3.98,10.45,13.32,6.47,20.87L69.66,228.13z"/>
	<path class="st4" d="M109.5,227.34l30.76-17.47l-10.75-20.41c-3.98-7.55-13.32-10.45-20.87-6.47l0,0
		c-7.55,3.98-10.45,13.32-6.47,20.87L109.5,227.34z"/>
	<path class="st5" d="M32.04,143.22C22.99,136.18,0,158.89,0,158.89l6.32,5.34l3.34-2.39l-1.95,3.37l13.1,10.54
		C20.8,175.76,44.81,153.14,32.04,143.22z"/>
	<path class="st5" d="M138.24,139.51c9.05-7.04,32.04,15.67,32.04,15.67l-6.32,5.34l-3.34-2.39l1.95,3.37l-13.1,10.54
		C149.48,172.05,125.47,149.44,138.24,139.51z"/>
	<path class="st5" d="M85.93,21.75C12.25,21.59-0.02,110.39,22.8,143.11c24.13,34.59,63.48,12.54,63.48,12.54
		s37.76,15.83,58.87-12.06C170.66,109.88,156.63,21.72,85.93,21.75z"/>
	<polygon class="st0" points="104.46,186.09 89.34,196.35 74.23,186.09 77.15,148.36 101.14,148.36 	"/>
	<path class="st1" d="M75.14,174.32l1.38-18.68h25.27C102.73,176.6,88.17,177.87,75.14,174.32z"/>
	<ellipse class="st6" cx="32.72" cy="118.8" rx="14.48" ry="15.76"/>
	<ellipse class="st6" cx="138.27" cy="118.8" rx="14.48" ry="15.76"/>
	<path class="st7" d="M140.24,127.15c0,0-5.51-14.42,6.29-13.45"/>
	<path class="st7" d="M31.44,127.15c0,0,5.51-14.42-6.29-13.45"/>
	<path class="st0" d="M31.1,114.26V95.78c0-30.62,24.82-55.45,55.45-55.45h0c30.62,0,55.45,24.82,55.45,55.45v18.48
		c0,30.62-24.82,55.45-55.45,55.45h0C55.93,169.71,31.1,144.88,31.1,114.26z"/>
	<path class="st5" d="M86.55,40.09c0,0-57.61-4.61-57.08,59.55C57.19,90.6,86.62,66.27,86.55,40.09z"/>
	<path class="st5" d="M86.55,40.09c0,0,59.97-4.61,57.38,59.55C117.47,92.05,91.3,71.6,86.55,40.09z"/>
	<ellipse cx="110.08" cy="111.23" rx="3.71" ry="6.21"/>
	<ellipse cx="64.21" cy="111.23" rx="3.71" ry="6.21"/>
	<path class="st8" d="M86.55,113.71c0,0-6.79,4.85-1.47,9.7"/>
	<path class="st9" d="M57.19,98.19"/>
	<path class="st9" d="M71.22,94.8"/>
	<path class="st10" d="M87.98,138.76h-2.85c-1.84,0-3.32-1.49-3.32-3.32v0c0-1.84,1.49-3.32,3.32-3.32h2.85
		c1.84,0,3.32,1.49,3.32,3.32v0C91.3,137.27,89.81,138.76,87.98,138.76z"/>
	<ellipse class="st11" cx="125.5" cy="125.2" rx="11.45" ry="12.46"/>
	<ellipse class="st11" cx="48.32" cy="125.2" rx="11.45" ry="12.46"/>
	<polygon class="st4" points="145.15,321.66 35.78,320.39 58.32,182.89 73.42,175.83 89.34,187.35 105.18,175.76 119.39,181.54 	"/>
	<g>
		<g class="st12">
			<path class="st13" d="M105.81,175.82l-17.26,12.83c0,0,7.02,5.29,15.42,2.47C112.36,188.3,105.81,175.82,105.81,175.82z"/>
			<path class="st13" d="M72.88,175.82l17.26,12.83c0,0-7.02,5.29-15.42,2.47C66.32,188.3,72.88,175.82,72.88,175.82z"/>
		</g>
		<g>
			<g>
				<path class="st14" d="M105.81,174.82l-17.26,12.83c0,0,7.02,5.29,15.42,2.47C112.36,187.3,105.81,174.82,105.81,174.82z"/>
				<path class="st14" d="M72.88,174.82l17.26,12.83c0,0-7.02,5.29-15.42,2.47C66.32,187.3,72.88,174.82,72.88,174.82z"/>
			</g>
		</g>
	</g>
	<path class="st15" d="M86.55,38.8c0,0-4.13,36.04,19.82,47.03"/>
	<path class="st2" d="M58.62,409.69l-7.31-3.31c-0.49-0.22-0.66-0.71-0.38-1.1l0,0c0.28-0.38,0.91-0.52,1.4-0.29l7.31,3.31
		c0.49,0.22,0.66,0.71,0.38,1.1v0C59.74,409.78,59.12,409.92,58.62,409.69z"/>
	<path class="st2" d="M54.33,413.66l-7.31-3.31c-0.49-0.22-0.66-0.71-0.38-1.1l0,0c0.28-0.38,0.91-0.52,1.4-0.29l7.31,3.31
		c0.49,0.22,0.66,0.71,0.38,1.1l0,0C55.45,413.75,54.83,413.88,54.33,413.66z"/>
	<path class="st2" d="M122.03,409.69l7.31-3.31c0.49-0.22,0.66-0.71,0.38-1.1l0,0c-0.28-0.38-0.91-0.52-1.4-0.29L121,408.3
		c-0.49,0.22-0.66,0.71-0.38,1.1l0,0C120.91,409.78,121.54,409.92,122.03,409.69z"/>
	<path class="st2" d="M126.32,413.66l7.31-3.31c0.49-0.22,0.66-0.71,0.38-1.1h0c-0.28-0.38-0.91-0.52-1.4-0.29l-7.31,3.31
		c-0.49,0.22-0.66,0.71-0.38,1.1l0,0C125.2,413.75,125.83,413.88,126.32,413.66z"/>
	<path class="st5" d="M85.75,24.23c0,0-19.35-4.19-7.65-24.23C78.1,0,76.32,14.95,85.75,24.23z"/>
	<path class="st16" d="M103.13,88.86c0,0,8.76-3.46,14.83,5.26"/>
	<path class="st16" d="M69.97,88.86c0,0-8.76-3.46-14.83,5.26"/>
</g>
</svg>
