<?xml version="1.0" encoding="utf-8"?>
<!-- Generator: Adobe Illustrator 24.2.0, SVG Export Plug-In . SVG Version: 6.00 Build 0)  -->
<svg version="1.1" id="격리_모드" xmlns="http://www.w3.org/2000/svg" xmlns:xlink="http://www.w3.org/1999/xlink" x="0px"
	 y="0px" viewBox="0 0 108.75 219.63" style="enable-background:new 0 0 108.75 219.63;" xml:space="preserve">
<style type="text/css">
	.st0{fill:url(#SVGID_1_);}
	.st1{fill:url(#SVGID_2_);}
	.st2{fill:url(#SVGID_3_);}
	.st3{fill:url(#SVGID_4_);}
	.st4{fill:url(#SVGID_5_);}
	.st5{fill:url(#SVGID_6_);}
	.st6{fill:url(#SVGID_7_);}
	.st7{opacity:0.6;}
	.st8{fill:url(#SVGID_8_);}
	.st9{fill:url(#SVGID_9_);}
	.st10{fill:url(#SVGID_10_);}
	.st11{fill:url(#SVGID_11_);}
	.st12{fill:url(#SVGID_12_);}
	.st13{fill:url(#SVGID_13_);}
	.st14{fill:url(#SVGID_14_);}
	.st15{fill:url(#SVGID_15_);}
	.st16{fill:url(#SVGID_16_);}
	.st17{fill:url(#SVGID_17_);}
	.st18{fill:url(#SVGID_18_);}
	.st19{fill:url(#SVGID_19_);}
	.st20{fill:url(#SVGID_20_);}
</style>
<g>
	<linearGradient id="SVGID_1_" gradientUnits="userSpaceOnUse" x1="107.1715" y1="82.2607" x2="107.1715" y2="49.632">
		<stop  offset="0" style="stop-color:#F5F5F5"/>
		<stop  offset="0.0272" style="stop-color:#EAEAEA"/>
		<stop  offset="0.0694" style="stop-color:#E1E1E1"/>
		<stop  offset="0.128" style="stop-color:#DEDEDE"/>
		<stop  offset="0.8865" style="stop-color:#DEDEDE"/>
		<stop  offset="0.9335" style="stop-color:#E3E3E3"/>
		<stop  offset="0.9881" style="stop-color:#F1F1F1"/>
		<stop  offset="1" style="stop-color:#F5F5F5"/>
	</linearGradient>
	<path class="st0" d="M107.92,82.26h-1.5c-0.45,0-0.82-0.37-0.82-0.82V50.45c0-0.45,0.37-0.82,0.82-0.82h1.5
		c0.45,0,0.82,0.37,0.82,0.82v30.98C108.75,81.89,108.38,82.26,107.92,82.26z"/>
	<linearGradient id="SVGID_2_" gradientUnits="userSpaceOnUse" x1="107.1715" y1="99.3979" x2="107.1715" y2="86.0173">
		<stop  offset="0" style="stop-color:#F5F5F5"/>
		<stop  offset="0.0272" style="stop-color:#EAEAEA"/>
		<stop  offset="0.0694" style="stop-color:#E1E1E1"/>
		<stop  offset="0.128" style="stop-color:#DEDEDE"/>
		<stop  offset="0.8865" style="stop-color:#DEDEDE"/>
		<stop  offset="0.9335" style="stop-color:#E3E3E3"/>
		<stop  offset="0.9881" style="stop-color:#F1F1F1"/>
		<stop  offset="1" style="stop-color:#F5F5F5"/>
	</linearGradient>
	<path class="st1" d="M107.92,99.4h-1.5c-0.45,0-0.82-0.37-0.82-0.82V86.84c0-0.45,0.37-0.82,0.82-0.82h1.5
		c0.45,0,0.82,0.37,0.82,0.82v11.73C108.75,99.03,108.38,99.4,107.92,99.4z"/>
	<linearGradient id="SVGID_3_" gradientUnits="userSpaceOnUse" x1="0" y1="109.8151" x2="107.5043" y2="109.8151">
		<stop  offset="0" style="stop-color:#F7F7F7"/>
		<stop  offset="0.0362" style="stop-color:#F3F3F3"/>
		<stop  offset="0.128" style="stop-color:#F0F0F0"/>
		<stop  offset="0.8865" style="stop-color:#F0F0F0"/>
		<stop  offset="0.9785" style="stop-color:#F5F5F5"/>
		<stop  offset="1" style="stop-color:#F7F7F7"/>
	</linearGradient>
	<path class="st2" d="M91.64,219.63H16.17C7.24,219.63,0,212.39,0,203.46V16.17C0,7.24,7.24,0,16.17,0h75.47
		c8.93,0,16.17,7.24,16.17,16.17v187.29C107.81,212.39,100.57,219.63,91.64,219.63z"/>
	<linearGradient id="SVGID_4_" gradientUnits="userSpaceOnUse" x1="102.5459" y1="109.8151" x2="106.305" y2="109.8151">
		<stop  offset="0" style="stop-color:#000000"/>
		<stop  offset="0.1242" style="stop-color:#050505"/>
		<stop  offset="0.2685" style="stop-color:#131313"/>
		<stop  offset="0.4228" style="stop-color:#2A2A2A"/>
		<stop  offset="0.5842" style="stop-color:#4B4B4B"/>
		<stop  offset="0.7512" style="stop-color:#757575"/>
		<stop  offset="0.9204" style="stop-color:#A7A7A7"/>
		<stop  offset="1" style="stop-color:#C2C2C2"/>
	</linearGradient>
	<path class="st3" d="M102.55,5.81c1.01,2.13,1.59,4.5,1.59,7.01v193.99c0,2.51-0.58,4.88-1.59,7.01c2.34-2.81,3.76-6.42,3.76-10.36
		V16.17C106.31,12.23,104.89,8.62,102.55,5.81z"/>
	
		<linearGradient id="SVGID_5_" gradientUnits="userSpaceOnUse" x1="-1646.0007" y1="109.8151" x2="-1642.2417" y2="109.8151" gradientTransform="matrix(-1 0 0 1 -1640.9968 0)">
		<stop  offset="0" style="stop-color:#000000"/>
		<stop  offset="0.1242" style="stop-color:#050505"/>
		<stop  offset="0.2685" style="stop-color:#131313"/>
		<stop  offset="0.4228" style="stop-color:#2A2A2A"/>
		<stop  offset="0.5842" style="stop-color:#4B4B4B"/>
		<stop  offset="0.7512" style="stop-color:#757575"/>
		<stop  offset="0.9204" style="stop-color:#A7A7A7"/>
		<stop  offset="1" style="stop-color:#C2C2C2"/>
	</linearGradient>
	<path class="st4" d="M5,5.81C4,7.94,3.42,10.31,3.42,12.82v193.99c0,2.51,0.58,4.88,1.59,7.01c-2.34-2.81-3.76-6.42-3.76-10.36
		V16.17C1.24,12.23,2.66,8.62,5,5.81z"/>
	<linearGradient id="SVGID_6_" gradientUnits="userSpaceOnUse" x1="86.5335" y1="4.9846" x2="8.8102" y2="254.7018">
		<stop  offset="0" style="stop-color:#B5B5B5"/>
		<stop  offset="0.2249" style="stop-color:#B0B0B0"/>
		<stop  offset="0.504" style="stop-color:#A0A1A2"/>
		<stop  offset="0.8106" style="stop-color:#87898A"/>
		<stop  offset="1" style="stop-color:#747678"/>
	</linearGradient>
	<path class="st5" d="M102.61,26.92v165.79c0,0.99-0.81,1.79-1.79,1.79H6.99c-0.99,0-1.79-0.8-1.79-1.79V26.92
		c0-0.98,0.8-1.79,1.79-1.79h93.83C101.81,25.13,102.61,25.94,102.61,26.92z"/>
	<linearGradient id="SVGID_7_" gradientUnits="userSpaceOnUse" x1="53.9047" y1="3.8239" x2="53.9047" y2="15.8637">
		<stop  offset="0" style="stop-color:#636363"/>
		<stop  offset="0.167" style="stop-color:#686868"/>
		<stop  offset="0.361" style="stop-color:#767676"/>
		<stop  offset="0.5685" style="stop-color:#8E8E8E"/>
		<stop  offset="0.7843" style="stop-color:#AEAEAE"/>
		<stop  offset="1" style="stop-color:#D6D6D6"/>
	</linearGradient>
	<path class="st6" d="M66.32,12.47H41.49c-0.38,0-0.69-0.31-0.69-0.69l0,0c0-0.38,0.31-0.69,0.69-0.69h24.82
		c0.38,0,0.69,0.31,0.69,0.69l0,0C67,12.16,66.7,12.47,66.32,12.47z"/>
	<g class="st7">
		
			<linearGradient id="SVGID_8_" gradientUnits="userSpaceOnUse" x1="-740.2516" y1="-3390.5276" x2="-744.1273" y2="-3385.6497" gradientTransform="matrix(-1 0 0 -1 -671.1193 -3375.7727)">
			<stop  offset="0.0108" style="stop-color:#5C5C5C"/>
			<stop  offset="0.2543" style="stop-color:#3D3D3D"/>
			<stop  offset="0.5667" style="stop-color:#1C1C1C"/>
			<stop  offset="0.8265" style="stop-color:#070707"/>
			<stop  offset="1" style="stop-color:#000000"/>
		</linearGradient>
		<path class="st8" d="M71.52,13.31c0.86,0,1.55-0.7,1.55-1.55c0-0.86-0.7-1.55-1.55-1.55s-1.55,0.7-1.55,1.55
			C69.96,12.61,70.66,13.31,71.52,13.31L71.52,13.31z"/>
		
			<radialGradient id="SVGID_9_" cx="-742.637" cy="-3387.5251" r="1.4153" gradientTransform="matrix(-1 0 0 -1 -671.1193 -3375.7727)" gradientUnits="userSpaceOnUse">
			<stop  offset="0.0108" style="stop-color:#424242"/>
			<stop  offset="0.676" style="stop-color:#464646"/>
			<stop  offset="1" style="stop-color:#4B4B4B"/>
		</radialGradient>
		<circle class="st9" cx="71.52" cy="11.75" r="1.42"/>
		
			<radialGradient id="SVGID_10_" cx="-742.637" cy="-3387.5251" r="1.3087" gradientTransform="matrix(-1 0 0 -1 -671.1193 -3375.7727)" gradientUnits="userSpaceOnUse">
			<stop  offset="0.0108" style="stop-color:#424242"/>
			<stop  offset="0.1815" style="stop-color:#3E3E3E"/>
			<stop  offset="0.3581" style="stop-color:#313131"/>
			<stop  offset="0.5375" style="stop-color:#1D1D1D"/>
			<stop  offset="0.7174" style="stop-color:#000000"/>
			<stop  offset="1" style="stop-color:#000000"/>
		</radialGradient>
		<circle class="st10" cx="71.52" cy="11.75" r="1.31"/>
		
			<radialGradient id="SVGID_11_" cx="-742.637" cy="-3387.5251" r="1.2104" gradientTransform="matrix(-1 0 0 -1 -671.1193 -3375.7727)" gradientUnits="userSpaceOnUse">
			<stop  offset="0.7016" style="stop-color:#FFFFFF"/>
			<stop  offset="0.7406" style="stop-color:#FBFBFB"/>
			<stop  offset="0.781" style="stop-color:#EEEEEE"/>
			<stop  offset="0.822" style="stop-color:#DADADA"/>
			<stop  offset="0.8635" style="stop-color:#BDBDBD"/>
			<stop  offset="0.9054" style="stop-color:#979797"/>
			<stop  offset="0.9476" style="stop-color:#696969"/>
			<stop  offset="0.9892" style="stop-color:#343434"/>
			<stop  offset="1" style="stop-color:#252525"/>
		</radialGradient>
		<path class="st11" d="M70.31,11.75c0-0.67,0.54-1.21,1.21-1.21s1.21,0.54,1.21,1.21c0,0.67-0.54,1.21-1.21,1.21
			S70.31,12.42,70.31,11.75z"/>
		
			<linearGradient id="SVGID_12_" gradientUnits="userSpaceOnUse" x1="-743.3413" y1="-3388.2561" x2="-741.8347" y2="-3386.6926" gradientTransform="matrix(-1 0 0 -1 -671.1193 -3375.7727)">
			<stop  offset="0.0108" style="stop-color:#5C5C5C"/>
			<stop  offset="0.2543" style="stop-color:#3D3D3D"/>
			<stop  offset="0.5667" style="stop-color:#1C1C1C"/>
			<stop  offset="0.8265" style="stop-color:#070707"/>
			<stop  offset="1" style="stop-color:#000000"/>
		</linearGradient>
		<path class="st12" d="M70.69,11.75c0-0.46,0.37-0.83,0.83-0.83s0.83,0.37,0.83,0.83c0,0.46-0.37,0.83-0.83,0.83
			S70.69,12.21,70.69,11.75z"/>
		
			<linearGradient id="SVGID_13_" gradientUnits="userSpaceOnUse" x1="-741.7978" y1="-3388.2388" x2="-743.2689" y2="-3386.988" gradientTransform="matrix(-1 0 0 -1 -671.1193 -3375.7727)">
			<stop  offset="0.0108" style="stop-color:#5C5C5C"/>
			<stop  offset="0.2543" style="stop-color:#3D3D3D"/>
			<stop  offset="0.5667" style="stop-color:#1C1C1C"/>
			<stop  offset="0.8265" style="stop-color:#070707"/>
			<stop  offset="1" style="stop-color:#000000"/>
		</linearGradient>
		<path class="st13" d="M70.85,11.75c0-0.37,0.3-0.67,0.67-0.67c0.37,0,0.67,0.3,0.67,0.67c0,0.37-0.3,0.67-0.67,0.67
			C71.15,12.42,70.85,12.12,70.85,11.75z"/>
		<g>
			
				<linearGradient id="SVGID_14_" gradientUnits="userSpaceOnUse" x1="-742.5469" y1="-3387.4617" x2="-742.9775" y2="-3387.7659" gradientTransform="matrix(-1 0 0 -1 -671.1193 -3375.7727)">
				<stop  offset="0.0108" style="stop-color:#5C5C5C"/>
				<stop  offset="0.2543" style="stop-color:#3D3D3D"/>
				<stop  offset="0.5667" style="stop-color:#1C1C1C"/>
				<stop  offset="0.8265" style="stop-color:#070707"/>
				<stop  offset="1" style="stop-color:#000000"/>
			</linearGradient>
			<path class="st14" d="M71.02,11.75c0-0.27,0.22-0.49,0.49-0.49s0.49,0.22,0.49,0.49s-0.22,0.49-0.49,0.49
				S71.02,12.02,71.02,11.75z"/>
			
				<linearGradient id="SVGID_15_" gradientUnits="userSpaceOnUse" x1="-742.8162" y1="-3387.7598" x2="-742.4058" y2="-3387.2224" gradientTransform="matrix(-1 0 0 -1 -671.1193 -3375.7727)">
				<stop  offset="0.0108" style="stop-color:#5C5C5C"/>
				<stop  offset="0.2543" style="stop-color:#3D3D3D"/>
				<stop  offset="0.5667" style="stop-color:#1C1C1C"/>
				<stop  offset="0.8265" style="stop-color:#070707"/>
				<stop  offset="1" style="stop-color:#000000"/>
			</linearGradient>
			<path class="st15" d="M71.17,11.75c0-0.19,0.16-0.35,0.35-0.35s0.35,0.16,0.35,0.35c0,0.19-0.16,0.35-0.35,0.35
				S71.17,11.95,71.17,11.75z"/>
		</g>
		
			<linearGradient id="SVGID_16_" gradientUnits="userSpaceOnUse" x1="-742.2814" y1="-3387.8276" x2="-742.9047" y2="-3387.2976" gradientTransform="matrix(-1 0 0 -1 -671.1193 -3375.7727)">
			<stop  offset="0" style="stop-color:#C4C4C4"/>
			<stop  offset="1" style="stop-color:#000000"/>
		</linearGradient>
		<path class="st16" d="M71.24,11.75c0-0.16,0.13-0.28,0.28-0.28s0.28,0.13,0.28,0.28c0,0.16-0.13,0.28-0.28,0.28
			S71.24,11.91,71.24,11.75z"/>
		
			<linearGradient id="SVGID_17_" gradientUnits="userSpaceOnUse" x1="-1795.3221" y1="-3431.9417" x2="-1795.3221" y2="-3430.5483" gradientTransform="matrix(-0.8323 -0.5543 0.5543 -0.8323 478.8443 -3838.6775)">
			<stop  offset="0" style="stop-color:#858585"/>
			<stop  offset="1" style="stop-color:#000000"/>
		</linearGradient>
		<path class="st17" d="M70.3,11.79c0.21-0.31,0.74-0.32,1.19-0.02c0.45,0.3,0.65,0.8,0.45,1.11c-0.21,0.31-0.74,0.32-1.19,0.02
			C70.3,12.6,70.1,12.1,70.3,11.79z"/>
		
			<linearGradient id="SVGID_18_" gradientUnits="userSpaceOnUse" x1="-1795.3528" y1="-3430.593" x2="-1795.3528" y2="-3429.4373" gradientTransform="matrix(-0.8323 -0.5543 0.5543 -0.8323 478.8443 -3838.6775)">
			<stop  offset="0" style="stop-color:#4F4F4F"/>
			<stop  offset="1" style="stop-color:#000000"/>
		</linearGradient>
		<path class="st18" d="M72.54,11.45c-0.15,0.22-0.51,0.23-0.81,0.03c-0.3-0.2-0.43-0.54-0.28-0.76c0.15-0.22,0.51-0.23,0.81-0.03
			C72.56,10.89,72.69,11.23,72.54,11.45z"/>
	</g>
	<linearGradient id="SVGID_19_" gradientUnits="userSpaceOnUse" x1="36.3209" y1="7.741" x2="36.3209" y2="14.3533">
		<stop  offset="0" style="stop-color:#636363"/>
		<stop  offset="0.167" style="stop-color:#686868"/>
		<stop  offset="0.361" style="stop-color:#767676"/>
		<stop  offset="0.5685" style="stop-color:#8E8E8E"/>
		<stop  offset="0.7843" style="stop-color:#AEAEAE"/>
		<stop  offset="1" style="stop-color:#D6D6D6"/>
	</linearGradient>
	<path class="st19" d="M36.32,13.01c0.69,0,1.26-0.56,1.26-1.26c0-0.69-0.56-1.26-1.26-1.26c-0.69,0-1.26,0.56-1.26,1.26
		C35.07,12.45,35.63,13.01,36.32,13.01L36.32,13.01z"/>
	<linearGradient id="SVGID_20_" gradientUnits="userSpaceOnUse" x1="104.9567" y1="102.7482" x2="-59.5148" y2="100.2411">
		<stop  offset="0" style="stop-color:#4A4A4A"/>
		<stop  offset="0.1007" style="stop-color:#3B3B3B"/>
		<stop  offset="0.31" style="stop-color:#212121"/>
		<stop  offset="0.5262" style="stop-color:#0F0F0F"/>
		<stop  offset="0.7513" style="stop-color:#040404"/>
		<stop  offset="1" style="stop-color:#000000"/>
	</linearGradient>
	<path class="st20" d="M84.94,25.13L5.2,178.54V26.92c0-0.98,0.8-1.79,1.79-1.79H84.94z"/>
</g>
</svg>
