<?xml version="1.0" encoding="utf-8"?>
<!-- Generator: Adobe Illustrator 24.2.1, SVG Export Plug-In . SVG Version: 6.00 Build 0)  -->
<svg version="1.1" id="Layer_1" xmlns="http://www.w3.org/2000/svg" xmlns:xlink="http://www.w3.org/1999/xlink" x="0px" y="0px"
	 viewBox="0 0 178.8 173.67" style="enable-background:new 0 0 178.8 173.67;" xml:space="preserve">
<style type="text/css">
	.st0{fill:#231A15;}
	.st1{fill:#EB9F32;}
	.st2{fill:#D92828;}
	.st3{fill:#93BC40;}
	.st4{fill:#FFFFFF;}
	.st5{fill:#F05A95;}
	.st6{fill:#EF3823;}
	.st7{fill:#FEBE0E;}
	.st8{fill:#00C2F3;}
</style>
<g>
	<g>
		<path d="M178.8,96.99c0,42.35-34.34,76.68-76.69,76.68c-42.35,0-76.69-34.33-76.69-76.68c0-42.35,34.34-76.69,76.69-76.69
			C144.46,20.3,178.8,54.64,178.8,96.99"/>
	</g>
	<polygon class="st0" points="24.78,43.95 22.24,45.25 14.41,29.91 16.95,28.62 	"/>
	<g>
		<path class="st1" d="M17.39,25.49c0.44,2.25-1.04,4.43-3.29,4.86c-2.26,0.44-4.44-1.03-4.87-3.3c-0.43-2.24,1.04-4.43,3.29-4.86
			C14.78,21.77,16.95,23.24,17.39,25.49"/>
		<path class="st0" d="M16.37,30.94c-0.61,0.4-1.29,0.68-2.01,0.82c-1.46,0.28-2.95-0.02-4.19-0.86c-1.23-0.83-2.07-2.1-2.35-3.57
			c-0.43-2.22,0.52-4.48,2.41-5.72c0.61-0.4,1.29-0.68,2.01-0.82c1.46-0.28,2.95,0.02,4.19,0.86c1.24,0.84,2.08,2.1,2.35,3.56
			C19.22,27.45,18.28,29.69,16.37,30.94 M11.81,24c-0.92,0.61-1.39,1.7-1.18,2.79c0.14,0.71,0.54,1.34,1.16,1.75
			c0.6,0.4,1.32,0.55,2.03,0.41c1.46-0.28,2.44-1.76,2.16-3.19c-0.14-0.71-0.55-1.33-1.15-1.74c-0.6-0.4-1.33-0.55-2.04-0.41
			C12.44,23.67,12.11,23.81,11.81,24"/>
	</g>
	
		<rect x="17.38" y="35.26" transform="matrix(0.0895 -0.996 0.996 0.0895 -12.8734 59.2884)" class="st0" width="17.21" height="2.85"/>
	<g>
		<path class="st2" d="M23.78,25.25c0.44,2.25,2.61,3.72,4.87,3.28c2.26-0.43,3.72-2.61,3.29-4.86c-0.44-2.25-2.61-3.73-4.86-3.29
			C24.82,20.81,23.34,22.99,23.78,25.25"/>
		<path class="st0" d="M30.92,29.12L30.92,29.12c-0.61,0.4-1.29,0.67-2.01,0.81c-3.02,0.59-5.95-1.4-6.54-4.42
			c-0.43-2.23,0.52-4.48,2.42-5.72c0.61-0.41,1.28-0.68,2-0.82c1.47-0.28,2.95,0.02,4.18,0.86c1.24,0.84,2.08,2.1,2.36,3.56
			C33.77,25.63,32.82,27.88,30.92,29.12 M26.36,22.18c-0.93,0.6-1.39,1.7-1.18,2.79c0.28,1.48,1.72,2.44,3.19,2.16
			c1.46-0.28,2.44-1.75,2.16-3.19c-0.14-0.71-0.54-1.33-1.15-1.74c-0.61-0.41-1.33-0.56-2.05-0.42
			C26.99,21.85,26.66,21.98,26.36,22.18"/>
		<path class="st3" d="M54.02,60.21C56.8,74.6,47.39,88.52,33,91.3C18.61,94.08,4.69,84.67,1.91,70.27
			c-2.78-14.39,6.64-28.3,21.02-31.09C37.33,36.4,51.24,45.82,54.02,60.21"/>
		<path class="st0" d="M43.32,88.62c-3.05,2.01-6.44,3.37-10.05,4.08c-7.33,1.41-14.78-0.11-20.96-4.3
			C6.11,84.22,1.92,77.89,0.52,70.54c-2.16-11.17,2.58-22.43,12.1-28.68c3.05-2,6.42-3.38,10.05-4.08
			c7.33-1.41,14.78,0.11,20.96,4.3C49.82,46.26,54,52.6,55.42,59.94C57.58,71.12,52.84,82.38,43.32,88.62 M14.18,44.24
			C5.64,49.86,1.38,59.97,3.31,70c1.27,6.59,5.04,12.29,10.59,16.04c5.56,3.76,12.24,5.13,18.83,3.85c3.25-0.63,6.29-1.86,9.02-3.66
			c8.54-5.61,12.8-15.72,10.87-25.76c-1.28-6.58-5.04-12.28-10.6-16.04c-5.55-3.75-12.23-5.12-18.83-3.85
			C19.96,41.22,16.92,42.45,14.18,44.24"/>
		<path class="st0" d="M25.17,54.36c0.48,2.49-1.15,4.9-3.64,5.38c-2.49,0.48-4.9-1.15-5.39-3.64c-0.48-2.49,1.16-4.9,3.65-5.38
			C22.28,50.24,24.69,51.87,25.17,54.36"/>
		<path class="st4" d="M23.96,60.27c-0.65,0.43-1.38,0.72-2.17,0.88c-1.57,0.3-3.18-0.03-4.51-0.93c-1.34-0.9-2.23-2.28-2.54-3.85
			c-0.47-2.41,0.55-4.83,2.61-6.18c0.66-0.43,1.39-0.73,2.16-0.88c3.26-0.63,6.43,1.52,7.06,4.77
			C27.04,56.5,26.02,58.92,23.96,60.27 M18.92,52.58c-1.08,0.71-1.61,1.99-1.37,3.26c0.15,0.83,0.64,1.55,1.33,2.02
			c0.7,0.47,1.54,0.65,2.38,0.48c1.69-0.33,2.83-2.04,2.5-3.7c-0.33-1.72-1.99-2.84-3.7-2.52C19.65,52.2,19.27,52.35,18.92,52.58"/>
		<path class="st0" d="M35.52,52.36c0.49,2.5-1.14,4.91-3.63,5.38c-2.49,0.48-4.9-1.15-5.39-3.64c-0.48-2.49,1.15-4.9,3.64-5.38
			C32.64,48.24,35.05,49.87,35.52,52.36"/>
		<path class="st4" d="M34.32,58.27c-0.66,0.43-1.38,0.72-2.17,0.88c-1.57,0.3-3.18-0.02-4.51-0.93c-1.33-0.9-2.23-2.27-2.54-3.84
			c-0.46-2.4,0.55-4.84,2.6-6.18c0.66-0.43,1.39-0.73,2.17-0.87c3.26-0.63,6.42,1.51,7.05,4.77C37.4,54.49,36.37,56.91,34.32,58.27
			 M29.28,50.58c-1.07,0.71-1.62,1.98-1.37,3.26c0.16,0.82,0.64,1.53,1.34,2.01c0.7,0.47,1.54,0.65,2.37,0.49
			c1.7-0.33,2.83-2.04,2.52-3.71c-0.34-1.71-2-2.84-3.71-2.51C30.01,50.2,29.62,50.36,29.28,50.58"/>
		<path class="st0" d="M31.29,63.82c0.17,0.88-1.25,1.88-3.16,2.26c-1.92,0.36-3.62-0.04-3.78-0.92c-0.17-0.88,1.25-1.89,3.17-2.26
			C29.43,62.53,31.12,62.94,31.29,63.82"/>
		<path class="st4" d="M30.4,80.16l0.72,3.71c0.08,0.43-0.2,0.84-0.63,0.92l-2.6,0.5c-0.42,0.08-0.84-0.2-0.92-0.62l-0.71-3.71"/>
		<path class="st4" d="M35.41,79.2l0.72,3.71c0.08,0.42-0.2,0.84-0.63,0.92l-2.6,0.5c-0.42,0.09-0.83-0.2-0.92-0.62L31.27,80"/>
		<path class="st0" d="M38.95,77.8c-2.38,1.56-5.07,2.65-7.94,3.21c-5.79,1.12-11.67-0.09-16.55-3.39
			c-4.89-3.3-8.19-8.31-9.31-14.11C5,62.75,5.51,61.99,6.28,61.85c0.78-0.15,1.52,0.35,1.67,1.12c0.97,5.04,3.85,9.41,8.11,12.28
			c4.25,2.88,9.37,3.92,14.41,2.95c5.04-0.98,9.4-3.85,12.27-8.1c2.88-4.26,3.92-9.38,2.96-14.42c-0.15-0.77,0.36-1.53,1.13-1.67
			c0.78-0.16,1.52,0.35,1.67,1.13c1.12,5.79-0.08,11.67-3.39,16.55C43.45,74.15,41.36,76.22,38.95,77.8"/>
		<path class="st5" d="M71.39,114.77c-0.71,0.42-1.24,0.55-1.58,0.39c-0.41-0.18-0.78-0.5-1.14-1.01c-0.78-1.1-1.53-2.17-2.23-3.33
			c-0.73-1.13-1.41-2.36-2.01-3.58l-4.59,2.74c0.55,1.12,1.19,2.19,1.9,3.28c0.64,1.07,1.34,2.16,2.15,3.31
			c0.55,0.82,0.83,1.5,0.92,2.05c0.01,0.54-0.26,1-0.88,1.37c-0.71,0.43-1.29,0.47-1.68,0.22c-0.46-0.27-0.89-0.68-1.3-1.27
			c-0.78-1.11-1.51-2.24-2.2-3.4c-0.74-1.13-1.41-2.37-2.02-3.69c-1.07,0.63-2.07,1.29-2.98,1.89c-0.98,0.59-1.78,1.06-2.42,1.51
			c0.65,1,1.54,2.28,2.73,3.87c1.09,1.53,2.25,3.07,3.44,4.66c0.42,0.6,0.73,1.13,1.01,1.7c0.18,0.5,0.1,0.97-0.29,1.44
			c-0.55,0.5-1.03,0.61-1.46,0.38c-0.51-0.24-1.04-0.64-1.66-1.18c-1.47-1.24-2.85-2.65-4.18-4.28c-1.42-1.57-2.68-3.17-3.82-4.79
			c-0.72-1.02-1.01-1.81-0.84-2.52c0.06-0.7,0.53-1.34,1.4-1.92c0.11-0.13,0.5-0.36,1.25-0.74c0.67-0.4,1.52-0.9,2.52-1.44
			c0.94-0.55,2.01-1.19,3.19-1.84c1.11-0.67,2.23-1.33,3.32-1.92c1.07-0.64,2.08-1.18,3.07-1.65c0.89-0.53,1.59-0.88,2.11-1.13
			c-0.06-0.09-0.11-0.18-0.09-0.25c-0.42-1.32-0.21-2.18,0.69-2.59c0.47-0.23,0.89-0.23,1.28,0.02c0.28,0.26,0.63,0.65,0.98,1.23
			c0.91,1.52,1.79,3.11,2.72,4.66c0.86,1.54,1.78,3.1,2.86,4.7c0.45,0.76,0.71,1.39,0.74,1.85
			C72.26,114.01,71.96,114.43,71.39,114.77"/>
		<path class="st5" d="M63.54,103.62l0.25,0.41l-0.47,0.31c-0.68,0.32-1.35,0.69-2.07,1.11c-1.01,0.48-2,1.02-3.07,1.65
			c-1.14,0.61-2.3,1.3-3.32,1.92c-1.2,0.65-2.26,1.29-3.19,1.84c-1.02,0.54-1.86,1.04-2.52,1.44c-0.89,0.46-1.09,0.6-1.13,0.64
			l-0.1,0.09c-0.72,0.48-1.12,1-1.17,1.54c-0.14,0.6,0.09,1.26,0.74,2.18c1.22,1.72,2.45,3.27,3.78,4.74
			c1.32,1.61,2.66,2.99,4.13,4.23c0.66,0.57,1.13,0.91,1.55,1.11c0.31,0.16,0.54,0.03,0.89-0.3c0.21-0.27,0.27-0.55,0.15-0.89
			c-0.24-0.48-0.55-0.99-0.95-1.57l-0.33-0.43c-1.07-1.43-2.12-2.83-3.11-4.22c-1.04-1.4-1.97-2.71-2.74-3.89l-0.28-0.42l0.42-0.28
			c0.67-0.46,1.49-0.95,2.45-1.52c0.85-0.56,1.87-1.24,2.98-1.9l0.49-0.29l0.24,0.52c0.59,1.3,1.26,2.51,1.98,3.63
			c0.69,1.16,1.42,2.29,2.19,3.39c0.37,0.52,0.74,0.89,1.15,1.13c0.23,0.14,0.45,0.2,1.16-0.21c0.58-0.34,0.64-0.69,0.63-0.91
			c-0.08-0.45-0.36-1.07-0.83-1.77c-0.83-1.18-1.54-2.27-2.17-3.33c-0.79-1.22-1.41-2.28-1.91-3.32l-0.21-0.42l5.47-3.26l0.25,0.49
			c0.68,1.37,1.33,2.52,1.98,3.53c0.68,1.14,1.4,2.16,2.17,3.24c0.34,0.48,0.65,0.75,0.98,0.9c0.24,0.02,0.54-0.03,1.11-0.36
			c0.62-0.37,0.63-0.71,0.64-0.82c-0.01-0.17-0.13-0.66-0.67-1.58c-0.97-1.43-1.91-2.98-2.87-4.71c-0.46-0.76-0.91-1.55-1.36-2.34
			c-0.45-0.78-0.9-1.56-1.35-2.32c-0.26-0.43-0.56-0.81-0.89-1.12c-0.08-0.03-0.39-0.08-0.71,0.07c-0.28,0.13-0.92,0.43-0.42,1.97
			L63.54,103.62z M57.19,127.93c-0.23,0-0.47-0.06-0.68-0.17c-0.49-0.24-1.04-0.62-1.77-1.25c-1.51-1.28-2.9-2.7-4.24-4.34
			c-1.34-1.49-2.61-3.07-3.84-4.81c-0.85-1.19-1.13-2.1-0.92-2.95c0.06-0.77,0.59-1.53,1.56-2.19c0.16-0.16,0.48-0.36,1.35-0.8
			c0.64-0.39,1.5-0.9,2.51-1.44c0.92-0.55,2-1.19,3.19-1.84c1.02-0.61,2.19-1.31,3.33-1.92c1.08-0.64,2.09-1.18,3.09-1.66
			c0.56-0.34,1.13-0.65,1.69-0.93c-0.54-1.87,0.25-2.69,1.02-3.04c0.64-0.3,1.25-0.28,1.78,0.06c0.47,0.43,0.83,0.88,1.13,1.4
			c0.45,0.76,0.9,1.54,1.35,2.32c0.45,0.78,0.9,1.56,1.37,2.34c0.96,1.72,1.88,3.24,2.84,4.67c0.51,0.86,0.79,1.56,0.83,2.1
			c-0.01,0.51-0.21,1.19-1.13,1.73c-0.89,0.53-1.56,0.66-2.06,0.42c-0.49-0.22-0.93-0.6-1.34-1.18c-0.82-1.16-1.56-2.21-2.24-3.36
			c-0.59-0.9-1.17-1.93-1.78-3.11l-3.7,2.21c0.44,0.87,0.98,1.77,1.65,2.8c0.63,1.06,1.33,2.13,2.14,3.29
			c0.56,0.84,0.9,1.6,1.01,2.26c0.02,0.58-0.16,1.32-1.12,1.89c-0.85,0.52-1.64,0.58-2.22,0.21c-0.52-0.31-1-0.77-1.45-1.42
			c-0.78-1.12-1.53-2.28-2.22-3.43c-0.64-0.99-1.25-2.07-1.8-3.22c-0.9,0.55-1.74,1.1-2.47,1.59c-0.76,0.46-1.43,0.85-2,1.22
			c0.7,1.05,1.51,2.2,2.43,3.42c0.99,1.39,2.03,2.78,3.11,4.21l0.33,0.44c0.44,0.64,0.78,1.19,1.06,1.78
			c0.26,0.74,0.14,1.39-0.35,1.99C58.1,127.71,57.64,127.93,57.19,127.93"/>
		<path class="st5" d="M84.36,131.03c-0.52,0.96-1.07,1.95-1.69,3.04c-0.65,1.07-1.32,2.18-2.01,3.23c-0.77,1.1-1.49,2.12-2.25,3.13
			c-0.79,0.98-1.57,1.87-2.38,2.64c-0.66,0.62-1.2,1.06-1.61,1.4c-0.51,0.31-0.98,0.35-1.48,0.03c-0.44-0.24-0.72-0.57-0.81-0.98
			c-0.14-0.4-0.24-0.86-0.22-1.34c-0.06-0.59-0.08-1.4-0.04-2.47c-0.01-1.06,0.05-2.22,0.16-3.54c0.04-1.28,0.11-2.68,0.23-4.09
			c0.07-1.4,0.17-2.79,0.32-4.09l-1.83,2.35c-0.66,0.86-1.28,1.66-1.82,2.41c-0.62,0.79-1.1,1.53-1.51,2.15
			c-0.49,0.68-0.83,1.2-1.06,1.56c-0.46,0.7-0.92,1.1-1.4,1.23c-0.58,0.12-1.06,0.01-1.43-0.33c-0.93-0.72-0.89-1.78,0.1-3.29
			c0.43-0.67,1.06-1.55,1.87-2.63c0.78-1.04,1.6-2.15,2.52-3.24c0.83-1.11,1.7-2.14,2.52-3.1c0.79-0.98,1.46-1.69,1.99-2.2
			c0.52-0.5,0.99-0.89,1.43-1.2c0.37-0.26,0.84-0.3,1.38-0.05c0.53,0.25,0.83,0.64,0.94,1.16c0.05,0.53,0.02,1.12-0.04,1.67
			c-0.2,0.92-0.38,1.95-0.47,3.09c-0.17,1.18-0.25,2.38-0.32,3.63c-0.13,1.27-0.19,2.58-0.22,3.85c-0.09,1.29-0.14,2.51-0.16,3.69
			c1.03-1.42,2.08-2.88,3.07-4.39c0.93-1.49,1.9-3.06,2.83-4.64l0.45-0.7c0.14-0.21,0.34-0.43,0.58-0.58
			c0.2-0.16,0.42-0.27,0.73-0.27c0.23-0.05,0.56,0.06,0.95,0.22c0.35,0.23,0.63,0.41,0.79,0.62c0.16,0.2,0.23,0.4,0.28,0.63
			c-0.01,0.25-0.05,0.47-0.1,0.68L84.36,131.03z"/>
		<path class="st5" d="M73.32,126.24l-0.2,1.81c-0.14,1.23-0.25,2.59-0.32,4.05c-0.11,1.28-0.19,2.65-0.23,4.08
			c-0.12,1.37-0.17,2.51-0.16,3.53c-0.05,1.02-0.04,1.82,0.03,2.42c-0.01,0.45,0.05,0.84,0.19,1.23c0.07,0.32,0.26,0.53,0.57,0.7
			c0.39,0.25,0.59,0.21,0.96-0.02c0.34-0.28,0.88-0.72,1.53-1.33c0.72-0.69,1.48-1.54,2.33-2.59c0.74-0.99,1.46-2.01,2.22-3.1
			c0.64-0.98,1.28-2.03,1.9-3.05l0.09-0.15c0.61-1.08,1.15-2.07,1.68-3.02l0.29-0.66c0.01-0.11,0.05-0.29,0.06-0.5
			c-0.03-0.06-0.08-0.17-0.17-0.29c-0.12-0.15-0.39-0.33-0.67-0.51c-0.07-0.01-0.41-0.15-0.55-0.15c-0.27,0.01-0.38,0.06-0.53,0.17
			c-0.2,0.13-0.35,0.27-0.47,0.45l-0.45,0.69c-0.92,1.56-1.89,3.13-2.82,4.62c-1.04,1.6-2.13,3.1-3.1,4.44l-0.97,1.33l0.04-1.64
			c0.03-1.41,0.08-2.59,0.16-3.72c0.03-1.06,0.08-2.48,0.22-3.87c0.08-1.34,0.16-2.49,0.33-3.65c0.08-1,0.24-2.04,0.48-3.13
			c0.06-0.56,0.07-1.07,0.03-1.51c-0.07-0.32-0.27-0.58-0.65-0.75c-0.34-0.16-0.63-0.16-0.86,0c-0.4,0.27-0.84,0.64-1.38,1.16
			c-0.6,0.57-1.25,1.29-1.95,2.15c-0.78,0.91-1.68,1.97-2.51,3.09c-0.89,1.07-1.68,2.12-2.44,3.13l-0.08,0.11
			c-0.81,1.08-1.43,1.95-1.85,2.6c-1.2,1.84-0.51,2.37-0.22,2.59c0.3,0.27,0.6,0.32,1.01,0.24c0.33-0.09,0.7-0.43,1.08-1.01
			c0.25-0.38,0.59-0.91,1.08-1.57c0.44-0.67,0.91-1.38,1.52-2.17c0.42-0.59,0.91-1.22,1.43-1.9L73.32,126.24z M73.64,145.24
			c-0.33,0-0.66-0.1-0.97-0.31c-0.55-0.3-0.92-0.75-1.03-1.3c-0.17-0.45-0.25-0.96-0.23-1.47c-0.07-0.57-0.08-1.43-0.03-2.47
			c-0.01-1.02,0.04-2.2,0.17-3.57c0.04-1.42,0.12-2.81,0.23-4.09c0.04-0.81,0.09-1.59,0.15-2.33l-1.13,1.46
			c-0.51,0.67-0.99,1.29-1.42,1.88c-0.6,0.77-1.06,1.47-1.46,2.08c-0.52,0.72-0.86,1.23-1.08,1.58c-0.54,0.83-1.1,1.3-1.71,1.47
			c-0.87,0.18-1.42,0-1.91-0.45c-1.12-0.85-1.13-2.19,0.01-3.94c0.43-0.67,1.07-1.56,1.89-2.66l0.08-0.11
			c0.77-1.02,1.56-2.09,2.45-3.15c0.84-1.13,1.74-2.19,2.53-3.11c0.71-0.88,1.39-1.64,2.02-2.24c0.59-0.57,1.06-0.95,1.5-1.26
			c0.52-0.37,1.21-0.41,1.89-0.09c0.67,0.31,1.08,0.82,1.22,1.53c0.06,0.56,0.05,1.14-0.03,1.83c-0.24,1.09-0.39,2.08-0.47,3.07
			c-0.17,1.15-0.25,2.28-0.33,3.62c-0.14,1.38-0.19,2.78-0.22,3.84c-0.05,0.65-0.09,1.31-0.11,2.01c0.68-0.95,1.39-1.97,2.07-3
			c0.92-1.49,1.89-3.05,2.82-4.62l0.47-0.72c0.14-0.22,0.39-0.53,0.75-0.74c0.14-0.12,0.48-0.34,0.98-0.34
			c0.44-0.01,0.79,0.12,1.15,0.26c0.46,0.29,0.78,0.5,1,0.78c0.25,0.31,0.34,0.62,0.39,0.85c0,0.39-0.04,0.63-0.09,0.87l-0.04,0.13
			l-0.31,0.7c-0.55,1-1.1,1.99-1.71,3.09l-0.1,0.17c-0.63,1.03-1.27,2.08-1.93,3.09c-0.78,1.11-1.51,2.15-2.27,3.16
			c-0.89,1.1-1.68,1.98-2.43,2.71c-0.68,0.64-1.24,1.1-1.65,1.43C74.34,145.13,73.99,145.24,73.64,145.24"/>
		<path class="st5" d="M98.43,135.81c0.5,0.52,0.83,1.05,0.98,1.59c0.07,0.52-0.05,0.97-0.38,1.33c-0.69,0.73-1.69,0.62-2.96-0.33
			c-0.38-0.24-0.77-0.44-1.2-0.61c-0.5-0.09-0.94-0.21-1.35-0.29c-1.4-0.26-2.47,0.01-3.21,0.81c-0.79,0.83-1.41,2.33-1.82,4.55
			c-0.14,0.78-0.29,1.57-0.35,2.32c-0.14,0.78-0.11,1.51,0.02,2.17c0.09,0.7,0.36,1.3,0.81,1.85c0.4,0.59,1.05,1,1.92,1.33
			c0.71,0.3,1.5,0.4,2.27,0.38c0.72,0,1.5-0.28,2.32-0.81l0.05-0.03l0.01-0.04c-0.31-0.14-0.64-0.24-1.03-0.4
			c-0.41-0.08-0.86-0.2-1.34-0.34c-0.66-0.12-1.04-0.36-1.23-0.69c-0.24-0.3-0.31-0.61-0.23-1.02c0.09-0.49,0.28-0.84,0.62-1.07
			c0.3-0.21,0.78-0.28,1.45-0.25c0.67,0.04,1.29,0.16,1.95,0.28c0.57,0.15,1.21,0.35,1.94,0.57c0.99,0.35,1.68,0.78,2.07,1.23
			c0.34,0.48,0.21,1.19-0.31,2.11l-0.5,0.89c-0.24,0.38-0.52,0.75-0.76,1.13c-0.3,0.45-0.59,0.87-0.84,1.29
			c-0.34,0.45-0.62,0.82-0.93,1.15c-0.37,0.4-0.71,0.63-0.99,0.71c-0.32,0.11-0.69,0.09-1.07-0.15c-0.36-0.15-0.52-0.44-0.54-0.78
			c-0.06-0.35,0-0.68,0.19-1.03l0.01-0.04c-0.71,0.17-1.4,0.21-2.07,0.17c-0.76-0.01-1.43-0.1-2.07-0.3
			c-1.39-0.34-2.43-0.88-3.23-1.62c-0.85-0.71-1.45-1.59-1.82-2.59c-0.42-0.97-0.6-2.07-0.57-3.34c-0.03-1.23,0.13-2.57,0.48-3.99
			c0.75-3.35,2.02-5.63,3.83-6.91c1.75-1.21,3.86-1.54,6.31-1.01c0.48,0.13,1.09,0.33,1.8,0.59
			C97.32,134.93,97.93,135.34,98.43,135.81"/>
		<path class="st5" d="M94.65,152.94l-0.22,0.97c-0.13,0.24-0.17,0.45-0.13,0.69c0.02,0.27,0.11,0.34,0.23,0.4
			c0.33,0.2,0.51,0.21,0.7,0.14c0.1-0.03,0.37-0.13,0.77-0.58c0.29-0.3,0.54-0.63,0.9-1.1c0.14-0.25,0.33-0.54,0.53-0.84l0.28-0.43
			c0.12-0.19,0.26-0.39,0.39-0.58c0.13-0.18,0.25-0.37,0.37-0.55l0.49-0.87c0.28-0.51,0.57-1.2,0.33-1.56
			c-0.2-0.24-0.71-0.65-1.82-1.04l-0.39-0.12c-0.55-0.17-1.05-0.32-1.5-0.44c-0.6-0.11-1.21-0.22-1.85-0.27
			c-0.67-0.04-1.02,0.09-1.13,0.16c-0.14,0.1-0.32,0.28-0.41,0.75c-0.06,0.3,0,0.45,0.13,0.6c0.17,0.28,0.47,0.43,0.93,0.52
			c0.54,0.14,0.95,0.26,1.34,0.33l0.52,0.2c0.22,0.08,0.43,0.16,0.62,0.25l0.36,0.17l-0.11,0.61l-0.19,0.16
			c-0.96,0.62-1.83,0.92-2.63,0.92l-0.24,0c-0.83,0-1.59-0.14-2.25-0.42c-1.01-0.38-1.7-0.86-2.15-1.51
			c-0.49-0.6-0.8-1.29-0.89-2.08c-0.15-0.76-0.16-1.55-0.02-2.33c0.05-0.71,0.2-1.51,0.34-2.28c0.43-2.31,1.08-3.94,1.96-4.86
			c0.85-0.92,2.1-1.26,3.67-0.96c0.21,0.04,0.42,0.09,0.65,0.14c0.22,0.06,0.46,0.11,0.7,0.16c0.53,0.19,0.96,0.41,1.39,0.68
			c1.07,0.8,1.8,0.96,2.31,0.41c0.21-0.24,0.29-0.53,0.24-0.91c-0.12-0.38-0.4-0.84-0.84-1.3c-0.46-0.43-1.03-0.81-1.62-1.06
			c-0.67-0.24-1.26-0.43-1.74-0.57c-2.21-0.48-4.26-0.18-5.88,0.93c-1.71,1.21-2.9,3.37-3.62,6.59c-0.34,1.38-0.49,2.68-0.46,3.87
			c-0.02,1.25,0.15,2.27,0.53,3.15c0.35,0.96,0.91,1.76,1.68,2.39c0.76,0.71,1.75,1.2,3.02,1.52c0.58,0.18,1.18,0.27,1.96,0.28
			c0.75,0.04,1.32-0.01,1.95-0.16L94.65,152.94z M95.04,156.2c-0.34,0-0.66-0.1-0.98-0.3c-0.44-0.17-0.74-0.6-0.77-1.18
			c-0.03-0.14-0.04-0.3-0.02-0.45c-0.45,0.05-0.92,0.06-1.37,0.03c-0.87-0.01-1.55-0.11-2.2-0.32c-1.42-0.35-2.55-0.92-3.42-1.73
			c-0.88-0.74-1.55-1.68-1.95-2.79c-0.42-1-0.62-2.16-0.6-3.53c-0.03-1.26,0.14-2.65,0.5-4.11c0.78-3.47,2.1-5.83,4.03-7.2
			c1.87-1.29,4.13-1.66,6.72-1.09c0.52,0.14,1.14,0.34,1.87,0.61c0.73,0.31,1.39,0.76,1.96,1.29c0.57,0.59,0.95,1.2,1.12,1.82
			c0.11,0.74-0.06,1.34-0.48,1.82c-0.89,0.93-2.17,0.85-3.65-0.27c-0.34-0.21-0.69-0.39-1.08-0.54c-0.17-0.03-0.42-0.08-0.66-0.14
			c-0.21-0.05-0.41-0.1-0.6-0.13c-1.22-0.23-2.12-0.01-2.74,0.65c-0.74,0.78-1.31,2.22-1.69,4.3c-0.14,0.78-0.29,1.55-0.34,2.27
			c-0.12,0.7-0.12,1.36,0.01,2.03c0.08,0.62,0.31,1.15,0.7,1.63c0.35,0.5,0.88,0.86,1.7,1.17c0.56,0.24,1.18,0.35,1.87,0.35l0.2,0
			c0.39,0,0.79-0.09,1.22-0.28l-0.05-0.02c-0.31-0.05-0.76-0.17-1.24-0.3c-0.79-0.15-1.3-0.46-1.59-0.95
			c-0.29-0.35-0.4-0.81-0.3-1.37c0.12-0.64,0.39-1.1,0.84-1.4c0.39-0.27,0.96-0.38,1.77-0.33c0.71,0.04,1.34,0.16,2.02,0.29
			c0.5,0.13,1.01,0.28,1.57,0.45l0.42,0.13c1.08,0.38,1.85,0.85,2.31,1.39c0.47,0.69,0.38,1.55-0.25,2.69l-0.51,0.89
			c-0.14,0.21-0.27,0.41-0.4,0.61c-0.13,0.18-0.25,0.36-0.37,0.55l-0.29,0.44c-0.19,0.28-0.37,0.56-0.53,0.84
			c-0.4,0.54-0.68,0.91-1.01,1.24c-0.41,0.44-0.83,0.74-1.21,0.85C95.4,156.17,95.22,156.2,95.04,156.2"/>
		<path class="st5" d="M107.38,150.39c0.5-0.04,1.13-0.17,1.96-0.34c0.79-0.13,1.63-0.29,2.47-0.5c0.84-0.17,1.59-0.34,2.34-0.55
			c0.71-0.17,1.26-0.29,1.59-0.41c0.54-0.17,1-0.26,1.42-0.17c0.38,0.08,0.63,0.33,0.75,0.71c0.12,0.54,0.08,0.96-0.17,1.21
			c-0.29,0.3-0.67,0.55-1.17,0.8c-0.42,0.21-1.09,0.46-2.01,0.75c-1.01,0.34-2.01,0.67-3.01,0.92c-1.09,0.34-2.05,0.58-2.97,0.8
			c-0.92,0.25-1.55,0.42-1.88,0.42c-1.34,0.16-2.17-0.04-2.51-0.59c-0.37-0.5-0.5-1.34-0.42-2.59c0.13-2.25,0.3-4.52,0.46-6.81
			c0.13-2.26,0.3-4.6,0.54-6.98c0.08-1.17,0.59-1.76,1.51-1.67c0.38,0.04,0.67,0.21,0.84,0.5c0.17,0.33,0.21,0.79,0.21,1.3
			c-0.04,0.88-0.04,1.76-0.04,2.59c0,0.92,0,1.88,0.04,2.88c0,1.05,0,2.18,0.04,3.43V150.39z"/>
		<path class="st5" d="M106.17,135.89c-0.33,0-0.79,0.07-0.87,1.2c-0.22,2.13-0.4,4.41-0.54,6.97l-0.05,0.65
			c-0.15,2.08-0.3,4.12-0.41,6.16c-0.08,1.14,0.03,1.88,0.32,2.26c0.23,0.37,0.81,0.43,1.27,0.43c0.23,0,0.48-0.01,0.76-0.05
			c0.34,0,1.06-0.2,1.81-0.41c1-0.23,1.96-0.49,2.95-0.79c0.99-0.25,1.94-0.56,3-0.92c0.89-0.28,1.54-0.53,1.94-0.72
			c0.46-0.23,0.79-0.45,1.03-0.7c0.11-0.1,0.11-0.37,0.04-0.73c-0.08-0.23-0.24-0.3-0.36-0.32c-0.27-0.05-0.62-0.01-1.16,0.16
			c-0.34,0.13-0.87,0.25-1.62,0.42c-0.67,0.18-1.4,0.35-2.36,0.55c-0.8,0.2-1.65,0.37-2.49,0.5c-0.81,0.16-1.46,0.3-2,0.34
			l-0.56,0.05v-4.87c-0.04-1.25-0.04-2.38-0.04-3.43c-0.04-0.99-0.04-1.95-0.04-2.88c0-0.85,0-1.73,0.04-2.62
			c0-0.3-0.01-0.77-0.16-1.04c-0.01-0.03-0.11-0.19-0.43-0.22H106.17z M105.88,154.6c-1.04,0-1.76-0.3-2.12-0.89
			c-0.43-0.57-0.59-1.47-0.49-2.9c0.11-2.04,0.26-4.09,0.41-6.17l0.05-0.64c0.14-2.58,0.32-4.87,0.54-7
			c0.14-1.93,1.34-2.14,1.85-2.14c0.07,0,0.14,0,0.22,0.01c0.55,0.06,0.99,0.33,1.24,0.76c0.2,0.39,0.28,0.86,0.28,1.55
			c-0.04,0.89-0.04,1.77-0.04,2.59c0,0.91,0,1.87,0.04,2.86c0,1.06,0,2.19,0.04,3.44v3.74c0.38-0.06,0.83-0.15,1.35-0.25
			c0.83-0.13,1.65-0.3,2.44-0.5c0.96-0.19,1.67-0.36,2.33-0.54c0.7-0.17,1.25-0.29,1.55-0.4c0.76-0.24,1.23-0.28,1.7-0.19
			c0.55,0.12,0.95,0.49,1.14,1.05c0.18,0.8,0.08,1.37-0.3,1.74c-0.32,0.33-0.74,0.61-1.3,0.89c-0.45,0.23-1.13,0.48-2.08,0.78
			c-1.07,0.36-2.04,0.68-3.04,0.93c-0.99,0.3-1.97,0.56-2.98,0.79c-1,0.28-1.6,0.43-2,0.43C106.44,154.58,106.15,154.6,105.88,154.6
			"/>
		<path class="st5" d="M130.85,142.51c0.14,0.4,0.2,0.66,0.14,0.89c-0.07,0.28-0.39,0.57-0.92,0.84l-3.16,1.73
			c-1.04,0.62-2.04,1.31-3,2.07c-0.75,0.64-1.4,0.59-1.9-0.08c-0.27-0.28-0.42-0.62-0.49-1.07c-0.1-0.33,0.09-0.74,0.59-1.22
			c0.12-0.12,0.28-0.26,0.47-0.43c0.18-0.11,0.37-0.27,0.57-0.44c-0.88-1.81-1.8-3.6-2.7-5.44c-0.95-1.77-1.91-3.63-2.84-5.51
			c-0.26,0.2-0.49,0.39-0.75,0.54c-0.26,0.2-0.5,0.39-0.73,0.58c-0.71,0.61-1.35,0.61-1.9-0.09c-0.26-0.28-0.42-0.62-0.49-1.07
			c-0.1-0.33,0.1-0.74,0.59-1.22c0.32-0.29,0.78-0.66,1.31-1.07c0.56-0.38,1.11-0.75,1.73-1.18c0.57-0.34,1.21-0.67,1.82-1.03
			c0.62-0.27,1.18-0.56,1.65-0.74c0.44-0.16,0.87-0.17,1.27-0.07c0.39,0.16,0.71,0.45,0.91,0.87c0.14,0.4,0.2,0.66,0.14,0.89
			c-0.07,0.28-0.39,0.57-0.91,0.84c-0.36,0.21-0.68,0.41-1.03,0.56c-0.36,0.21-0.68,0.4-1.03,0.56l0.11,0.18
			c0.91,1.7,1.9,3.44,2.93,5.26c1,1.84,1.92,3.63,2.79,5.35c0.47-0.28,0.96-0.52,1.41-0.74c0.47-0.18,0.86-0.36,1.24-0.54
			c0.44-0.16,0.87-0.18,1.27-0.08C130.33,141.8,130.65,142.09,130.85,142.51"/>
		<path class="st5" d="M117.8,133.04l0.28,0.56c0.92,1.87,1.88,3.72,2.83,5.49c0.45,0.92,0.9,1.81,1.34,2.7
			c0.46,0.92,0.92,1.84,1.37,2.76l0.18,0.35l-0.3,0.26c-0.22,0.19-0.44,0.37-0.64,0.49c-0.11,0.1-0.26,0.23-0.38,0.35
			c-0.41,0.41-0.48,0.64-0.46,0.71c0.07,0.41,0.18,0.66,0.38,0.87c0.28,0.37,0.47,0.37,0.53,0.37c0.18,0,0.41-0.11,0.66-0.33
			c0.98-0.78,2.01-1.49,3.07-2.12l3.17-1.74c0.51-0.26,0.65-0.45,0.66-0.51c0.03-0.12-0.05-0.37-0.13-0.59
			c-0.12-0.24-0.33-0.45-0.62-0.57c-0.14-0.02-0.57-0.04-0.89,0.08c-0.38,0.18-0.77,0.35-1.23,0.54c-0.4,0.2-0.88,0.43-1.33,0.7
			l-0.47,0.28l-0.25-0.49c-0.87-1.71-1.79-3.5-2.78-5.33c-1.03-1.81-2.02-3.57-2.93-5.27l-0.39-0.66l0.52-0.23
			c0.33-0.15,0.64-0.34,0.98-0.54c0.38-0.17,0.68-0.35,1.03-0.55c0.62-0.32,0.68-0.52,0.68-0.53c0.03-0.12-0.05-0.38-0.13-0.59
			c-0.12-0.24-0.34-0.45-0.62-0.57c-0.15-0.02-0.57-0.04-0.9,0.08c-0.26,0.1-0.56,0.24-0.88,0.39c-0.24,0.11-0.48,0.23-0.74,0.34
			c-0.26,0.16-0.57,0.33-0.89,0.51c-0.3,0.16-0.6,0.33-0.88,0.5l-1.71,1.16c-0.5,0.38-0.95,0.75-1.26,1.03
			c-0.39,0.39-0.46,0.62-0.43,0.69c0.07,0.41,0.18,0.67,0.37,0.86c0.43,0.52,0.71,0.46,1.19,0.05l0.75-0.59
			c0.26-0.16,0.44-0.3,0.65-0.46L117.8,133.04z M122.93,149c-0.35,0-0.87-0.13-1.32-0.75c-0.3-0.31-0.5-0.75-0.58-1.3
			c-0.22-0.72,0.5-1.43,0.73-1.66c0.13-0.13,0.3-0.28,0.51-0.46c0.09-0.06,0.18-0.12,0.26-0.18c-0.39-0.8-0.79-1.6-1.19-2.39
			c-0.44-0.89-0.89-1.78-1.33-2.69c-0.86-1.59-1.72-3.26-2.57-4.95c-0.1,0.07-0.2,0.14-0.3,0.2l-0.67,0.54
			c-0.91,0.79-1.9,0.73-2.62-0.17c-0.31-0.33-0.51-0.76-0.6-1.31c-0.14-0.46,0.1-1.04,0.73-1.67c0.34-0.31,0.81-0.69,1.35-1.11
			l1.76-1.2c0.32-0.19,0.62-0.36,0.93-0.53c0.31-0.17,0.61-0.34,0.91-0.52c0.31-0.14,0.55-0.25,0.78-0.36
			c0.34-0.16,0.66-0.31,0.95-0.42c0.53-0.2,1.06-0.23,1.58-0.09c0.59,0.24,1,0.63,1.25,1.15c0.19,0.51,0.27,0.88,0.17,1.24
			c-0.11,0.44-0.5,0.82-1.18,1.17c-0.35,0.21-0.69,0.41-1.05,0.57c-0.17,0.1-0.35,0.21-0.53,0.31c0.87,1.62,1.81,3.26,2.78,4.97
			c0.91,1.69,1.75,3.31,2.55,4.89c0.33-0.17,0.66-0.34,0.97-0.49c0.49-0.19,0.85-0.35,1.2-0.52c0.65-0.25,1.14-0.26,1.66-0.13
			c0.59,0.24,1,0.63,1.25,1.15c0.18,0.52,0.27,0.88,0.17,1.24c-0.11,0.44-0.51,0.83-1.18,1.17l-3.14,1.72
			c-1.01,0.6-1.99,1.28-2.93,2.03C123.81,148.81,123.36,149,122.93,149"/>
		<path class="st5" d="M131.72,120.39c1.71-1.04,3.37-1.46,4.89-1.3c0.5,0.09,0.92,0.22,1.31,0.38c0.36,0.27,0.58,0.63,0.6,1.15
			c0.08,0.93-0.42,1.49-1.47,1.53l-1.78,0.3c-0.65,0.21-1.27,0.48-1.84,0.83c-0.92,0.66-1.61,1.22-2.05,1.78
			c-0.44,0.57-0.46,1.26,0,2.01c0.4,0.74,1.07,1.11,2.04,1.11c0.9,0.04,2-0.09,3.21-0.34c1.06-0.2,2.04-0.35,2.95-0.47
			c0.93-0.07,1.76-0.09,2.5,0c0.73,0.15,1.37,0.4,1.88,0.76c0.51,0.43,0.91,1.01,1.2,1.81c0.18,0.62,0.25,1.22,0.13,1.83
			c-0.1,0.64-0.37,1.25-0.72,1.8c-0.4,0.63-0.84,1.19-1.4,1.73c-0.56,0.53-1.19,1.02-1.87,1.43c-0.93,0.57-1.89,1-2.9,1.27
			c-1.06,0.35-2.04,0.5-2.97,0.43c-0.69-0.02-1.18-0.17-1.43-0.5c-0.26-0.28-0.33-0.63-0.29-1.04c0.08-0.84,0.66-1.33,1.64-1.49
			c0.75-0.06,1.52-0.24,2.34-0.5c0.84-0.22,1.7-0.59,2.55-1.2c1.03-0.72,1.46-1.38,1.22-2.01c-0.13-0.37-0.41-0.58-0.79-0.74
			c-0.44-0.08-0.91-0.13-1.4-0.13c-0.56,0.04-1.06,0.11-1.57,0.22c-0.55,0.14-0.98,0.25-1.35,0.28c-0.78,0.18-1.53,0.3-2.32,0.38
			c-0.82,0.1-1.59,0.13-2.35,0.01c-0.77-0.07-1.49-0.27-2.15-0.65c-0.69-0.32-1.24-0.91-1.72-1.69c-0.52-0.86-0.8-1.71-0.8-2.6
			c0.01-0.79,0.17-1.57,0.56-2.39c0.39-0.73,0.93-1.45,1.68-2.15C129.96,121.6,130.79,120.95,131.72,120.39"/>
		<path class="st5" d="M139.27,130.3c0.51,0,0.98,0.04,1.5,0.13c0.67,0.26,1.03,0.61,1.19,1.09c0.48,1.27-0.94,2.27-1.41,2.6
			c-0.84,0.6-1.73,1.02-2.71,1.28c-0.89,0.28-1.69,0.45-2.43,0.51c-0.97,0.15-1.13,0.65-1.17,1.02c-0.04,0.38,0.06,0.54,0.15,0.64
			c0.18,0.22,0.53,0.33,1.08,0.34c0.16,0.01,0.3,0.02,0.44,0.02c0.72,0,1.49-0.14,2.35-0.43c0.95-0.26,1.86-0.66,2.79-1.22
			c0.65-0.39,1.25-0.85,1.78-1.36c0.5-0.48,0.92-1,1.32-1.63c0.35-0.56,0.56-1.09,0.64-1.61c0.1-0.51,0.06-1.01-0.11-1.61
			c-0.24-0.65-0.59-1.17-1.04-1.57c-0.4-0.29-0.96-0.51-1.65-0.65c-0.62-0.08-1.46-0.07-2.35,0.01c-0.88,0.11-1.86,0.27-2.89,0.46
			c-1.32,0.27-2.44,0.38-3.34,0.35h0c-1.15,0-1.98-0.47-2.47-1.38c-0.55-0.9-0.53-1.82,0.05-2.56c0.43-0.55,1.08-1.12,2.15-1.88
			c0.64-0.39,1.3-0.68,1.99-0.9l1.84-0.31c0.33-0.02,0.69-0.07,0.89-0.29c0.13-0.15,0.18-0.38,0.16-0.69
			c-0.01-0.33-0.12-0.55-0.35-0.75c-0.39-0.15-0.76-0.25-1.14-0.32c-0.15-0.02-0.34-0.02-0.54-0.02c-1.27,0-2.61,0.42-3.99,1.26
			c-0.79,0.48-1.6,1.08-2.39,1.78c-0.66,0.61-1.18,1.27-1.57,2c-0.31,0.68-0.48,1.39-0.49,2.15c0,0.77,0.24,1.53,0.72,2.33
			c0.46,0.75,0.95,1.24,1.5,1.5c0.62,0.34,1.26,0.54,1.98,0.6c0.75,0.12,1.45,0.1,2.23-0.01c0.81-0.09,1.55-0.2,2.27-0.37
			c0.37-0.04,0.75-0.13,1.23-0.26c0.7-0.16,1.25-0.22,1.76-0.26H139.27z M135.89,138.96c-0.17,0-0.33-0.01-0.49-0.02
			c-0.54-0.01-1.35-0.1-1.8-0.7c-0.31-0.32-0.45-0.79-0.39-1.4c0.1-1.06,0.84-1.75,2.07-1.94c0.7-0.06,1.43-0.22,2.27-0.48
			c0.88-0.23,1.66-0.59,2.4-1.13c0.83-0.58,1.18-1.06,1.04-1.42c-0.05-0.15-0.14-0.3-0.5-0.45c-0.37-0.05-0.79-0.09-1.18-0.09
			c-0.45,0.04-0.96,0.09-1.48,0.21c-0.61,0.16-1.03,0.26-1.42,0.29c-0.69,0.16-1.47,0.29-2.31,0.38c-0.95,0.12-1.73,0.13-2.48,0.01
			c-0.84-0.08-1.61-0.31-2.32-0.71c-0.7-0.33-1.34-0.95-1.9-1.88c-0.59-0.96-0.87-1.9-0.87-2.87c0.01-0.92,0.21-1.77,0.61-2.61
			c0.45-0.84,1.05-1.61,1.79-2.3c0.84-0.75,1.69-1.39,2.54-1.9c1.78-1.08,3.55-1.55,5.21-1.37c0.51,0.09,0.96,0.22,1.44,0.41
			l0.12,0.06c0.51,0.38,0.77,0.9,0.81,1.54c0.06,0.72-0.19,1.18-0.42,1.43c-0.35,0.39-0.86,0.61-1.54,0.64l-1.71,0.29
			c-0.55,0.17-1.13,0.44-1.66,0.76c-0.96,0.69-1.54,1.19-1.91,1.66c-0.31,0.4-0.3,0.87,0.03,1.42c0.32,0.6,0.82,0.86,1.58,0.86
			c0.15,0,0.25,0.01,0.35,0.01c0.76,0,1.7-0.11,2.79-0.34c1.06-0.2,2.05-0.36,2.99-0.48c1.01-0.08,1.85-0.09,2.62,0
			c0.86,0.17,1.56,0.46,2.12,0.86c0.63,0.53,1.07,1.19,1.39,2.06c0.23,0.79,0.28,1.45,0.15,2.1c-0.1,0.64-0.35,1.29-0.78,1.98
			c-0.45,0.71-0.92,1.29-1.48,1.83c-0.59,0.56-1.25,1.07-1.96,1.5c-1.02,0.62-2.01,1.05-3.03,1.33
			C137.59,138.81,136.72,138.96,135.89,138.96"/>
		<path class="st5" d="M138.27,105.98c1.12,1.35,2.23,2.61,3.25,3.72c1.05,1.2,2.06,2.31,3.05,3.38c1.62-1.82,3.46-3.52,5.57-5.12
			l-2.45-3.03c-0.82-1.02-1.69-2.09-2.52-3.25c-0.48-0.58-0.75-1.13-0.79-1.6c-0.04-0.42,0.18-0.85,0.65-1.28
			c0.43-0.4,0.88-0.52,1.32-0.48c0.44,0.11,0.9,0.36,1.33,0.82c1.87,2.03,3.68,4.07,5.43,6.03c1.75,2.03,3.52,4.09,5.39,6.18
			c0.59,0.71,0.89,1.34,0.89,1.96c0,0.68-0.29,1.29-0.94,1.77c-0.64,0.54-1.3,0.68-1.93,0.36c-0.62-0.23-1.18-0.72-1.75-1.46
			c-0.42-0.52-0.81-1.08-1.2-1.62c-0.39-0.49-0.81-1.01-1.21-1.56c-0.89,0.82-1.81,1.61-2.73,2.34c-0.92,0.79-1.84,1.58-2.82,2.37
			c1.13,1.23,2.27,2.4,3.4,3.51c1.16,1.21,2.38,2.41,3.75,3.65c1.14,1.11,1.24,2.15,0.28,3.09c-0.47,0.48-0.95,0.7-1.48,0.68
			c-0.53,0.03-1.09-0.2-1.74-0.72c-1.2-0.94-2.51-2.12-3.82-3.54c-1.33-1.39-2.63-2.86-3.98-4.46c-1.3-1.53-2.62-3.1-3.91-4.75
			c-1.27-1.56-2.5-3.1-3.66-4.54c-0.42-0.46-0.7-0.95-0.85-1.49c-0.16-0.48,0.01-0.98,0.54-1.52
			C136.26,104.59,137.23,104.78,138.27,105.98"/>
		<path class="st5" d="M136.5,105.43c-0.27,0-0.53,0.13-0.82,0.39c-0.54,0.55-0.44,0.86-0.4,0.97c0.14,0.5,0.38,0.91,0.74,1.3
			c1.17,1.47,2.41,3,3.68,4.56c1.25,1.6,2.54,3.13,3.78,4.6l0.13,0.15c1.54,1.82,2.76,3.19,3.96,4.44c1.18,1.29,2.45,2.46,3.76,3.49
			c0.52,0.42,0.94,0.62,1.32,0.62v0.52l0.07-0.52h0c0.47,0,0.8-0.16,1.14-0.52c0.34-0.34,0.51-0.65,0.51-0.98
			c0-0.41-0.26-0.88-0.78-1.39c-1.24-1.12-2.44-2.29-3.76-3.66c-1.11-1.08-2.26-2.28-3.41-3.53l-0.38-0.41l0.43-0.34
			c0.97-0.79,1.89-1.57,2.81-2.36c0.91-0.72,1.82-1.5,2.72-2.33l0.43-0.39l0.34,0.47c0.39,0.54,0.8,1.05,1.19,1.54l0.1,0.14
			c0.36,0.5,0.72,1.01,1.11,1.49c0.53,0.69,1.03,1.11,1.52,1.3c0.59,0.28,0.93,0.14,1.43-0.27c0.51-0.38,0.75-0.82,0.75-1.37
			c0-0.48-0.26-1.01-0.77-1.63c-1.85-2.08-3.63-4.14-5.39-6.17c-1.74-1.96-3.55-3.99-5.41-6.02c-0.32-0.35-0.69-0.58-1.07-0.67
			c-0.34,0-0.6,0.11-0.86,0.35c-0.23,0.21-0.51,0.54-0.48,0.85c0.02,0.26,0.16,0.69,0.67,1.32c0.79,1.09,1.58,2.07,2.35,3.02
			l2.96,3.67l-0.42,0.32c-2.1,1.59-3.9,3.24-5.5,5.05l-0.38,0.43l-0.39-0.42c-0.99-1.08-2.01-2.2-3.06-3.4
			c-1.04-1.13-2.13-2.39-3.25-3.72C137.37,105.73,136.91,105.43,136.5,105.43 M152.65,126.98c-0.62,0-1.25-0.27-1.96-0.84
			c-1.35-1.06-2.65-2.27-3.87-3.59c-1.19-1.24-2.47-2.66-4-4.48l-0.13-0.15c-1.25-1.49-2.54-3.02-3.8-4.63
			c-1.26-1.56-2.5-3.09-3.65-4.53c-0.45-0.5-0.77-1.05-0.95-1.67c-0.22-0.65,0-1.34,0.66-2.02c1.18-1.08,2.44-0.88,3.69,0.56
			c1.12,1.34,2.2,2.58,3.24,3.71c0.91,1.05,1.8,2.03,2.67,2.97c1.44-1.57,3.03-3.03,4.85-4.44l-2.3-2.85
			c-0.78-0.96-1.57-1.96-2.36-3.04c-0.53-0.65-0.84-1.28-0.89-1.86c-0.04-0.4,0.07-1.02,0.81-1.7c0.51-0.47,1.11-0.67,1.73-0.61
			c0.64,0.15,1.19,0.49,1.65,0.99c1.87,2.04,3.68,4.07,5.43,6.04c1.75,2.04,3.53,4.09,5.39,6.18c0.7,0.84,1.02,1.56,1.03,2.3
			c0,0.88-0.4,1.63-1.14,2.18c-0.78,0.65-1.68,0.81-2.48,0.41c-0.63-0.24-1.27-0.77-1.92-1.6c-0.39-0.48-0.76-1.01-1.13-1.53
			l-0.08-0.11c-0.27-0.34-0.57-0.71-0.86-1.1c-0.78,0.71-1.57,1.37-2.34,1.98c-0.78,0.67-1.57,1.34-2.39,2.02
			c1.01,1.09,2.02,2.13,3.01,3.09c1.32,1.37,2.5,2.52,3.73,3.64c0.74,0.72,1.1,1.43,1.1,2.14c0,0.61-0.27,1.18-0.8,1.7
			c-0.53,0.55-1.12,0.82-1.77,0.82L152.65,126.98z"/>
		<path class="st4" d="M62.99,82.03h2.97c0.83,0,1.43-0.21,1.79-0.64c0.3-0.32,0.45-0.81,0.45-1.48C68.12,78.64,67.33,78,65.84,78
			h-2.85V82.03z M62.99,74.19h2.15c0.52,0,0.95-0.17,1.3-0.51c0.35-0.34,0.52-0.76,0.52-1.28c0-0.5-0.2-0.88-0.61-1.16
			c-0.4-0.27-0.87-0.41-1.41-0.41h-1.96V74.19z M68.79,75.46c1.01,0.3,1.79,0.69,2.35,1.18c1.01,0.89,1.52,2.03,1.52,3.41
			c0,1.07-0.25,2.04-0.75,2.92c-0.5,0.88-1.18,1.56-2.06,2.05c-0.87,0.5-1.84,0.74-2.91,0.74h-5.62c-0.83,0-1.47-0.23-1.92-0.68
			c-0.45-0.46-0.68-1.1-0.68-1.93V69.69c0-0.81,0.23-1.45,0.68-1.91c0.46-0.47,1.1-0.69,1.92-0.69h4.25c1.65,0,2.94,0.39,3.87,1.17
			c0.48,0.41,0.86,0.9,1.14,1.48c0.28,0.58,0.42,1.18,0.42,1.8c0,0.95-0.17,1.73-0.51,2.32C70.14,74.44,69.57,74.98,68.79,75.46"/>
		<path class="st4" d="M78.69,78.58c0,0.96,0.23,1.81,0.68,2.53c0.45,0.72,1.13,1.08,2.04,1.08c0.6,0,1.13-0.16,1.59-0.48
			c0.45-0.33,0.79-0.75,1.03-1.27c0.23-0.52,0.35-1.08,0.35-1.67c0-1.06-0.24-1.94-0.73-2.63c-0.49-0.69-1.23-1.04-2.24-1.04
			c-0.85,0-1.52,0.35-2,1.07C78.93,76.9,78.69,77.7,78.69,78.58 M86.48,85.96c-0.94,0-1.61-0.54-1.99-1.63
			c-0.5,0.6-1.01,1.03-1.53,1.3c-0.52,0.27-1.16,0.4-1.91,0.4c-1.49,0-2.83-0.52-4.03-1.57c-1.62-1.45-2.43-3.38-2.43-5.82
			c0-2.25,0.72-4.08,2.15-5.49c1.25-1.25,2.66-1.88,4.23-1.88c0.75,0,1.39,0.13,1.92,0.38c0.53,0.26,1.07,0.67,1.64,1.24
			c0.42-1,1.08-1.51,1.99-1.51c0.59,0,1.09,0.21,1.49,0.61c0.4,0.41,0.61,0.91,0.61,1.49v10.02c0,0.68-0.19,1.25-0.58,1.73
			C87.64,85.72,87.12,85.96,86.48,85.96"/>
		<path class="st4" d="M95.94,78.67c0,0.91,0.25,1.73,0.77,2.45c0.51,0.72,1.21,1.08,2.08,1.08c0.58,0,1.09-0.17,1.5-0.52
			c0.42-0.35,0.74-0.8,0.95-1.35c0.21-0.55,0.32-1.1,0.32-1.66c0-0.9-0.25-1.72-0.74-2.46c-0.49-0.73-1.17-1.1-2.04-1.1
			c-0.6,0-1.12,0.17-1.55,0.52c-0.43,0.35-0.76,0.79-0.98,1.34C96.05,77.52,95.94,78.09,95.94,78.67 M95.97,72.48
			c1.09-0.81,2.17-1.2,3.22-1.2c0.9,0,1.75,0.19,2.54,0.58c0.79,0.39,1.48,0.92,2.07,1.59c0.59,0.67,1.05,1.44,1.37,2.29
			c0.33,0.86,0.49,1.73,0.49,2.62c0,2.5-0.72,4.47-2.15,5.9c-1.15,1.18-2.54,1.77-4.18,1.77c-1.46,0-2.6-0.55-3.42-1.63
			c-0.43,1.03-1.06,1.54-1.9,1.54c-0.64,0-1.16-0.21-1.55-0.62c-0.4-0.41-0.6-0.93-0.6-1.57V67.5c0-0.41,0.08-0.78,0.24-1.13
			c0.16-0.35,0.39-0.63,0.71-0.83c0.31-0.2,0.68-0.3,1.1-0.3c0.64,0,1.14,0.21,1.51,0.65c0.37,0.44,0.56,0.97,0.56,1.61V72.48z"/>
		<path class="st4" d="M113.35,79.37l2.41-6.05c0.23-0.6,0.5-1.08,0.78-1.43c0.29-0.35,0.66-0.52,1.12-0.52
			c0.36,0,0.73,0.07,1.1,0.22c0.37,0.15,0.68,0.36,0.92,0.64c0.23,0.28,0.35,0.6,0.35,0.96c0,0.48-0.07,0.91-0.22,1.29l-6.63,15.79
			c-0.39,0.97-0.97,1.45-1.74,1.45c-0.57,0-1.08-0.16-1.54-0.49c-0.46-0.33-0.71-0.76-0.75-1.29c0-0.38,0.08-0.81,0.25-1.26
			l1.79-4.2l-4.23-10.03c-0.17-0.43-0.25-0.86-0.25-1.29c0-0.53,0.25-0.96,0.73-1.29c0.49-0.33,1.03-0.5,1.62-0.5
			c0.47,0,0.84,0.17,1.11,0.52c0.28,0.35,0.53,0.82,0.76,1.41L113.35,79.37z"/>
		<path class="st4" d="M132.04,78.37l-2.27-7.12l-2.27,7.12H132.04z M133.32,82.2h-7.16l-0.45,1.62c-0.39,1.47-1.03,2.21-1.91,2.21
			c-0.6,0-1.14-0.14-1.61-0.44c-0.47-0.3-0.74-0.72-0.83-1.27c0-0.58,0.06-1.03,0.17-1.35l5.04-13.86c0.26-0.72,0.67-1.3,1.23-1.74
			c0.56-0.44,1.2-0.66,1.94-0.66c0.73,0,1.38,0.22,1.94,0.65c0.56,0.44,0.96,1.02,1.23,1.75l5.04,13.86
			c0.11,0.33,0.17,0.78,0.17,1.35c-0.06,0.54-0.33,0.97-0.8,1.26c-0.47,0.3-1.02,0.44-1.64,0.44c-0.4,0-0.77-0.17-1.09-0.53
			c-0.32-0.35-0.54-0.76-0.68-1.23L133.32,82.2z"/>
		<path class="st4" d="M144.33,67.5v16.16c0,0.66-0.18,1.2-0.55,1.64c-0.36,0.43-0.87,0.65-1.52,0.65c-0.63,0-1.12-0.23-1.49-0.67
			c-0.37-0.44-0.55-0.99-0.55-1.63V67.5c0-0.41,0.08-0.78,0.24-1.14c0.16-0.35,0.39-0.62,0.71-0.82c0.31-0.2,0.68-0.3,1.1-0.3
			c0.64,0,1.14,0.22,1.51,0.65C144.14,66.32,144.33,66.86,144.33,67.5"/>
		<path class="st4" d="M151.69,67.5v16.16c0,0.66-0.18,1.2-0.55,1.64c-0.36,0.43-0.87,0.65-1.52,0.65c-0.62,0-1.13-0.23-1.49-0.67
			c-0.37-0.44-0.55-0.99-0.55-1.63V67.5c0-0.41,0.08-0.78,0.24-1.14c0.16-0.35,0.39-0.62,0.71-0.82c0.31-0.2,0.68-0.3,1.1-0.3
			c0.64,0,1.14,0.22,1.51,0.65C151.5,66.32,151.69,66.86,151.69,67.5"/>
		<path class="st6" d="M149.27,1.98c1.23,1.38,1.56,3.44,0.68,5.88c-0.96,2.66-7.13,0.69-9.46,1.38c-2.67,0.8-5.4,2.29-7.13,4.53
			c-4.05,5.26-1.69,13.89,2.97,17.52c2.73,2.13,6.05,2.56,9.4,2.2c2.07-0.22,4.88-1.93,6.92-1.2c1.82,0.65,2.59,3.85,2.17,5.5
			c-1.2,4.74-10.01,5.49-13.71,5.46c-5.24-0.06-10.83-2.24-14.31-6.25c-2.19-2.52-4.58-6.2-5.37-9.55
			c-2.16-9.09,2.61-18.99,7.91-23.11c2.94-2.28,6.78-3.64,10.45-4.13c2.03-0.28,4.1-0.3,6.12,0.05
			C147.34,0.51,148.49,1.11,149.27,1.98"/>
		<path class="st7" d="M111.17,43.78c0.84-4.09-4.07-7.55-7.64-7.98c-0.87-0.1-1.98,5.07-2.14,5.64c-0.38,1.32-0.75,2.61-1.01,3.96
			C99.47,50.07,110.27,48.14,111.17,43.78 M113.89,28.46c0.92-2.18-1.46-5.07-3.1-6.16c-3.47-2.31-4.31,2.4-5.05,5.06
			c-0.59,2.11-1.38,3.71,1.42,4.13C109.55,31.84,112.87,30.86,113.89,28.46 M116.09,36.67c1.42,0.66,2.56,2.54,3.32,3.88
			c0.78,1.38,1.26,2.98,1.46,4.55c0.43,3.37-0.68,6.7-3.55,8.7c-3.85,2.68-9.13,2.38-13.53,1.64c-3.78-0.64-7.42-1.58-11-2.97
			c-6.52-2.53-2.7-8.13-1.21-12.95c1.24-4.02,2.51-8.02,3.74-12.04c1.17-3.78,2.6-7.47,3.72-11.27c2.61-8.95,18.47,1.81,21.46,5.7
			c1.71,2.22,2.67,5.86,1.71,8.63C121.18,33.47,119.19,35.89,116.09,36.67"/>
		<path class="st8" d="M68.33,24.01c2.85,0.11,6.61,0.08,9.55-0.51c-1.54-4.56-5.54-13.1-5.81-13.04
			C70.9,15.05,69.58,19.5,68.33,24.01 M77.25,2.02c1.22,0.88,2.21,2.22,2.94,4.01c1.52,3.78,3.09,7.54,4.67,11.3
			c1.95,4.67,4.66,8.98,6.51,13.69c0.9,2.32,3.92,7.14,1.52,9.41c-3.03,2.86-8.51,0.18-10.07-2.87c-0.69-1.36-0.91-3.42-1.94-4.56
			c-1.4-1.56-12.33-1.61-14.33-0.38c-2.06,1.26-1.64,4.08-1.91,6.12c-0.99,7.25-8.4,8.37-9.38,2.85c-0.45-2.55,0.74-5.17,1.52-7.55
			c2.04-6.2,3.29-12.62,5.01-18.91c1.26-4.59,2.47-12.24,7.78-13.86C72.61,0.33,75.24,0.57,77.25,2.02"/>
	</g>
</g>
</svg>
