<?xml version="1.0" encoding="utf-8"?>
<!-- Generator: Adobe Illustrator 24.2.0, SVG Export Plug-In . SVG Version: 6.00 Build 0)  -->
<svg version="1.1" id="레이어_1" xmlns="http://www.w3.org/2000/svg" xmlns:xlink="http://www.w3.org/1999/xlink" x="0px"
	 y="0px" viewBox="0 0 104.23 32.59" style="enable-background:new 0 0 104.23 32.59;" xml:space="preserve">
<style type="text/css">
	.st0{fill:#42464F;}
	.st1{fill:#1E97C8;}
	.st2{fill:#A4C25D;}
	.st3{fill:#FFFFFF;}
</style>
<g>
	<path class="st0" d="M79.27,16.31c1.03,0,1.54,0.48,1.54,1.45c0,0.97-0.51,1.45-1.54,1.45H61.23c-1.03,0-1.54-0.48-1.54-1.45
		c0-0.97,0.51-1.45,1.54-1.45H79.27z M63.65,8.55c-1.03,0-1.54-0.48-1.54-1.45c0-0.97,0.51-1.45,1.54-1.45h12.5
		c1.03,0,1.72,0.2,2.09,0.6c0.37,0.4,0.55,0.97,0.55,1.73v0.58c0,0.43-0.02,0.91-0.04,1.44s-0.06,1.08-0.1,1.63
		c-0.04,0.55-0.1,1.1-0.17,1.63c-0.08,0.53-0.16,1-0.23,1.41c-0.06,0.27-0.16,0.5-0.31,0.68c-0.15,0.18-0.32,0.33-0.52,0.42
		c-0.2,0.1-0.42,0.15-0.65,0.16c-0.23,0.01-0.46-0.01-0.67-0.07c-0.39-0.12-0.69-0.35-0.92-0.7c-0.22-0.35-0.29-0.77-0.19-1.25
		c0.02-0.12,0.04-0.25,0.07-0.41s0.05-0.32,0.07-0.49H63.19c-1.03,0-1.54-0.48-1.54-1.45c0-0.97,0.51-1.45,1.54-1.45h12.27
		c0-0.14,0-0.27,0.01-0.39c0.01-0.13,0.02-0.24,0.02-0.33V9.01c0-0.16-0.02-0.27-0.06-0.35c-0.04-0.08-0.15-0.12-0.32-0.12H63.65z
		 M65.69,28.28c-0.12,0-0.22,0.02-0.31,0.07c-0.09,0.05-0.13,0.14-0.13,0.28v0.7c0,0.14,0.04,0.23,0.13,0.28
		c0.09,0.05,0.19,0.07,0.31,0.07h11.57c1.03,0,1.54,0.48,1.54,1.45c0,0.97-0.51,1.45-1.54,1.45H65.13c-1.16,0-1.99-0.18-2.47-0.55
		c-0.48-0.37-0.73-1.08-0.73-2.12v-1.66c0-0.58,0.06-1.06,0.17-1.42c0.12-0.37,0.3-0.66,0.55-0.87c0.25-0.21,0.58-0.36,0.99-0.45
		c0.41-0.09,0.9-0.13,1.48-0.13h9.91c0.12,0,0.22-0.02,0.31-0.07c0.09-0.05,0.13-0.14,0.13-0.28v-0.64c0-0.14-0.04-0.23-0.13-0.28
		c-0.09-0.05-0.19-0.07-0.31-0.07H63.62c-1.03,0-1.54-0.48-1.54-1.45c0-0.97,0.51-1.45,1.54-1.45H75.6c1.16,0,1.99,0.19,2.47,0.55
		c0.48,0.37,0.73,1.08,0.73,2.12v1.57c0,1.14-0.24,1.91-0.73,2.31c-0.48,0.4-1.31,0.6-2.47,0.6H65.69z"/>
	<path class="st0" d="M86.97,13.69c-0.23,0-0.35,0.11-0.35,0.32v1.6c0,0.19,0.03,0.32,0.1,0.36c0.07,0.05,0.19,0.07,0.36,0.07
		c0.64,0,1.35-0.02,2.14-0.07c0.79-0.05,1.58-0.12,2.4-0.22c0.81-0.1,1.62-0.21,2.43-0.35c0.8-0.14,1.55-0.29,2.22-0.47
		c0.54-0.14,0.98-0.12,1.31,0.06c0.33,0.17,0.54,0.44,0.64,0.79c0.1,0.43,0.06,0.8-0.12,1.13c-0.17,0.33-0.54,0.57-1.1,0.73
		c-0.81,0.23-1.67,0.43-2.57,0.58c-0.9,0.16-1.8,0.28-2.7,0.38c-0.9,0.1-1.8,0.18-2.69,0.23c-0.89,0.06-1.73,0.1-2.5,0.12
		c-0.58,0.02-1.08-0.01-1.48-0.07c-0.41-0.07-0.74-0.2-1-0.41c-0.26-0.2-0.45-0.48-0.57-0.83c-0.12-0.35-0.17-0.8-0.17-1.37v-2.82
		c0-0.58,0.07-1.05,0.2-1.4c0.14-0.35,0.34-0.62,0.61-0.8c0.27-0.18,0.61-0.31,1-0.38c0.4-0.07,0.86-0.1,1.38-0.1h5.55
		c0.12,0,0.22-0.02,0.31-0.07c0.09-0.05,0.13-0.14,0.13-0.28V9.27c0-0.14-0.04-0.23-0.13-0.28c-0.09-0.05-0.19-0.07-0.31-0.07h-7.03
		c-1.03,0-1.54-0.48-1.54-1.45c0-0.97,0.51-1.45,1.54-1.45h7.59c1.16,0,1.99,0.18,2.47,0.55c0.48,0.37,0.73,1.08,0.73,2.12v2.33
		c0,1.05-0.24,1.75-0.73,2.12c-0.49,0.37-1.31,0.55-2.47,0.55H86.97z M91.36,23.89h9.53v-1.86c0-0.48,0.16-0.84,0.49-1.08
		c0.33-0.23,0.72-0.35,1.16-0.35c0.45,0,0.83,0.12,1.16,0.35c0.33,0.23,0.49,0.59,0.49,1.08v7.67c0,1.05-0.24,1.75-0.73,2.12
		c-0.49,0.37-1.31,0.55-2.47,0.55h-9.77c-1.16,0-1.99-0.18-2.47-0.55c-0.48-0.37-0.73-1.08-0.73-2.12v-7.67
		c0-0.48,0.16-0.84,0.49-1.08c0.33-0.23,0.72-0.35,1.16-0.35c0.45,0,0.83,0.12,1.16,0.35c0.33,0.23,0.49,0.59,0.49,1.08V23.89z
		 M100.46,29.48c0.29,0,0.44-0.14,0.44-0.41V26.8h-9.53v2.24c0,0.29,0.16,0.44,0.47,0.44H100.46z M100.92,12.67h-2.53
		c-1.03,0-1.54-0.48-1.54-1.45s0.51-1.45,1.54-1.45h2.53V6.49c0-0.5,0.16-0.87,0.49-1.1c0.33-0.23,0.72-0.35,1.16-0.35
		c0.45,0,0.83,0.12,1.16,0.35c0.33,0.23,0.49,0.59,0.49,1.08v11.57c0,0.48-0.17,0.84-0.49,1.08c-0.33,0.23-0.72,0.35-1.16,0.35
		c-0.45,0-0.83-0.12-1.16-0.35c-0.33-0.23-0.49-0.6-0.49-1.1V12.67z"/>
	<path class="st1" d="M55.91,0.39C55.55,0.13,55.11,0,54.62,0c-0.5,0-0.93,0.13-1.3,0.39c-0.37,0.26-0.55,0.67-0.55,1.23v4.04h-0.04
		v4.37H39.06V5.66h-0.01V1.59c0-0.54-0.18-0.94-0.55-1.2C38.14,0.13,37.71,0,37.21,0c-0.5,0-0.93,0.14-1.3,0.41
		c-0.37,0.27-0.55,0.67-0.55,1.18v9.26c0,0.61,0.06,1.1,0.19,1.48c0.13,0.38,0.33,0.68,0.62,0.91c0.28,0.23,0.65,0.38,1.1,0.47
		c0.45,0.09,1.01,0.13,1.65,0.13h0.14v-0.01h13.66v0.01h0.17c0.65,0,1.2-0.04,1.65-0.13c0.45-0.09,0.82-0.24,1.1-0.45
		c0.28-0.22,0.49-0.52,0.62-0.91c0.13-0.39,0.2-0.9,0.2-1.53V1.59C56.47,1.05,56.28,0.65,55.91,0.39z"/>
	<g>
		<path class="st2" d="M44.03,5.17c1.55,1.2,1.53,3.41,1.53,3.41s-2.52,0.26-4.07-0.95c-1.55-1.2-1.53-3.41-1.53-3.41
			S42.49,3.97,44.03,5.17z"/>
		<path class="st2" d="M47.64,5.17c-1.55,1.2-1.53,3.41-1.53,3.41s2.52,0.26,4.07-0.95s1.53-3.41,1.53-3.41S49.19,3.97,47.64,5.17z"
			/>
	</g>
	<path class="st0" d="M44.19,21.49v-2.21h-7.47c-1.15,0-1.72-0.54-1.72-1.62c0-1.08,0.57-1.62,1.72-1.62H55.1
		c1.15,0,1.72,0.54,1.72,1.62c0,1.08-0.57,1.62-1.72,1.62h-7.21v2.21h3.99c1.3,0,2.22,0.2,2.76,0.6c0.54,0.4,0.81,1.18,0.81,2.35
		v6.33c0,0.54-0.18,0.94-0.55,1.2c-0.37,0.26-0.8,0.39-1.3,0.39c-0.5,0-0.93-0.13-1.3-0.39c-0.37-0.26-0.55-0.66-0.55-1.2v-5.65
		c0-0.15-0.05-0.25-0.15-0.31c-0.1-0.05-0.21-0.08-0.34-0.08H38.13c-1.15,0-1.72-0.54-1.72-1.62c0-1.08,0.57-1.62,1.72-1.62H44.19z"
		/>
	<circle class="st2" cx="14.51" cy="17.16" r="14.51"/>
	<g>
		<g>
			<g>
				<path class="st3" d="M25.65,12.5c0,0-0.14-0.11-0.14,0.31c-0.01,0.35-1.31,1.17-2.61,1.08c0,0-0.31-2.2-0.58-2.38
					c-0.36-0.25-0.64,1.41-0.69,1.66c-0.05,0.25-0.42,1.97-0.28,3.11c0,0-2.89,1.56-4.83,0.92c0,0-0.38-0.16-0.17-0.81
					c0.28-0.83,0.84-0.53,0.84-0.53s1.16,0.55,1.86,0.2c0.7-0.36,1.42-1.37,0.82-3.22c0,0-0.14-0.45-0.85-0.55
					c-0.8-0.12-1.89-0.39-1.89-0.39s-0.11,0.91,0.03,1.25c0.14,0.33,0.7,0.41,1.83,0.61c0,0,0.25,0.3-0.14,0.61
					c-0.39,0.3-1.44,0.03-1.83,0.08c-0.39,0.05-1.42,0.47-1.69,2.47c0,0-0.09,1.61,0.78,2.14c0.61,0.36,3.72,1.02,5.25-1.91
					c0,0,0.11-0.14,0.11,0.05c0,0.19,0.2,1.08,0.2,1.08s-0.32-0.14-0.42-0.18c-0.11-0.05-0.23,0.06-0.45,0.38
					c-0.15,0.23-0.39,0.69-0.52,0.97c-0.15,0.32-1.09,2.61-1.03,3.69c0,0-0.03,0.39,0.44,0.39c0.56,0,2.86-0.11,3.72-0.47
					c0,0,1.31-0.16,1.28-3.64c0,0-0.11-0.39-1.47-0.61c0,0,0.14-0.78-0.11-2.63c0,0,1.89,0.47,3.25-2.64
					C26.33,13.53,26.59,13.26,25.65,12.5z M22.74,21.12c0,0-1.17,0.07-1.23,0.01c-0.06-0.07,0.3-1.36,0.3-1.36l1.14,0.16
					L22.74,21.12z"/>
				<g>
					<path class="st3" d="M14.42,14.92c-0.19-0.25-0.55,0-0.78,0.14c-0.22,0.14-0.91,0.5-1.27,0.66c-0.65,0.29-0.78,0-0.78,0
						c-0.37-1.07-1.3-2.33-1.3-2.33c-0.63-0.73-1.16-0.58-1.16-0.58s-0.26,0.06-0.36,0.35c-0.07,0.21-0.02,0.42,0.14,0.63
						c0.17,0.22,1.13,1.33,1.27,3.16c0.14,1.83-1,4.19-1.03,4.49c-0.02,0.31,0.04,0.4,0.17,0.61c0.08,0.14,0.33,0.25,0.33,0.25
						s0.22,0.09,0.35,0.09c0.17,0,0.37-0.12,0.37-0.12c0.72-0.39,1.53-2.35,1.64-3.13c0.08-0.55,0.28-0.5,0.28-0.5
						c1,0.08,1.36-0.04,1.83-0.5C14.68,17.59,14.62,15.18,14.42,14.92z"/>
					<path class="st3" d="M4.87,13.9c0,0-1.47,0.33-1.95,1.75c-0.27,0.82-0.31,1.11-0.25,2.5c0,0,0.2,1.44,0.86,2.02
						c0.67,0.58,1.51,0.58,2.89,0.06c1.53-0.58,1.97-1.2,2.03-2.25C8.51,16.92,8.18,13.48,4.87,13.9z M6.29,17.95
						c-0.53,0.17-1.47,0.04-1.66-0.53c-0.35-0.98,1.08-1.41,1.08-1.41c1.05-0.17,1.39,0.38,1.41,0.86
						C7.16,17.48,6.81,17.79,6.29,17.95z"/>
				</g>
			</g>
		</g>
	</g>
</g>
</svg>
