<svg xmlns="http://www.w3.org/2000/svg" width="40" height="40" viewBox="0 0 40 40">
    <defs>
        <style>
            .cls-1{fill:none}.cls-2{fill:#bbb}
        </style>
    </defs>
    <g id="mic-24px" transform="translate(1.085 .573)">
        <g id="그룹_1929" transform="translate(-.585 -.573)">
            <path id="사각형_514" d="M0 0H40V40H0z" class="cls-1" transform="translate(-.5)"/>
            <path id="사각형_515" d="M0 0H40V40H0z" class="cls-1" transform="translate(-.5)"/>
            <path id="사각형_516" d="M0 0H40V40H0z" class="cls-1" transform="translate(-.5)"/>
        </g>
        <g id="그룹_1931" transform="translate(5.429 1.124)">
            <g id="그룹_1930">
                <path id="패스_1921" d="M14.78 25.119a5.772 5.772 0 0 0 5.78-5.78V7.78A5.78 5.78 0 1 0 9 7.78v11.559a5.772 5.772 0 0 0 5.78 5.78z" class="cls-2" transform="translate(-1.294 -2)"/>
                <path id="패스_1922" d="M28.119 11a9.633 9.633 0 1 1-19.266 0H5a13.477 13.477 0 0 0 11.559 13.332v5.934h3.853v-5.934A13.477 13.477 0 0 0 31.972 11z" class="cls-2" transform="translate(-5 6.339)"/>
            </g>
        </g>
    </g>
</svg>
