<svg xmlns="http://www.w3.org/2000/svg" width="100" height="113.744" viewBox="0 0 100 113.744">
    <defs>
        <style>
            .cls-1{fill:#ffb612}
        </style>
    </defs>
    <g id="그룹_2330" transform="translate(-695 -246.256)">
        <g id="그룹_850" transform="translate(-155.098 82)">
            <g id="그룹_834" transform="translate(866.669 164.256)">
                <path id="패스_1512" d="M220.918 106.783S213.891 96.243 208.62 98s1.757 15.811 1.757 15.811z" class="cls-1" transform="translate(-206.66 -97.802)"/>
            </g>
            <g id="그룹_835" transform="translate(919.53 164.256)">
                <path id="패스_1513" d="M340.261 106.783s7.027-10.541 12.3-8.784-1.757 15.811-1.757 15.811z" class="cls-1" transform="translate(-340.261 -97.802)"/>
            </g>
            <rect id="사각형_397" width="100" height="110" fill="#34cc67" rx="50" transform="translate(850.097 168)"/>
        </g>
        <path id="패스_4665" fill="#fff" d="M-2.94-20.4h5.76V2.1A3.782 3.782 0 0 0 6.9 6.18a3.828 3.828 0 0 0 4.14-4.08v-44.76a3.828 3.828 0 0 0-4.14-4.08 3.782 3.782 0 0 0-4.08 4.08v14.52h-5.76v-14.04a3.647 3.647 0 0 0-4.02-3.96c-2.52 0-4.08 1.44-4.08 3.96V.54c0 2.52 1.56 3.96 4.08 3.96A3.647 3.647 0 0 0-2.94.54z" transform="translate(745 325)"/>
    </g>
</svg>
