<svg xmlns="http://www.w3.org/2000/svg" width="100" height="113.744" viewBox="0 0 100 113.744">
    <defs>
        <style>
            .cls-1{fill:#ffb612}
        </style>
    </defs>
    <g id="그룹_2331" transform="translate(-115 -536.256)">
        <g id="그룹_852" transform="translate(-735.098 372)">
            <g id="그룹_834" transform="translate(866.669 164.256)">
                <path id="패스_1512" d="M220.918 106.783S213.891 96.243 208.62 98s1.757 15.811 1.757 15.811z" class="cls-1" transform="translate(-206.66 -97.802)"/>
            </g>
            <g id="그룹_835" transform="translate(919.53 164.256)">
                <path id="패스_1513" d="M340.261 106.783s7.027-10.541 12.3-8.784-1.757 15.811-1.757 15.811z" class="cls-1" transform="translate(-340.261 -97.802)"/>
            </g>
            <rect id="사각형_397" width="100" height="110" fill="#00b4f2" rx="50" transform="translate(850.097 168)"/>
        </g>
        <path id="패스_4668" fill="#fff" d="M-18.24-11.1c0 3.72 1.92 5.52 5.64 5.52h25.26c3.72 0 5.58-1.8 5.58-5.52v-18.42q0-5.58-5.58-5.58H-12.6c-3.72 0-5.64 1.86-5.64 5.58zm8.94-16.08c0-.6.18-.78.78-.78H8.46c.66 0 .84.18.84.78v13.62c0 .66-.18.84-.84.84H-8.52c-.6 0-.78-.18-.78-.84z" transform="translate(165 615)"/>
    </g>
</svg>
