<svg xmlns="http://www.w3.org/2000/svg" width="100" height="113.744" viewBox="0 0 100 113.744">
    <defs>
        <style>
            .cls-1{fill:#ffb612}
        </style>
    </defs>
    <g id="그룹_2328" transform="translate(-115 -246.256)">
        <g id="그룹_836" transform="translate(-735.098 82)">
            <rect id="사각형_397" width="100" height="110" class="cls-1" rx="50" transform="translate(850.097 168)"/>
            <g id="그룹_834" transform="translate(866.669 164.256)">
                <path id="패스_1512" d="M220.918 106.783S213.891 96.243 208.62 98s1.757 15.811 1.757 15.811z" class="cls-1" transform="translate(-206.66 -97.802)"/>
            </g>
            <g id="그룹_835" transform="translate(919.53 164.256)">
                <path id="패스_1513" d="M340.261 106.783s7.027-10.541 12.3-8.784-1.757 15.811-1.757 15.811z" class="cls-1" transform="translate(-340.261 -97.802)"/>
            </g>
        </g>
        <path id="패스_4663" fill="#fff" d="M-5.22 1.98c0 2.7 1.86 4.2 4.56 4.2s4.56-1.5 4.56-4.2v-21.96h7.98c2.58 0 4.08-1.32 4.08-3.9s-1.5-3.9-4.08-3.9H3.9v-14.76c0-2.7-1.86-4.2-4.56-4.2s-4.56 1.5-4.56 4.2z" transform="translate(165 325)"/>
    </g>
</svg>
